# Blender v2.83.0 OBJ File: 'canoe.blend'
# www.blender.org
mtllib canoe.mtl
o Plane
v 1.000000 0.000000 1.000000
v 0.500000 0.000000 3.123683
v 0.571596 -0.376488 1.886257
v 1.036147 0.000000 0.603857
v 1.253549 -0.158907 1.027591
v 0.659783 -0.158907 3.151274
v 0.862949 -0.583982 1.913848
v 1.289696 -0.158907 0.631448
v 0.637785 0.231850 3.285454
v 1.137784 0.231850 1.161771
v 1.173932 0.231850 0.765628
v 0.731173 0.072943 3.313045
v 1.231173 0.072943 1.189362
v 1.267320 0.072943 0.793219
v -1.000000 0.000000 1.000000
v -0.500000 0.000000 3.123683
v 0.000000 0.000000 3.898611
v -0.571596 -0.376488 1.886257
v -1.036147 0.000000 0.603857
v 0.000000 -0.410294 2.354202
v -1.253549 -0.158907 1.027591
v -0.659783 -0.158907 3.151274
v 0.000000 -0.158907 3.926202
v -0.862949 -0.583982 1.913848
v -1.289696 -0.158907 0.631448
v 0.000000 -0.617788 2.381793
v -0.637785 0.231850 3.285454
v -1.137784 0.231850 1.161771
v 0.000000 0.231850 4.060382
v -1.173932 0.231850 0.765628
v -0.731173 0.072943 3.313045
v -1.231173 0.072943 1.189362
v 0.000000 0.072943 4.087973
v -1.267320 0.072943 0.793219
v 1.000000 0.000000 -1.000000
v 0.500000 0.000000 -3.123683
v 0.680733 -0.534222 0.000000
v 1.091248 0.000000 0.000000
v 0.571596 -0.376488 -1.886257
v 1.036147 0.000000 -0.603857
v 1.253549 -0.158907 -1.027591
v 0.659783 -0.158907 -3.151274
v 0.937882 -0.741716 0.000000
v 1.344797 -0.158907 0.000000
v 0.862949 -0.583982 -1.913848
v 1.289696 -0.158907 -0.631448
v 0.637785 0.231850 -3.285454
v 1.137784 0.231850 -1.161771
v 1.173932 0.231850 -0.765628
v 1.229032 0.231850 0.000000
v 0.731173 0.072943 -3.313045
v 1.231173 0.072943 -1.189362
v 1.267320 0.072943 -0.793219
v 1.322420 0.072943 0.000000
v -1.000000 0.000000 -1.000000
v -0.500000 0.000000 -3.123683
v 0.000000 0.000000 -3.898611
v -0.680733 -0.534222 0.000000
v -1.091248 0.000000 0.000000
v 0.000000 -0.619560 0.000000
v -0.571596 -0.376488 -1.886257
v -1.036147 0.000000 -0.603857
v 0.000000 -0.410294 -2.354202
v -1.253549 -0.158907 -1.027591
v -0.659783 -0.158907 -3.151274
v 0.000000 -0.158907 -3.926202
v -0.937882 -0.741716 0.000000
v -1.344797 -0.158907 0.000000
v 0.000000 -0.827054 0.000000
v -0.862949 -0.583982 -1.913848
v -1.289696 -0.158907 -0.631448
v 0.000000 -0.617788 -2.381793
v -0.637785 0.231850 -3.285454
v -1.137784 0.231850 -1.161771
v 0.000000 0.231850 -4.060382
v -1.173932 0.231850 -0.765628
v -1.229032 0.231850 0.000000
v -0.731173 0.072943 -3.313045
v -1.231173 0.072943 -1.189362
v 0.000000 0.072943 -4.087973
v -1.267320 0.072943 -0.793219
v -1.322420 0.072943 0.000000
vt 0.797921 0.249919
vt 0.772707 0.500000
vt 0.696889 0.492356
vt 0.733361 0.291973
vt 0.623232 0.484929
vt 0.636461 0.416049
vt 0.746332 0.151608
vt 0.649042 0.372958
vt 0.813948 0.090961
vt 0.199688 0.692682
vt 0.139629 0.614964
vt 0.202742 0.420073
vt 0.301937 0.464528
vt 0.104740 0.458606
vt 0.129967 0.387458
vt 0.094566 0.746047
vt 0.096396 0.502984
vt 0.138806 0.828532
vt 0.624164 0.346977
vt 0.724700 0.121073
vt 0.068099 0.519461
vt 0.072996 0.471005
vt 0.591209 0.481701
vt 0.609604 0.391404
vt 0.126977 0.854928
vt 0.067729 0.765369
vt 0.045217 0.775782
vt 0.045217 0.516367
vt 0.050094 0.463816
vt 0.081768 0.365858
vt 0.103390 0.375548
vt 0.119088 0.872530
vt 0.817174 0.058960
vt 0.852787 0.304014
vt 0.848524 0.507644
vt 0.922969 0.444936
vt 0.922182 0.515071
vt 0.868096 0.163885
vt 0.919243 0.400201
vt 0.401132 0.508983
vt 0.297666 0.685789
vt 0.473907 0.541598
vt 0.437591 0.607775
vt 0.229814 0.806659
vt 0.410019 0.643536
vt 0.895388 0.138283
vt 0.948806 0.379708
vt 0.449462 0.639721
vt 0.416553 0.675623
vt 0.954204 0.426148
vt 0.954204 0.518299
vt 0.233252 0.839550
vt 0.240461 0.863283
vt 0.434090 0.690643
vt 0.470068 0.652031
vt 0.500484 0.553508
vt 0.522106 0.563199
vt 0.747493 0.750081
vt 0.692627 0.695986
vt 0.622445 0.555064
vt 0.677318 0.836115
vt 0.626170 0.599799
vt 0.731466 0.909039
vt 0.404186 0.236374
vt 0.306207 0.243267
vt 0.166283 0.321281
vt 0.374060 0.122397
vt 0.193854 0.285520
vt 0.465068 0.100524
vt 0.650026 0.861717
vt 0.596608 0.620292
vt 0.154412 0.289336
vt 0.187321 0.253433
vt 0.591209 0.573852
vt 0.370622 0.089506
vt 0.476897 0.074129
vt 0.363413 0.065773
vt 0.169784 0.238413
vt 0.133806 0.277025
vt 0.484786 0.056526
vt 0.728239 0.941040
vt 0.812053 0.708027
vt 0.908953 0.583951
vt 0.799082 0.848392
vt 0.896372 0.627042
vt 0.464245 0.314093
vt 0.499134 0.470450
vt 0.509307 0.183009
vt 0.507477 0.426072
vt 0.921249 0.653023
vt 0.820713 0.878926
vt 0.535775 0.409596
vt 0.530878 0.458051
vt 0.935809 0.608595
vt 0.536145 0.163687
vt 0.558657 0.153274
vt 0.558657 0.412689
vt 0.553780 0.465240
vn 0.1272 -0.9879 0.0888
vn 0.7788 -0.6207 0.0907
vn 0.8301 -0.5288 0.1766
vn 0.3352 -0.9043 0.2644
vn -0.0881 0.9924 -0.0863
vn -0.8143 0.5753 -0.0773
vn -0.9051 0.3600 -0.2263
vn -0.2728 0.9110 -0.3094
vn 0.7831 -0.5940 0.1844
vn -0.9953 -0.0327 -0.0908
vn 0.8470 -0.5272 0.0682
vn -0.6436 0.5021 -0.5776
vn -0.8303 -0.5219 -0.1955
vn -0.8582 -0.5096 -0.0607
vn -0.7106 -0.3178 -0.6277
vn -0.8536 -0.5152 -0.0779
vn 0.6751 -0.5464 0.4956
vn 0.8330 -0.5481 0.0760
vn -0.9946 -0.0692 -0.0769
vn -0.9334 0.2664 -0.2404
vn -0.1272 -0.9879 0.0888
vn -0.7788 -0.6207 0.0907
vn -0.8301 -0.5288 0.1766
vn -0.3352 -0.9043 0.2644
vn 0.0881 0.9924 -0.0863
vn 0.8143 0.5753 -0.0773
vn 0.9051 0.3600 -0.2263
vn 0.2728 0.9110 -0.3094
vn -0.7831 -0.5940 0.1844
vn 0.9953 -0.0327 -0.0908
vn -0.8470 -0.5272 0.0682
vn 0.6436 0.5021 -0.5776
vn 0.8303 -0.5219 -0.1955
vn 0.8582 -0.5096 -0.0607
vn 0.7106 -0.3178 -0.6277
vn 0.8536 -0.5152 -0.0779
vn -0.6751 -0.5464 0.4956
vn -0.8330 -0.5481 0.0760
vn 0.9946 -0.0692 -0.0769
vn 0.9334 0.2664 -0.2404
vn 0.1272 -0.9879 -0.0888
vn 0.7788 -0.6207 -0.0907
vn 0.8301 -0.5288 -0.1766
vn 0.3352 -0.9043 -0.2644
vn -0.0881 0.9924 0.0863
vn -0.8143 0.5753 0.0773
vn -0.9051 0.3600 0.2263
vn -0.2728 0.9110 0.3094
vn 0.7831 -0.5940 -0.1844
vn -0.9953 -0.0327 0.0908
vn 0.8470 -0.5272 -0.0682
vn -0.6436 0.5021 0.5776
vn -0.8303 -0.5219 0.1955
vn -0.8582 -0.5096 0.0607
vn -0.7106 -0.3178 0.6277
vn -0.8536 -0.5152 0.0779
vn 0.6751 -0.5464 -0.4956
vn 0.8330 -0.5481 -0.0760
vn -0.9946 -0.0692 0.0769
vn -0.9334 0.2664 0.2404
vn -0.1272 -0.9879 -0.0888
vn -0.7788 -0.6207 -0.0907
vn -0.8301 -0.5288 -0.1766
vn -0.3352 -0.9043 -0.2644
vn 0.0881 0.9924 0.0863
vn 0.8143 0.5753 0.0773
vn 0.9051 0.3600 0.2263
vn 0.2728 0.9110 0.3094
vn -0.7831 -0.5940 -0.1844
vn 0.9953 -0.0327 0.0908
vn -0.8470 -0.5272 -0.0682
vn 0.6436 0.5021 0.5776
vn 0.8303 -0.5219 0.1955
vn 0.8582 -0.5096 0.0607
vn 0.7106 -0.3178 0.6277
vn 0.8536 -0.5152 0.0779
vn -0.6751 -0.5464 -0.4956
vn -0.8330 -0.5481 -0.0760
vn 0.9946 -0.0692 0.0769
vn 0.9334 0.2664 0.2404
g Plane_Plane_Material.001
usemtl Material.001
s off
f 20/1/1 60/2/1 37/3/1 3/4/1
f 3/4/2 37/3/2 38/5/2 4/6/2
f 2/7/3 3/4/3 4/6/3 1/8/3
f 17/9/4 20/1/4 3/4/4 2/7/4
f 26/10/5 7/11/5 43/12/5 69/13/5
f 7/11/6 8/14/6 44/15/6 43/12/6
f 6/16/7 5/17/7 8/14/7 7/11/7
f 23/18/8 6/16/8 7/11/8 26/10/8
f 2/7/9 1/8/9 10/19/9 9/20/9
f 8/14/10 5/17/10 13/21/10 14/22/10
f 4/6/11 38/5/11 50/23/11 11/24/11
f 6/16/12 23/18/12 33/25/12 12/26/12
f 9/27/13 10/28/13 13/21/13 12/26/13
f 11/29/14 50/30/14 54/31/14 14/22/14
f 29/32/15 9/27/15 12/26/15 33/25/15
f 10/28/16 11/29/16 14/22/16 13/21/16
f 17/9/17 2/7/17 9/20/17 29/33/17
f 1/8/18 4/6/18 11/24/18 10/19/18
f 44/15/19 8/14/19 14/22/19 54/31/19
f 5/17/20 6/16/20 12/26/20 13/21/20
f 20/1/21 18/34/21 58/35/21 60/2/21
f 18/34/22 19/36/22 59/37/22 58/35/22
f 16/38/23 15/39/23 19/36/23 18/34/23
f 17/9/24 16/38/24 18/34/24 20/1/24
f 26/10/25 69/13/25 67/40/25 24/41/25
f 24/41/26 67/40/26 68/42/26 25/43/26
f 22/44/27 24/41/27 25/43/27 21/45/27
f 23/18/28 26/10/28 24/41/28 22/44/28
f 16/38/29 27/46/29 28/47/29 15/39/29
f 25/43/30 34/48/30 32/49/30 21/45/30
f 19/36/31 30/50/31 77/51/31 59/37/31
f 22/44/32 31/52/32 33/25/32 23/18/32
f 27/53/33 31/52/33 32/49/33 28/54/33
f 30/55/34 34/48/34 82/56/34 77/57/34
f 29/32/35 33/25/35 31/52/35 27/53/35
f 28/54/36 32/49/36 34/48/36 30/55/36
f 17/9/37 29/33/37 27/46/37 16/38/37
f 15/39/38 28/47/38 30/50/38 19/36/38
f 68/42/39 82/56/39 34/48/39 25/43/39
f 21/45/40 32/49/40 31/52/40 22/44/40
f 63/58/41 39/59/41 37/3/41 60/2/41
f 39/59/42 40/60/42 38/5/42 37/3/42
f 36/61/43 35/62/43 40/60/43 39/59/43
f 57/63/44 36/61/44 39/59/44 63/58/44
f 72/64/45 69/13/45 43/12/45 45/65/45
f 45/65/46 43/12/46 44/15/46 46/66/46
f 42/67/47 45/65/47 46/66/47 41/68/47
f 66/69/48 72/64/48 45/65/48 42/67/48
f 36/61/49 47/70/49 48/71/49 35/62/49
f 46/66/50 53/72/50 52/73/50 41/68/50
f 40/60/51 49/74/51 50/23/51 38/5/51
f 42/67/52 51/75/52 80/76/52 66/69/52
f 47/77/53 51/75/53 52/73/53 48/78/53
f 49/79/54 53/72/54 54/31/54 50/30/54
f 75/80/55 80/76/55 51/75/55 47/77/55
f 48/78/56 52/73/56 53/72/56 49/79/56
f 57/63/57 75/81/57 47/70/57 36/61/57
f 35/62/58 48/71/58 49/74/58 40/60/58
f 44/15/59 54/31/59 53/72/59 46/66/59
f 41/68/60 52/73/60 51/75/60 42/67/60
f 63/58/61 60/2/61 58/35/61 61/82/61
f 61/82/62 58/35/62 59/37/62 62/83/62
f 56/84/63 61/82/63 62/83/63 55/85/63
f 57/63/64 63/58/64 61/82/64 56/84/64
f 72/64/65 70/86/65 67/40/65 69/13/65
f 70/86/66 71/87/66 68/42/66 67/40/66
f 65/88/67 64/89/67 71/87/67 70/86/67
f 66/69/68 65/88/68 70/86/68 72/64/68
f 56/84/69 55/85/69 74/90/69 73/91/69
f 71/87/70 64/89/70 79/92/70 81/93/70
f 62/83/71 59/37/71 77/51/71 76/94/71
f 65/88/72 66/69/72 80/76/72 78/95/72
f 73/96/73 74/97/73 79/92/73 78/95/73
f 76/98/74 77/57/74 82/56/74 81/93/74
f 75/80/75 73/96/75 78/95/75 80/76/75
f 74/97/76 76/98/76 81/93/76 79/92/76
f 57/63/77 56/84/77 73/91/77 75/81/77
f 55/85/78 62/83/78 76/94/78 74/90/78
f 68/42/79 71/87/79 81/93/79 82/56/79
f 64/89/80 65/88/80 78/95/80 79/92/80
