# Blender v2.82 (sub 7) OBJ File: 'box.blend'
# www.blender.org
mtllib Box.mtl
o Cube
v 1.000000 0.875290 -0.875290
v 1.000000 -0.875290 -0.875290
v 1.000000 0.875290 0.875290
v 1.000000 -0.875290 0.875290
v -1.000000 0.875290 -0.875290
v -1.000000 -0.875290 -0.875290
v -1.000000 0.875290 0.875290
v -1.000000 -0.875290 0.875290
v -0.853116 -1.000000 -0.853116
v -0.853116 -1.000000 0.853116
v 0.853116 1.000000 -0.853116
v 0.853116 -1.000000 -0.853116
v -0.853116 1.000000 0.853116
v 0.853116 1.000000 0.853116
v 0.853116 -1.000000 0.853116
v -0.853116 1.000000 -0.853116
v -0.876232 -0.876232 -1.000000
v -0.876232 -0.876232 1.000000
v 0.876232 -0.876232 -1.000000
v 0.876232 0.876232 1.000000
v -0.876232 0.876232 1.000000
v 0.876232 0.876232 -1.000000
v 0.876232 -0.876232 1.000000
v -0.876232 0.876232 -1.000000
v 1.000000 -1.000000 -1.000000
v -1.000000 -1.000000 -1.000000
v 1.000000 1.000000 -1.000000
v -1.000000 -1.000000 1.000000
v -1.000000 1.000000 1.000000
v 1.000000 1.000000 1.000000
v 1.000000 -1.000000 1.000000
v -1.000000 1.000000 -1.000000
v -0.876232 -0.876232 0.942128
v -0.876232 0.876232 0.942128
v 0.876232 0.876232 0.942128
v 0.876232 -0.876232 0.942128
v 0.876232 -0.876232 -0.916585
v -0.876232 -0.876232 -0.916585
v 0.876232 0.876232 -0.916585
v -0.876232 0.876232 -0.916585
v -0.913718 -0.875290 -0.875290
v -0.913718 -0.875290 0.875290
v -0.913718 0.875290 0.875290
v -0.913718 0.875290 -0.875290
v 0.853116 0.958380 0.853116
v -0.853116 0.958380 0.853116
v 0.853116 0.958380 -0.853116
v -0.853116 0.958380 -0.853116
v 0.937476 0.875290 -0.875290
v 0.937476 -0.875290 -0.875290
v 0.937476 0.875290 0.875290
v 0.937476 -0.875290 0.875290
v -0.853116 -0.917286 -0.853116
v -0.853116 -0.917286 0.853116
v 0.853116 -0.917286 -0.853116
v 0.853116 -0.917286 0.853116
vt 0.206896 0.804868
vt 0.224233 0.631945
vt 0.228921 0.636025
vt 0.211175 0.799933
vt 0.223674 0.021685
vt 0.402363 0.030393
vt 0.397069 0.037131
vt 0.230756 0.027223
vt 0.606043 0.605751
vt 0.425977 0.616073
vt 0.433541 0.605309
vt 0.595773 0.598484
vt 0.401062 0.410555
vt 0.226697 0.402167
vt 0.234157 0.392704
vt 0.391141 0.402785
vt 0.020565 0.436737
vt 0.200691 0.426378
vt 0.195114 0.434334
vt 0.028139 0.442075
vt 0.403122 0.615487
vt 0.224428 0.606779
vt 0.231945 0.597250
vt 0.393130 0.607653
vt 0.605378 0.426301
vt 0.425311 0.436623
vt 0.414101 0.425194
vt 0.617253 0.414556
vt 0.201357 0.605823
vt 0.212569 0.414629
vt 0.212569 0.617252
vt 0.617253 0.617179
vt 0.021230 0.616183
vt 0.009353 0.627931
vt 0.009353 0.425308
vt 0.414101 0.627817
vt 0.400132 0.235073
vt 0.414260 0.222611
vt 0.381533 0.812957
vt 0.393197 0.827650
vt 0.191665 0.817085
vt 0.225767 0.226685
vt 0.212728 0.212046
vt 0.398869 0.640034
vt 0.402241 0.435668
vt 0.223547 0.426960
vt 0.403277 0.210279
vt 0.414223 0.019918
vt 0.224588 0.201571
vt 0.212691 0.009353
vt 0.635960 0.373144
vt 0.635960 0.200602
vt 0.808502 0.200602
vt 0.808502 0.373144
vt 0.229882 0.194833
vt 0.396195 0.204740
vt 0.808502 0.009353
vt 0.808502 0.181896
vt 0.635960 0.181896
vt 0.635960 0.009353
vt 0.233539 0.434793
vt 0.394724 0.445197
vt 0.808317 0.582914
vt 0.808317 0.755271
vt 0.635960 0.755271
vt 0.635960 0.582914
vt 0.435581 0.443889
vt 0.597813 0.437064
vt 0.803950 0.941968
vt 0.635960 0.941968
vt 0.635960 0.773977
vt 0.803950 0.773977
vt 0.394591 0.644969
vt 0.376845 0.808877
vt 0.808317 0.564207
vt 0.635960 0.564207
vt 0.635960 0.391850
vt 0.808317 0.391850
vt 0.026808 0.608227
vt 0.193783 0.600486
vt 0.990647 0.773977
vt 0.990647 0.941968
vt 0.822656 0.941968
vt 0.822656 0.773977
vt 0.392672 0.244536
vt 0.235688 0.234455
vn -1.0000 0.0000 0.0000
vn 0.0000 -1.0000 0.0000
vn 0.0000 0.0000 1.0000
vn 0.0000 1.0000 0.0000
vn 1.0000 0.0000 0.0000
vn 0.0000 0.0000 -1.0000
usemtl Material
s off
f 14/1/1 11/2/1 47/3/1 45/4/1
f 20/5/2 21/6/2 34/7/2 35/8/2
f 7/9/2 5/10/2 44/11/2 43/12/2
f 9/13/3 12/14/3 55/15/3 53/16/3
f 4/17/4 2/18/4 50/19/4 52/20/4
f 24/21/2 22/22/2 39/23/2 40/24/2
f 8/25/1 6/26/1 26/27/1 28/28/1
f 1/29/5 2/18/5 25/30/5 27/31/5
f 7/9/1 8/25/1 28/28/1 29/32/1
f 4/17/5 3/33/5 30/34/5 31/35/5
f 6/26/1 5/10/1 32/36/1 26/27/1
f 3/33/5 1/29/5 27/31/5 30/34/5
f 5/10/1 7/9/1 29/32/1 32/36/1
f 2/18/5 4/17/5 31/35/5 25/30/5
f 9/13/2 10/37/2 28/38/2 26/27/2
f 12/14/2 9/13/2 26/27/2 25/30/2
f 14/1/4 13/39/4 29/40/4 30/41/4
f 11/2/4 14/1/4 30/41/4 27/31/4
f 10/37/2 15/42/2 31/43/2 28/38/2
f 13/39/4 16/44/4 32/36/4 29/40/4
f 16/44/4 11/2/4 27/31/4 32/36/4
f 15/42/2 12/14/2 25/30/2 31/43/2
f 17/45/6 19/46/6 25/30/6 26/27/6
f 19/46/6 22/22/6 27/31/6 25/30/6
f 18/47/3 21/6/3 29/48/3 28/38/3
f 20/5/3 23/49/3 31/43/3 30/50/3
f 24/21/6 17/45/6 26/27/6 32/36/6
f 21/6/3 20/5/3 30/50/3 29/48/3
f 23/49/3 18/47/3 28/38/3 31/43/3
f 22/22/6 24/21/6 32/36/6 27/31/6
f 36/51/3 35/52/3 34/53/3 33/54/3
f 23/49/1 20/5/1 35/8/1 36/55/1
f 18/47/4 23/49/4 36/55/4 33/56/4
f 21/6/5 18/47/5 33/56/5 34/7/5
f 38/57/6 40/58/6 39/59/6 37/60/6
f 22/22/1 19/46/1 37/61/1 39/23/1
f 17/45/5 24/21/5 40/24/5 38/62/5
f 19/46/4 17/45/4 38/62/4 37/61/4
f 42/63/1 43/64/1 44/65/1 41/66/1
f 5/10/3 6/26/3 41/67/3 44/11/3
f 8/25/6 7/9/6 43/12/6 42/68/6
f 6/26/4 8/25/4 42/68/4 41/67/4
f 47/69/4 48/70/4 46/71/4 45/72/4
f 11/2/3 16/44/3 48/73/3 47/3/3
f 13/39/6 14/1/6 45/4/6 46/74/6
f 16/44/5 13/39/5 46/74/5 48/73/5
f 50/75/5 49/76/5 51/77/5 52/78/5
f 1/29/2 3/33/2 51/79/2 49/80/2
f 3/33/6 4/17/6 52/20/6 51/79/6
f 2/18/3 1/29/3 49/80/3 50/19/3
f 53/81/2 55/82/2 56/83/2 54/84/2
f 15/42/6 10/37/6 54/85/6 56/86/6
f 10/37/5 9/13/5 53/16/5 54/85/5
f 12/14/1 15/42/1 56/86/1 55/15/1
