# Blender v2.82 (sub 7) OBJ File: 'rock 2.blend'
# www.blender.org
mtllib rock_02.mtl
o Sphere
v 0.002213 -0.724288 -0.867273
v -0.005167 -1.062879 -0.503743
v -1.585635 -0.090672 0.000087
v -0.351791 -0.026342 -0.407126
v 0.464256 -0.242461 -0.702926
v 0.591590 -0.499227 -0.811162
v 0.511642 -0.889062 -0.703667
v 0.283429 -1.168396 -0.410444
v -0.108628 -0.162945 -0.171124
v 0.799877 -0.532402 -0.277800
v 0.976294 -0.699153 -0.327508
v 0.865551 -0.950465 -0.304324
v 0.487050 -1.201427 -0.180781
v -0.165405 -0.245183 0.126175
v 0.817281 -0.614693 0.235742
v 1.020831 -0.684069 0.254961
v 0.919049 -0.920845 0.188698
v 0.510884 -1.201479 0.111665
v -0.857550 -0.241207 0.398872
v 0.476129 -0.548390 0.674707
v 0.637764 -0.702433 0.774368
v 0.570415 -0.945759 0.655527
v 0.323827 -1.194790 0.374690
v -1.704337 -0.224448 0.491351
v -0.034245 -0.485247 0.852328
v 0.024040 -0.618640 0.986449
v 0.023579 -0.874654 0.852734
v -0.006637 -1.126624 0.488249
v -2.283986 -0.400940 0.392289
v -1.295657 -0.547351 0.692468
v -1.201140 -0.657164 0.801741
v -1.150043 -0.831564 0.692759
v -0.700844 -0.985937 0.395374
v -0.014734 -1.215304 -0.007559
v -2.402380 -0.466141 0.142491
v -2.566700 -0.674941 0.251529
v -2.551852 -0.776991 0.294242
v -2.277757 -0.913773 0.253925
v -1.205509 -1.029382 0.147056
v -1.826754 -0.363800 -0.160207
v -1.618595 -0.525314 -0.274224
v -1.605211 -0.647175 -0.314491
v -1.508797 -0.828205 -0.273675
v -0.909009 -0.994044 -0.159708
v -1.232159 -0.183856 -0.405532
v -0.564798 -0.298013 -0.700551
v -0.587468 -0.452010 -0.809190
v -0.507611 -0.717669 -0.701433
v -0.322962 -1.005671 -0.408004
v -0.766197 -0.015115 -0.499037
v -0.068749 -0.170486 -0.865796
v 0.000823 -0.370117 -1.000368
vt 0.700000 0.166667
vt 0.700000 0.333333
vt 0.600000 0.333333
vt 0.600000 0.166667
vt 0.700000 0.500000
vt 0.700000 0.666667
vt 0.600000 0.666667
vt 0.600000 0.500000
vt 0.700000 0.833333
vt 0.650000 1.000000
vt 0.600000 0.833333
vt 0.650000 0.000000
vt 0.500000 0.666667
vt 0.500000 0.500000
vt 0.550000 1.000000
vt 0.500000 0.833333
vt 0.550000 0.000000
vt 0.500000 0.166667
vt 0.500000 0.333333
vt 0.450000 1.000000
vt 0.400000 0.833333
vt 0.450000 0.000000
vt 0.400000 0.166667
vt 0.400000 0.500000
vt 0.400000 0.333333
vt 0.400000 0.666667
vt 0.350000 0.000000
vt 0.300000 0.166667
vt 0.300000 0.500000
vt 0.300000 0.333333
vt 0.300000 0.833333
vt 0.300000 0.666667
vt 0.350000 1.000000
vt 0.250000 0.000000
vt 0.200000 0.166667
vt 0.200000 0.500000
vt 0.200000 0.333333
vt 0.200000 0.833333
vt 0.200000 0.666667
vt 0.250000 1.000000
vt 0.150000 0.000000
vt 0.100000 0.166667
vt 0.100000 0.500000
vt 0.100000 0.333333
vt 0.100000 0.833333
vt 0.100000 0.666667
vt 0.150000 1.000000
vt 0.000000 0.500000
vt 0.000000 0.333333
vt 0.000000 0.833333
vt 0.000000 0.666667
vt 0.000000 0.166667
vt 0.050000 1.000000
vt 0.050000 0.000000
vt 1.000000 0.666667
vt 1.000000 0.833333
vt 0.900000 0.833333
vt 0.900000 0.666667
vt 1.000000 0.166667
vt 1.000000 0.333333
vt 0.900000 0.333333
vt 0.900000 0.166667
vt 1.000000 0.500000
vt 0.900000 0.500000
vt 0.950000 1.000000
vt 0.950000 0.000000
vt 0.800000 0.333333
vt 0.800000 0.166667
vt 0.800000 0.666667
vt 0.800000 0.500000
vt 0.850000 1.000000
vt 0.800000 0.833333
vt 0.850000 0.000000
vt 0.750000 1.000000
vt 0.750000 0.000000
vn -0.0232 -0.7239 -0.6895
vn 0.3377 0.5515 -0.7628
vn -0.0047 0.9898 0.1421
vn -0.2449 -0.9255 -0.2890
vn 0.2104 -0.3208 -0.9235
vn 0.1428 0.9660 -0.2155
vn 0.7401 0.6242 -0.2502
vn 0.0933 0.9004 0.4250
vn -0.0167 -0.9917 -0.1278
vn 0.6718 -0.3345 -0.6609
vn 0.3641 0.8948 0.2585
vn 0.3836 -0.8006 -0.4602
vn 0.0793 0.9568 0.2798
vn 0.0268 -0.9996 -0.0024
vn 0.9169 -0.3933 -0.0672
vn 0.3561 0.9122 0.2024
vn 0.5588 -0.8290 -0.0238
vn 0.5290 0.8483 0.0221
vn 0.0177 -0.9991 0.0380
vn 0.7246 -0.4549 0.5177
vn 0.2337 0.9405 0.2465
vn 0.4778 -0.8139 0.3304
vn 0.4317 0.8564 0.2834
vn 0.0875 0.9742 0.2080
vn -0.1403 -0.9742 0.1765
vn 0.2389 -0.4639 0.8531
vn 0.1155 0.9469 0.3000
vn 0.0811 -0.8038 0.5893
vn 0.3069 0.7308 0.6098
vn 0.0489 0.9607 0.2734
vn -0.2180 -0.9601 0.1753
vn -0.1242 -0.4984 0.8580
vn -0.1749 0.3515 0.9197
vn -0.1474 -0.8818 0.4480
vn -0.1293 0.6597 0.7403
vn -0.3143 0.9325 0.1780
vn -0.2384 -0.6112 0.7547
vn -0.4451 -0.0008 0.8955
vn -0.0739 -0.9351 0.3465
vn -0.3432 0.4241 0.8381
vn -0.4226 0.9056 -0.0361
vn -0.0979 -0.9273 0.3612
vn -0.4716 -0.0440 -0.8807
vn -0.1551 -0.9301 -0.3329
vn -0.5044 -0.0730 -0.8604
vn -0.4237 0.7066 -0.5667
vn -0.1840 -0.9404 -0.2861
vn -0.4318 -0.5046 -0.7476
vn -0.1842 -0.8135 -0.5516
vn -0.4383 0.4383 -0.7847
vn -0.4411 0.7109 -0.5477
vn -0.1677 -0.9205 -0.3528
vn -0.3264 -0.4118 -0.8508
vn -0.3960 0.0971 -0.9131
vn -0.2557 -0.7331 -0.6302
vn -0.3561 0.4970 -0.7913
vn -0.3815 0.7712 -0.5096
vn -0.2532 -0.9234 -0.2885
vn -0.2625 -0.3792 -0.8873
vn -0.3456 0.3686 -0.8629
usemtl None
s off
f 2/1/1 1/2/1 7/3/1 8/4/1
f 52/5/2 51/6/2 5/7/2 6/8/2
f 50/9/3 3/10/3 4/11/3
f 34/12/4 2/1/4 8/4/4
f 1/2/5 52/5/5 6/8/5 7/3/5
f 51/6/6 50/9/6 4/11/6 5/7/6
f 6/8/7 5/7/7 10/13/7 11/14/7
f 4/11/8 3/15/8 9/16/8
f 34/17/9 8/4/9 13/18/9
f 7/3/10 6/8/10 11/14/10 12/19/10
f 5/7/11 4/11/11 9/16/11 10/13/11
f 8/4/12 7/3/12 12/19/12 13/18/12
f 9/16/13 3/20/13 14/21/13
f 34/22/14 13/18/14 18/23/14
f 12/19/15 11/14/15 16/24/15 17/25/15
f 10/13/16 9/16/16 14/21/16 15/26/16
f 13/18/17 12/19/17 17/25/17 18/23/17
f 11/14/18 10/13/18 15/26/18 16/24/18
f 34/27/19 18/23/19 23/28/19
f 17/25/20 16/24/20 21/29/20 22/30/20
f 15/26/21 14/21/21 19/31/21 20/32/21
f 18/23/22 17/25/22 22/30/22 23/28/22
f 16/24/23 15/26/23 20/32/23 21/29/23
f 14/21/24 3/33/24 19/31/24
f 34/34/25 23/28/25 28/35/25
f 22/30/26 21/29/26 26/36/26 27/37/26
f 20/32/27 19/31/27 24/38/27 25/39/27
f 23/28/28 22/30/28 27/37/28 28/35/28
f 21/29/29 20/32/29 25/39/29 26/36/29
f 19/31/30 3/40/30 24/38/30
f 34/41/31 28/35/31 33/42/31
f 27/37/32 26/36/32 31/43/32 32/44/32
f 25/39/33 24/38/33 29/45/33 30/46/33
f 28/35/34 27/37/34 32/44/34 33/42/34
f 26/36/35 25/39/35 30/46/35 31/43/35
f 24/38/36 3/47/36 29/45/36
f 32/44/37 31/43/37 37/48/37 38/49/37
f 30/46/38 29/45/38 35/50/38 36/51/38
f 33/42/39 32/44/39 38/49/39 39/52/39
f 31/43/40 30/46/40 36/51/40 37/48/40
f 29/45/41 3/53/41 35/50/41
f 34/54/42 33/42/42 39/52/42
f 36/55/43 35/56/43 40/57/43 41/58/43
f 39/59/44 38/60/44 43/61/44 44/62/44
f 37/63/45 36/55/45 41/58/45 42/64/45
f 35/56/46 3/65/46 40/57/46
f 34/66/47 39/59/47 44/62/47
f 38/60/48 37/63/48 42/64/48 43/61/48
f 44/62/49 43/61/49 48/67/49 49/68/49
f 42/64/50 41/58/50 46/69/50 47/70/50
f 40/57/51 3/71/51 45/72/51
f 34/73/52 44/62/52 49/68/52
f 43/61/53 42/64/53 47/70/53 48/67/53
f 41/58/54 40/57/54 45/72/54 46/69/54
f 49/68/55 48/67/55 1/2/55 2/1/55
f 47/70/56 46/69/56 51/6/56 52/5/56
f 45/72/57 3/74/57 50/9/57
f 34/75/58 49/68/58 2/1/58
f 48/67/59 47/70/59 52/5/59 1/2/59
f 46/69/60 45/72/60 50/9/60 51/6/60
