# Blender v2.83.0 OBJ File: 'ice bergs.blend'
# www.blender.org
mtllib ice bergs.mtl
o Circle
v -0.031212 -0.022039 -0.875342
v -0.205022 -0.022039 -0.586872
v -0.490097 -0.022039 -0.088541
v -0.808412 -0.022039 0.271009
v -0.961483 -0.022039 0.349971
v -0.581266 -0.022039 0.440523
v -0.913438 -0.022039 0.654113
v -0.388793 -0.022039 0.799809
v 0.324891 -0.022039 0.665240
v 0.686558 -0.022039 0.268016
v 0.710855 -0.022039 -0.370164
v 0.197452 -0.022039 -0.442127
v -0.888884 -0.022039 -1.044865
v -1.354962 -0.022039 -0.862758
v -1.957844 -0.022039 -0.765178
v -2.313843 -0.022039 -0.665465
v -2.632885 -0.022039 -0.087947
v -2.495198 -0.022039 0.272783
v -2.119566 -0.022039 0.417449
v -1.508293 -0.022039 0.216226
v -1.062068 -0.022039 -0.053983
v -0.833275 -0.022039 -0.310947
v -0.627371 -0.022039 -0.811106
v -0.430871 -0.022039 -1.073059
v 1.182035 -0.022039 -1.819988
v 1.239388 -0.022039 -2.154617
v 0.897407 -0.022039 -2.078962
v 0.621667 -0.022039 -1.767503
v 0.124042 -0.022039 -1.510802
v 0.026614 -0.022039 -1.427947
v 0.137643 -0.022039 -1.318180
v 0.450303 -0.022039 -0.800128
v 0.857639 -0.022039 -0.761225
v 1.741625 -0.022039 -1.462920
v 1.224075 -0.022039 -1.585374
v 1.472357 -0.022039 -1.901139
v -0.079234 -0.022039 -2.513860
v -0.634093 -0.022039 -2.286067
v -1.474457 -0.022039 -2.403117
v -1.243381 -0.022039 -1.939175
v -2.093328 -0.022039 -1.464037
v -1.910861 -0.022039 -1.268910
v -1.438569 -0.022039 -1.274555
v -0.967404 -0.022039 -1.438490
v -0.428705 -0.022039 -1.600040
v -0.163858 -0.022039 -1.852576
v 0.416280 -0.022039 -2.158646
v 0.488187 -0.022039 -2.251035
v -0.330902 -0.162863 -0.602694
v -0.044867 -0.162863 -1.077423
v -0.586068 -0.162863 -0.156644
v -0.851516 -0.162863 0.143189
v -1.299006 -0.162863 0.374029
v -0.903552 -0.162863 0.468209
v -1.194767 -0.162863 0.655464
v -0.386678 -0.162863 0.879874
v 0.344547 -0.162863 0.741997
v 0.741084 -0.162863 0.306476
v 0.770011 -0.162863 -0.453318
v 0.245768 -0.162863 -0.526800
v -1.403315 -0.162863 -0.958157
v -0.969446 -0.162863 -1.127679
v -1.949383 -0.162863 -0.869772
v -2.338821 -0.162863 -0.760693
v -2.690170 -0.162863 -0.124691
v -2.519234 -0.162863 0.323149
v -2.071656 -0.162863 0.495525
v -1.449553 -0.162863 0.290737
v -1.009229 -0.162863 0.024100
v -0.770066 -0.162863 -0.244511
v -0.578997 -0.162863 -0.708634
v -0.230537 -0.162863 -1.173164
v 1.380883 -0.162863 -2.288837
v 1.330427 -0.162863 -1.994443
v 0.823561 -0.162863 -2.165544
v 0.558114 -0.162863 -1.865710
v 0.110623 -0.162863 -1.634871
v -0.105100 -0.162863 -1.451417
v 0.091254 -0.162863 -1.257295
v 0.404907 -0.162863 -0.737597
v 0.902648 -0.162863 -0.690060
v 1.979034 -0.162863 -1.544479
v 1.437986 -0.162863 -1.672493
v 1.792741 -0.162863 -2.123670
v -0.666674 -0.162863 -2.392023
v -0.136664 -0.162863 -2.609615
v -1.659108 -0.162863 -2.530255
v -1.389297 -0.162863 -1.988544
v -2.207615 -0.162863 -1.531088
v -1.878733 -0.162863 -1.179389
v -1.362484 -0.162863 -1.185560
v -0.912060 -0.162863 -1.342278
v -0.389330 -0.162863 -1.499039
v -0.136432 -0.162863 -1.740181
v 0.404862 -0.162863 -2.025759
v 0.595377 -0.162863 -2.270539
v -0.334482 0.000000 -0.662889
v -0.022571 0.000000 -1.180565
v -0.612732 0.000000 -0.176487
v -0.902194 0.000000 0.150471
v -1.390167 0.000000 0.402194
v -0.958937 0.000000 0.504895
v -1.276497 0.000000 0.709089
v -0.395304 0.000000 0.953800
v 0.402072 0.000000 0.803451
v 0.834482 0.000000 0.328529
v 0.866026 0.000000 -0.499999
v 0.294357 0.000000 -0.580130
v -1.394716 0.000000 -1.008396
v -0.921596 0.000000 -1.193254
v -1.990184 0.000000 -0.912015
v -2.414853 0.000000 -0.793069
v -2.797988 0.000000 -0.099530
v -2.611588 0.000000 0.388824
v -2.123520 0.000000 0.576794
v -1.445138 0.000000 0.353479
v -0.964979 0.000000 0.062722
v -0.704179 0.000000 -0.230189
v -0.495825 0.000000 -0.736300
v -0.115842 0.000000 -1.242854
v 1.425087 0.000000 -2.349446
v 1.370066 0.000000 -2.028420
v 0.817347 0.000000 -2.214999
v 0.527885 0.000000 -1.888041
v 0.039912 0.000000 -1.636318
v -0.195327 0.000000 -1.436268
v 0.018790 0.000000 -1.224585
v 0.360818 0.000000 -0.657872
v 0.903588 0.000000 -0.606035
v 2.077350 0.000000 -1.537750
v 1.487356 0.000000 -1.677344
v 1.874204 0.000000 -2.169337
v -0.653571 0.000000 -2.440347
v -0.075613 0.000000 -2.677624
v -1.735786 0.000000 -2.591084
v -1.441567 0.000000 -2.000367
v -2.333914 0.000000 -1.501527
v -1.975280 0.000000 -1.118011
v -1.412328 0.000000 -1.124740
v -0.921156 0.000000 -1.295635
v -0.351137 0.000000 -1.466578
v -0.075360 0.000000 -1.729536
v 0.514903 0.000000 -2.040948
v 0.722653 0.000000 -2.307873
vt 0.000000 0.000000
vt 0.000000 0.000000
vt 0.000000 0.000000
vt 0.000000 0.000000
vt 0.000000 0.000000
vt 0.000000 0.000000
vt 0.000000 0.000000
vt 0.000000 0.000000
vt 0.000000 0.000000
vt 0.000000 0.000000
vt 0.000000 0.000000
vt 0.000000 0.000000
vt 0.000000 0.000000
vt 0.000000 0.000000
vt 0.000000 0.000000
vt 0.000000 0.000000
vt 0.000000 0.000000
vt 0.000000 0.000000
vt 0.000000 0.000000
vt 0.000000 0.000000
vt 0.000000 0.000000
vt 0.000000 0.000000
vt 0.000000 0.000000
vt 0.000000 0.000000
vt 0.000000 0.000000
vt 0.000000 0.000000
vt 0.000000 0.000000
vt 0.000000 0.000000
vt 0.000000 0.000000
vt 0.000000 0.000000
vt 0.000000 0.000000
vt 0.000000 0.000000
vt 0.000000 0.000000
vt 0.000000 0.000000
vt 0.000000 0.000000
vt 0.000000 0.000000
vt 0.000000 0.000000
vt 0.000000 0.000000
vt 0.000000 0.000000
vt 0.000000 0.000000
vt 0.000000 0.000000
vt 0.000000 0.000000
vt 0.000000 0.000000
vt 0.000000 0.000000
vt 0.000000 0.000000
vt 0.000000 0.000000
vt 0.000000 0.000000
vt 0.000000 0.000000
vt 0.000000 0.000000
vt 0.000000 0.000000
vt 0.000000 0.000000
vt 0.000000 0.000000
vt 0.000000 0.000000
vt 0.000000 0.000000
vt 0.000000 0.000000
vt 0.000000 0.000000
vt 0.000000 0.000000
vt 0.000000 0.000000
vt 0.000000 0.000000
vt 0.000000 0.000000
vt 0.000000 0.000000
vt 0.000000 0.000000
vt 0.000000 0.000000
vt 0.000000 0.000000
vt 0.000000 0.000000
vt 0.000000 0.000000
vt 0.000000 0.000000
vt 0.000000 0.000000
vt 0.000000 0.000000
vt 0.000000 0.000000
vt 0.000000 0.000000
vt 0.000000 0.000000
vt 0.000000 0.000000
vt 0.000000 0.000000
vt 0.000000 0.000000
vt 0.000000 0.000000
vt 0.000000 0.000000
vt 0.000000 0.000000
vt 0.000000 0.000000
vt 0.000000 0.000000
vt 0.000000 0.000000
vt 0.000000 0.000000
vt 0.000000 0.000000
vt 0.000000 0.000000
vt 0.000000 0.000000
vt 0.000000 0.000000
vt 0.000000 0.000000
vt 0.000000 0.000000
vt 0.000000 0.000000
vt 0.000000 0.000000
vt 0.000000 0.000000
vt 0.000000 0.000000
vt 0.000000 0.000000
vt 0.000000 0.000000
vt 0.000000 0.000000
vt 0.000000 0.000000
vt 0.000000 0.000000
vt 0.000000 0.000000
vt 0.000000 0.000000
vt 0.000000 0.000000
vt 0.000000 0.000000
vt 0.000000 0.000000
vt 0.000000 0.000000
vt 0.000000 0.000000
vt 0.000000 0.000000
vt 0.000000 0.000000
vt 0.000000 0.000000
vt 0.000000 0.000000
vt 0.000000 0.000000
vt 0.000000 0.000000
vt 0.000000 0.000000
vt 0.000000 0.000000
vt 0.000000 0.000000
vt 0.000000 0.000000
vt 0.000000 0.000000
vt 0.000000 0.000000
vt 0.000000 0.000000
vt 0.000000 0.000000
vt 0.000000 0.000000
vt 0.000000 0.000000
vt 0.000000 0.000000
vt 0.000000 0.000000
vt 0.000000 0.000000
vt 0.000000 0.000000
vt 0.000000 0.000000
vt 0.000000 0.000000
vt 0.000000 0.000000
vt 0.000000 0.000000
vt 0.000000 0.000000
vt 0.000000 0.000000
vt 0.000000 0.000000
vt 0.000000 0.000000
vt 0.000000 0.000000
vt 0.000000 0.000000
vt 0.000000 0.000000
vt 0.000000 0.000000
vt 0.000000 0.000000
vt 0.000000 0.000000
vt 0.000000 0.000000
vt 0.000000 0.000000
vt 0.000000 0.000000
vt 0.000000 0.000000
vt 0.000000 0.000000
vt 0.000000 0.000000
vn 0.0000 -1.0000 0.0000
vn 0.0000 1.0000 -0.0000
vn -0.7648 0.2931 -0.5737
vn -0.8651 0.5006 -0.0329
vn 0.3690 0.2370 0.8987
vn 0.0574 0.3583 0.9318
vn -0.1304 0.3434 0.9301
vn -0.1320 0.2917 0.9474
vn -0.9656 0.2005 -0.1655
vn -0.8163 0.3846 0.4309
vn 0.8674 0.2470 -0.4320
vn 0.2066 0.2915 0.9340
vn 0.3515 0.2590 0.8997
vn 0.4766 0.2148 0.8525
vn 0.7297 0.2240 0.6460
vn 0.1532 0.2839 0.9465
vn 0.6011 0.5681 -0.5621
vn 0.8383 0.2051 0.5051
vn 0.4489 0.2027 0.8703
vn 0.2571 0.3025 0.9178
vn -0.0112 0.3468 -0.9379
vn 0.8507 0.1986 0.4867
vn 0.6225 0.2768 0.7320
vn 0.7814 0.4506 0.4317
vn -0.3186 0.2445 -0.9158
vn 0.7337 0.1993 0.6496
vn 0.6398 0.4146 -0.6471
vn 0.7749 0.5587 -0.2958
vn -0.2781 0.2501 -0.9274
vn 0.4560 0.1024 0.8841
vn 0.7704 0.4362 -0.4650
vn 0.3109 0.5018 -0.8072
vn -0.6599 0.2927 -0.6920
vn 0.2220 0.2855 -0.9323
vn 0.0846 0.4565 -0.8857
vn -0.2928 0.3506 -0.8896
vn -0.4545 0.2267 -0.8614
vn 0.5408 -0.0055 0.8411
vn -0.5757 0.3775 -0.7253
vn -0.4899 0.3249 -0.8090
vn -0.7126 0.4297 -0.5546
vn 0.2439 0.4115 -0.8782
vn -0.2291 0.0983 0.9684
vn -0.7026 0.3392 -0.6256
vn -0.3704 0.4727 0.7996
vn -0.1698 0.3999 -0.9007
vn -0.7678 0.2148 -0.6037
vn -0.8563 0.3774 -0.3525
vn -0.6573 0.4580 -0.5985
vn 0.2668 0.1342 0.9544
vn -0.1244 -0.9894 -0.0750
vn -0.1261 -0.9894 -0.0721
vn -0.1088 -0.9894 -0.0963
vn -0.0666 -0.9894 -0.1291
vn -0.0337 -0.9894 0.1413
vn -0.0786 -0.9894 -0.1222
vn -0.0389 -0.9894 0.1400
vn 0.0269 -0.9894 0.1427
vn 0.1074 -0.9894 0.0978
vn 0.1451 -0.9894 0.0055
vn 0.0202 -0.9894 -0.1438
vn 0.1285 -0.9894 -0.0678
vn -0.0529 -0.9894 -0.1353
vn -0.0232 -0.9894 -0.1434
vn -0.0392 -0.9894 -0.1399
vn -0.1271 -0.9894 -0.0702
vn -0.1357 -0.9894 0.0518
vn -0.0522 -0.9894 0.1355
vn 0.0454 -0.9894 0.1380
vn 0.0752 -0.9894 0.1242
vn 0.1085 -0.9894 0.0966
vn 0.1343 -0.9894 0.0553
vn 0.1162 -0.9894 0.0872
vn -0.0089 -0.9894 -0.1450
vn 0.1432 -0.9894 0.0245
vn -0.0314 -0.9894 -0.1418
vn -0.0941 -0.9894 -0.1107
vn -0.1021 -0.9894 0.1033
vn -0.1244 -0.9894 0.0751
vn -0.0138 -0.9894 0.1446
vn 0.0903 -0.9894 0.1138
vn 0.0334 -0.9894 -0.1414
vn 0.1142 -0.9894 0.0898
vn -0.0391 -0.9894 -0.1399
vn -0.0552 -0.9894 -0.1344
vn 0.0200 -0.9894 -0.1439
vn -0.1300 -0.9894 0.0648
vn -0.0709 -0.9894 -0.1268
vn -0.1061 -0.9894 0.0992
vn 0.0017 -0.9894 0.1452
vn 0.0477 -0.9894 0.1372
vn 0.0417 -0.9894 0.1391
vn 0.1002 -0.9894 0.1051
vn 0.0678 -0.9894 0.1285
vn 0.1146 -0.9894 0.0892
vn 0.0610 -0.9894 -0.1318
usemtl None
s off
f 2/1/1 1/2/1 12/3/1 11/4/1 10/5/1 9/6/1 8/7/1 7/8/1 6/9/1 5/10/1 4/11/1 3/12/1
f 14/13/1 13/14/1 24/15/1 23/16/1 22/17/1 21/18/1 20/19/1 19/20/1 18/21/1 17/22/1 16/23/1 15/24/1
f 26/25/1 25/26/1 36/27/1 35/28/1 34/29/1 33/30/1 32/31/1 31/32/1 30/33/1 29/34/1 28/35/1 27/36/1
f 38/37/1 37/38/1 48/39/1 47/40/1 46/41/1 45/42/1 44/43/1 43/44/1 42/45/1 41/46/1 40/47/1 39/48/1
f 49/49/2 51/50/2 52/51/2 53/52/2 54/53/2 55/54/2 56/55/2 57/56/2 58/57/2 59/58/2 60/59/2 50/60/2
f 61/61/2 63/62/2 64/63/2 65/64/2 66/65/2 67/66/2 68/67/2 69/68/2 70/69/2 71/70/2 72/71/2 62/72/2
f 73/73/2 75/74/2 76/75/2 77/76/2 78/77/2 79/78/2 80/79/2 81/80/2 82/81/2 83/82/2 84/83/2 74/84/2
f 85/85/2 87/86/2 88/87/2 89/88/2 90/89/2 91/90/2 92/91/2 93/92/2 94/93/2 95/94/2 96/95/2 86/96/2
f 119/97/3 120/98/3 72/71/3 71/70/3
f 106/99/4 107/100/4 59/58/4 58/57/4
f 134/101/5 133/102/5 85/85/5 86/96/5
f 120/98/6 110/103/6 62/72/6 72/71/6
f 107/100/7 108/104/7 60/59/7 59/58/7
f 133/102/8 135/105/8 87/86/8 85/85/8
f 122/106/9 121/107/9 73/73/9 74/84/9
f 108/104/10 98/108/10 50/60/10 60/59/10
f 135/105/11 136/109/11 88/87/11 87/86/11
f 121/107/12 123/110/12 75/74/12 73/73/12
f 110/103/13 109/111/13 61/61/13 62/72/13
f 136/109/14 137/112/14 89/88/14 88/87/14
f 123/110/15 124/113/15 76/75/15 75/74/15
f 109/111/16 111/114/16 63/62/16 61/61/16
f 137/112/17 138/115/17 90/89/17 89/88/17
f 98/108/18 97/116/18 49/49/18 50/60/18
f 124/113/19 125/117/19 77/76/19 76/75/19
f 111/114/20 112/118/20 64/63/20 63/62/20
f 138/115/21 139/119/21 91/90/21 90/89/21
f 97/116/22 99/120/22 51/50/22 49/49/22
f 125/117/23 126/121/23 78/77/23 77/76/23
f 112/118/24 113/122/24 65/64/24 64/63/24
f 139/119/25 140/123/25 92/91/25 91/90/25
f 99/120/26 100/124/26 52/51/26 51/50/26
f 126/121/27 127/125/27 79/78/27 78/77/27
f 113/122/28 114/126/28 66/65/28 65/64/28
f 140/123/29 141/127/29 93/92/29 92/91/29
f 100/124/30 101/128/30 53/52/30 52/51/30
f 127/125/31 128/129/31 80/79/31 79/78/31
f 114/126/32 115/130/32 67/66/32 66/65/32
f 141/127/33 142/131/33 94/93/33 93/92/33
f 101/128/34 102/132/34 54/53/34 53/52/34
f 128/129/35 129/133/35 81/80/35 80/79/35
f 115/130/36 116/134/36 68/67/36 67/66/36
f 142/131/37 143/135/37 95/94/37 94/93/37
f 102/132/38 103/136/38 55/54/38 54/53/38
f 129/133/39 130/137/39 82/81/39 81/80/39
f 116/134/40 117/138/40 69/68/40 68/67/40
f 143/135/41 144/139/41 96/95/41 95/94/41
f 103/136/42 104/140/42 56/55/42 55/54/42
f 130/137/43 131/141/43 83/82/43 82/81/43
f 117/138/44 118/142/44 70/69/44 69/68/44
f 144/139/45 134/101/45 86/96/45 96/95/45
f 104/140/46 105/143/46 57/56/46 56/55/46
f 131/141/47 132/144/47 84/83/47 83/82/47
f 118/142/48 119/97/48 71/70/48 70/69/48
f 105/143/49 106/99/49 58/57/49 57/56/49
f 132/144/50 122/106/50 74/84/50 84/83/50
f 1/2/51 2/1/51 97/116/51 98/108/51
f 2/1/52 3/12/52 99/120/52 97/116/52
f 3/12/53 4/11/53 100/124/53 99/120/53
f 4/11/54 5/10/54 101/128/54 100/124/54
f 5/10/55 6/9/55 102/132/55 101/128/55
f 6/9/56 7/8/56 103/136/56 102/132/56
f 7/8/57 8/7/57 104/140/57 103/136/57
f 8/7/58 9/6/58 105/143/58 104/140/58
f 9/6/59 10/5/59 106/99/59 105/143/59
f 10/5/60 11/4/60 107/100/60 106/99/60
f 11/4/61 12/3/61 108/104/61 107/100/61
f 12/3/62 1/2/62 98/108/62 108/104/62
f 13/14/63 14/13/63 109/111/63 110/103/63
f 14/13/64 15/24/64 111/114/64 109/111/64
f 15/24/65 16/23/65 112/118/65 111/114/65
f 16/23/66 17/22/66 113/122/66 112/118/66
f 17/22/67 18/21/67 114/126/67 113/122/67
f 18/21/68 19/20/68 115/130/68 114/126/68
f 19/20/69 20/19/69 116/134/69 115/130/69
f 20/19/70 21/18/70 117/138/70 116/134/70
f 21/18/71 22/17/71 118/142/71 117/138/71
f 22/17/72 23/16/72 119/97/72 118/142/72
f 23/16/73 24/15/73 120/98/73 119/97/73
f 24/15/74 13/14/74 110/103/74 120/98/74
f 25/26/75 26/25/75 121/107/75 122/106/75
f 26/25/76 27/36/76 123/110/76 121/107/76
f 27/36/53 28/35/53 124/113/53 123/110/53
f 28/35/54 29/34/54 125/117/54 124/113/54
f 29/34/77 30/33/77 126/121/77 125/117/77
f 30/33/78 31/32/78 127/125/78 126/121/78
f 31/32/79 32/31/79 128/129/79 127/125/79
f 32/31/80 33/30/80 129/133/80 128/129/80
f 33/30/81 34/29/81 130/137/81 129/133/81
f 34/29/82 35/28/82 131/141/82 130/137/82
f 35/28/83 36/27/83 132/144/83 131/141/83
f 36/27/84 25/26/84 122/106/84 132/144/84
f 37/38/85 38/37/85 133/102/85 134/101/85
f 38/37/86 39/48/86 135/105/86 133/102/86
f 39/48/87 40/47/87 136/109/87 135/105/87
f 40/47/88 41/46/88 137/112/88 136/109/88
f 41/46/89 42/45/89 138/115/89 137/112/89
f 42/45/90 43/44/90 139/119/90 138/115/90
f 43/44/91 44/43/91 140/123/91 139/119/91
f 44/43/92 45/42/92 141/127/92 140/123/92
f 45/42/93 46/41/93 142/131/93 141/127/93
f 46/41/94 47/40/94 143/135/94 142/131/94
f 47/40/95 48/39/95 144/139/95 143/135/95
f 48/39/96 37/38/96 134/101/96 144/139/96
