# Blender v2.80 (sub 75) OBJ File: 'Gravestone.blend'
# www.blender.org
mtllib Gravestone.mtl
o Cube_Cube.001
v 0.190844 -1.284841 -1.119998
v 0.190844 -0.847741 -0.847741
v 0.190844 0.935232 -0.847741
v 0.190844 -1.000000 -1.119998
v 0.378058 -1.284841 -1.000000
v 0.191037 -0.847741 -0.500000
v 0.378058 -1.284841 -0.500000
v 0.191014 1.350298 -0.416606
v 0.190844 -1.284841 -1.000000
v 0.190844 -1.284841 -0.500000
v 0.378058 -1.000000 -1.000000
v 0.378058 -1.000000 -0.500000
v 0.378058 -1.284841 -1.119998
v 0.378058 -1.000000 -1.119998
v -0.190844 -1.284841 -1.119998
v 0.000000 -1.000000 -1.119998
v -0.190844 -0.847741 -0.847741
v -0.190844 0.935232 -0.847741
v -0.190844 -1.000000 -1.119998
v -0.378058 -1.284841 -1.000000
v -0.191037 -0.847741 -0.500000
v -0.378058 -1.284841 -0.500000
v -0.191014 1.350298 -0.416606
v -0.190844 -1.284841 -1.000000
v -0.190844 -1.284841 -0.500000
v -0.378058 -1.000000 -1.000000
v -0.378058 -1.000000 -0.500000
v 0.000000 -1.000000 -1.000000
v 0.000000 1.000000 -1.000000
v 0.000000 1.481365 -0.500000
v 0.000000 -1.284841 -1.000000
v 0.000000 -1.284841 -0.500000
v -0.378058 -1.284841 -1.119998
v -0.378058 -1.000000 -1.119998
v 0.000000 -1.284841 -1.119998
v 0.190844 -1.284841 1.119998
v 0.190844 -0.847741 0.847741
v 0.190844 0.935232 0.847741
v 0.190844 -1.000000 1.119998
v 0.378058 -1.284841 0.000000
v 0.190844 -1.000000 0.000000
v 0.204264 1.511235 0.000000
v 0.378058 -1.284841 1.000000
v 0.191037 -0.847741 0.500000
v 0.378058 -1.284841 0.500000
v 0.191014 1.350298 0.416606
v 0.190844 -1.284841 1.000000
v 0.378058 -1.000000 0.000000
v 0.190844 -1.284841 0.500000
v 0.378058 -1.000000 1.000000
v 0.378058 -1.000000 0.500000
v 0.190844 -1.284841 0.000000
v 0.378058 -1.284841 1.119998
v 0.378058 -1.000000 1.119998
v -0.190844 -1.284841 1.119998
v 0.000000 -1.000000 1.119998
v -0.190844 -0.847741 0.847741
v -0.190844 0.935232 0.847741
v -0.190844 -1.000000 1.119998
v -0.378058 -1.284841 0.000000
v -0.190844 -1.000000 0.000000
v -0.204264 1.511235 0.000000
v -0.378058 -1.284841 1.000000
v -0.191037 -0.847741 0.500000
v -0.378058 -1.284841 0.500000
v -0.191014 1.350298 0.416606
v -0.190844 -1.284841 1.000000
v -0.378058 -1.000000 0.000000
v -0.190844 -1.284841 0.500000
v -0.378058 -1.000000 1.000000
v -0.378058 -1.000000 0.500000
v -0.190844 -1.284841 0.000000
v 0.000000 -1.000000 1.000000
v 0.000000 1.000000 1.000000
v 0.000000 1.674337 0.000000
v 0.000000 1.481365 0.500000
v 0.000000 -1.284841 1.000000
v 0.000000 -1.284841 0.000000
v 0.000000 -1.284841 0.500000
v -0.378058 -1.284841 1.119998
v -0.378058 -1.000000 1.119998
v 0.000000 -1.284841 1.119998
v 0.190844 1.000000 -1.000000
v 0.190844 -1.000000 -1.000000
v 0.190844 -1.000000 -0.500000
v 0.190844 1.481365 -0.500000
v 0.203890 1.674337 0.000000
v 0.191229 -0.847754 0.000000
v -0.190844 1.000000 -1.000000
v -0.190844 -1.000000 -1.000000
v -0.190844 -1.000000 -0.500000
v -0.190844 1.481365 -0.500000
v -0.203890 1.674337 0.000000
v -0.191229 -0.847754 0.000000
v 0.190844 1.000000 1.000000
v 0.190844 -1.000000 1.000000
v 0.190844 -1.000000 0.500000
v 0.190844 1.481365 0.500000
v -0.190844 1.000000 1.000000
v -0.190844 -1.000000 1.000000
v -0.190844 -1.000000 0.500000
v -0.190844 1.481365 0.500000
v 0.122793 1.511235 0.000000
v 0.114957 -0.847754 0.000000
v 0.114827 1.350298 -0.416606
v 0.114841 -0.847741 -0.500000
v -0.122793 1.511235 0.000000
v -0.114957 -0.847754 0.000000
v -0.114827 1.350298 -0.416606
v -0.114841 -0.847741 -0.500000
v 0.114827 1.350298 0.416606
v 0.114841 -0.847741 0.500000
v -0.114827 1.350298 0.416606
v -0.114841 -0.847741 0.500000
v 0.114725 0.935232 -0.847741
v 0.114725 -0.847741 -0.847741
v -0.114725 0.935232 -0.847741
v -0.114725 -0.847741 -0.847741
v 0.114725 0.935232 0.847741
v 0.114725 -0.847741 0.847741
v -0.114725 0.935232 0.847741
v -0.114725 -0.847741 0.847741
vt 0.230396 0.326139
vt 0.312463 0.303549
vt 0.315229 0.312862
vt 0.233128 0.335847
vt 0.023449 0.546252
vt 0.209086 0.546252
vt 0.209086 0.639071
vt 0.023449 0.639071
vt 0.304093 0.258737
vt 0.301583 0.211639
vt 0.388830 0.211543
vt 0.387664 0.253152
vt 0.503600 0.312533
vt 0.607139 0.316112
vt 0.606808 0.328671
vt 0.502658 0.324894
vt 0.802999 0.744243
vt 0.755718 0.738489
vt 0.770269 0.699589
vt 0.810372 0.703835
vt 0.898059 0.532801
vt 0.895501 0.750751
vt 0.847071 0.704673
vt 0.859655 0.552782
vt 0.506741 0.211631
vt 0.506043 0.261446
vt 0.411990 0.255521
vt 0.413503 0.211539
vt 0.321895 0.336155
vt 0.381010 0.297928
vt 0.402149 0.313017
vt 0.382947 0.289612
vt 0.608302 0.263864
vt 0.608900 0.211902
vt 0.406193 0.299644
vt 0.239543 0.358956
vt 0.273508 0.546253
vt 0.273508 0.639071
vt 0.323253 0.546253
vt 0.323253 0.645416
vt 0.153098 0.358311
vt 0.150564 0.349346
vt 0.023449 0.453434
vt 0.209086 0.453434
vt 0.136526 0.310728
vt 0.064846 0.342726
vt 0.045394 0.307586
vt 0.119301 0.272896
vt 0.712474 0.317856
vt 0.712295 0.330533
vt 0.058500 0.865597
vt 0.044123 0.808111
vt 0.086313 0.811241
vt 0.099302 0.846646
vt 0.744081 0.483977
vt 0.795803 0.466392
vt 0.796040 0.506058
vt 0.764359 0.520270
vt 0.713489 0.212338
vt 0.817362 0.212927
vt 0.816898 0.265983
vt 0.713114 0.265060
vt 0.159069 0.380732
vt 0.082925 0.400191
vt 0.091647 0.377549
vt 0.086095 0.371309
vt 0.070610 0.392222
vt 0.816324 0.318985
vt 0.044763 0.355664
vt 0.024561 0.319095
vt 0.273508 0.453434
vt 0.323253 0.447089
vt 0.816182 0.331692
vt 0.229817 0.097229
vt 0.232525 0.087485
vt 0.314918 0.110268
vt 0.312181 0.119616
vt 0.623057 0.546252
vt 0.623057 0.639071
vt 0.437420 0.639071
vt 0.437420 0.546252
vt 0.303946 0.164511
vt 0.387600 0.169905
vt 0.503957 0.110543
vt 0.503057 0.098131
vt 0.607604 0.094919
vt 0.607849 0.107521
vt 0.067975 0.756630
vt 0.122586 0.708666
vt 0.140140 0.746596
vt 0.102568 0.778123
vt 0.317351 0.864015
vt 0.312524 0.920831
vt 0.275998 0.894730
vt 0.279070 0.852783
vt 0.411974 0.167523
vt 0.506219 0.161772
vt 0.321530 0.086892
vt 0.402072 0.109855
vt 0.380864 0.125042
vt 0.382791 0.133379
vt 0.608655 0.159896
vt 0.406154 0.123283
vt 0.238884 0.064293
vt 0.372999 0.639071
vt 0.372999 0.546253
vt 0.149695 0.074214
vt 0.152207 0.065217
vt 0.437420 0.453434
vt 0.623057 0.453434
vt 0.135743 0.112981
vt 0.118593 0.150970
vt 0.044375 0.116423
vt 0.063767 0.081127
vt 0.713497 0.106661
vt 0.713439 0.093946
vt 0.703920 0.730580
vt 0.730367 0.694442
vt 0.319037 0.774816
vt 0.317779 0.815364
vt 0.281240 0.811063
vt 0.281938 0.784200
vt 0.713633 0.159574
vt 0.817632 0.159802
vt 0.158123 0.042717
vt 0.090528 0.046124
vt 0.081711 0.023449
vt 0.084981 0.052399
vt 0.069388 0.031479
vt 0.817632 0.106653
vt 0.043588 0.068218
vt 0.023449 0.104950
vt 0.372999 0.453434
vt 0.817628 0.093909
vt 0.686332 0.535468
vt 0.686651 0.750448
vt 0.669956 0.527654
vt 0.753818 0.753791
vt 0.734967 0.468628
vt 0.795957 0.447089
vt 0.800879 0.758616
vt 0.316731 0.735614
vt 0.116737 0.692315
vt 0.334664 0.720812
vt 0.332036 0.774695
vt 0.023449 0.806095
vt 0.053861 0.746041
vt 0.331389 0.815357
vt 0.914489 0.525007
vt 0.914489 0.772007
vt 0.847412 0.752007
vt 0.846357 0.767257
vt 0.845997 0.484222
vt 0.854796 0.469748
vt 0.109919 0.932099
vt 0.334664 0.939221
vt 0.100547 0.949131
vt 0.333553 0.864465
vt 0.041072 0.874217
vt 0.888984 0.944137
vt 0.684959 0.936565
vt 0.669956 0.897728
vt 0.888947 0.897728
vt 0.889011 0.976414
vt 0.723518 0.976551
vt 0.600591 0.724728
vt 0.600553 0.771137
vt 0.381562 0.771137
vt 0.396565 0.732300
vt 0.600617 0.692451
vt 0.435124 0.692315
vt 0.888984 0.851319
vt 0.684959 0.858891
vt 0.889011 0.819042
vt 0.723518 0.818905
vt 0.600591 0.817547
vt 0.396566 0.809975
vt 0.600617 0.849824
vt 0.435124 0.849960
vt 0.833252 0.705648
vt 0.846716 0.706181
vt 0.732674 0.556676
vt 0.136273 0.884199
vt 0.827895 0.519106
vt 0.281722 0.768211
vn 0.0000 1.0000 0.0000
vn 0.0000 0.0000 -1.0000
vn 0.0000 -1.0000 0.0000
vn 1.0000 0.0000 0.0000
vn 0.0000 0.7204 -0.6936
vn 0.0000 0.9329 -0.3601
vn 0.0000 -0.9328 -0.3604
vn 0.0000 -0.9328 0.3604
vn -1.0000 0.0000 0.0000
vn 0.0000 0.0000 1.0000
vn 0.0000 -0.7204 0.6936
vn 0.0000 0.7204 0.6936
vn 0.0000 0.9329 0.3601
vn 1.0000 -0.0005 -0.0002
vn 0.9996 -0.0057 -0.0265
vn 1.0000 -0.0019 -0.0002
vn 1.0000 0.0003 -0.0005
vn -1.0000 -0.0005 -0.0002
vn -0.9996 -0.0057 -0.0265
vn -1.0000 -0.0019 -0.0002
vn -1.0000 0.0003 -0.0005
vn 1.0000 -0.0005 0.0002
vn 0.9996 -0.0057 0.0265
vn 1.0000 -0.0019 0.0002
vn 1.0000 0.0003 0.0005
vn -1.0000 -0.0005 0.0002
vn -0.9996 -0.0057 0.0265
vn -1.0000 -0.0019 0.0002
vn -1.0000 0.0003 0.0005
vn 1.0000 -0.0016 -0.0085
vn 1.0000 0.0000 -0.0003
vn -1.0000 -0.0016 -0.0085
vn -1.0000 0.0000 -0.0003
vn 1.0000 -0.0016 0.0085
vn 1.0000 0.0000 0.0003
vn -1.0000 -0.0016 0.0085
vn -1.0000 0.0000 0.0003
vn 0.0000 -0.7204 -0.6936
g Cube_Cube.001_Material.001
usemtl Material.001
s off
f 28/1/1 84/2/1 4/3/1 16/4/1
f 28/5/2 29/6/2 83/7/2 84/8/2
f 85/9/1 41/10/1 48/11/1 12/12/1
f 9/13/3 31/14/3 35/15/3 1/16/3
f 88/17/1 6/18/1 106/19/1 104/20/1
f 38/21/2 37/22/2 120/23/2 119/24/2
f 52/25/3 10/26/3 7/27/3 40/28/3
f 1/29/2 4/3/2 14/30/2 13/31/2
f 84/2/1 85/9/1 12/12/1 11/32/1
f 32/33/3 10/26/3 52/25/3 78/34/3
f 31/14/3 9/13/3 10/26/3 32/33/3
f 11/32/4 5/35/4 13/31/4 14/30/4
f 10/26/3 9/13/3 5/35/3 7/27/3
f 16/4/2 4/3/2 1/29/2 35/36/2
f 84/2/1 11/32/1 14/30/1 4/3/1
f 11/32/4 12/12/4 7/27/4 5/35/4
f 12/12/4 48/11/4 40/28/4 7/27/4
f 83/7/5 29/6/5 30/37/5 86/38/5
f 86/38/6 30/37/6 75/39/6 87/40/6
f 5/35/3 9/13/3 1/16/3 13/31/3
f 28/1/1 16/4/1 19/41/1 90/42/1
f 28/5/2 90/43/2 89/44/2 29/6/2
f 91/45/1 27/46/1 68/47/1 61/48/1
f 24/49/3 15/50/3 35/15/3 31/14/3
f 66/51/7 62/52/7 107/53/7 113/54/7
f 8/55/8 42/56/8 103/57/8 105/58/8
f 72/59/3 60/60/3 22/61/3 25/62/3
f 15/63/2 33/64/2 34/65/2 19/41/2
f 90/42/1 26/66/1 27/46/1 91/45/1
f 32/33/3 78/34/3 72/59/3 25/62/3
f 31/14/3 32/33/3 25/62/3 24/49/3
f 26/66/9 34/65/9 33/64/9 20/67/9
f 25/62/3 22/61/3 20/68/3 24/49/3
f 16/4/2 35/36/2 15/63/2 19/41/2
f 90/42/1 19/41/1 34/65/1 26/66/1
f 26/66/9 20/67/9 22/69/9 27/46/9
f 27/46/9 22/69/9 60/70/9 68/47/9
f 89/44/5 92/71/5 30/37/5 29/6/5
f 92/71/6 93/72/6 75/39/6 30/37/6
f 20/68/3 33/73/3 15/50/3 24/49/3
f 73/74/1 56/75/1 39/76/1 96/77/1
f 73/78/10 96/79/10 95/80/10 74/81/10
f 97/82/1 51/83/1 48/11/1 41/10/1
f 47/84/3 36/85/3 82/86/3 77/87/3
f 23/88/11 18/89/11 117/90/11 109/91/11
f 64/92/1 57/93/1 122/94/1 114/95/1
f 52/25/3 40/28/3 45/96/3 49/97/3
f 36/98/10 53/99/10 54/100/10 39/76/10
f 96/77/1 50/101/1 51/83/1 97/82/1
f 79/102/3 78/34/3 52/25/3 49/97/3
f 77/87/3 79/102/3 49/97/3 47/84/3
f 50/101/4 54/100/4 53/99/4 43/103/4
f 49/97/3 45/96/3 43/103/3 47/84/3
f 56/75/10 82/104/10 36/98/10 39/76/10
f 96/77/1 39/76/1 54/100/1 50/101/1
f 50/101/4 43/103/4 45/96/4 51/83/4
f 51/83/4 45/96/4 40/28/4 48/11/4
f 95/80/12 98/105/12 76/106/12 74/81/12
f 98/105/13 87/40/13 75/39/13 76/106/13
f 43/103/3 53/99/3 36/85/3 47/84/3
f 73/74/1 100/107/1 59/108/1 56/75/1
f 73/78/10 74/81/10 99/109/10 100/110/10
f 101/111/1 61/112/1 68/113/1 71/114/1
f 67/115/3 77/87/3 82/86/3 55/116/3
f 6/18/1 2/117/1 116/118/1 106/19/1
f 21/119/1 94/120/1 108/121/1 110/122/1
f 72/59/3 69/123/3 65/124/3 60/60/3
f 55/125/10 59/108/10 81/126/10 80/127/10
f 100/107/1 101/111/1 71/114/1 70/128/1
f 79/102/3 69/123/3 72/59/3 78/34/3
f 77/87/3 67/115/3 69/123/3 79/102/3
f 70/128/9 63/129/9 80/127/9 81/126/9
f 69/123/3 67/115/3 63/130/3 65/124/3
f 56/75/10 59/108/10 55/125/10 82/104/10
f 100/107/1 70/128/1 81/126/1 59/108/1
f 70/128/9 71/114/9 65/131/9 63/129/9
f 71/114/9 68/113/9 60/132/9 65/131/9
f 99/109/12 74/81/12 76/106/12 102/133/12
f 102/133/13 76/106/13 75/39/13 93/72/13
f 63/130/3 67/115/3 55/116/3 80/134/3
f 3/135/4 2/117/4 84/136/4 83/137/4
f 2/117/14 6/18/14 85/138/14 84/136/14
f 42/56/15 8/55/15 86/139/15 87/140/15
f 6/18/16 88/17/16 41/141/16 85/138/16
f 8/55/17 3/135/17 83/137/17 86/139/17
f 17/142/9 18/89/9 89/143/9 90/144/9
f 21/119/18 17/142/18 90/144/18 91/145/18
f 23/88/19 62/52/19 93/146/19 92/147/19
f 94/120/20 21/119/20 91/145/20 61/148/20
f 18/89/21 23/88/21 92/147/21 89/143/21
f 37/22/4 38/21/4 95/149/4 96/150/4
f 44/151/22 37/22/22 96/150/22 97/152/22
f 46/153/23 42/56/23 87/140/23 98/154/23
f 88/17/24 44/151/24 97/152/24 41/141/24
f 38/21/25 46/153/25 98/154/25 95/149/25
f 58/155/9 57/93/9 100/156/9 99/157/9
f 57/93/26 64/92/26 101/158/26 100/156/26
f 62/52/27 66/51/27 102/159/27 93/146/27
f 64/92/28 94/120/28 61/148/28 101/158/28
f 66/51/29 58/155/29 99/157/29 102/159/29
f 106/160/30 105/161/30 103/162/30 104/163/30
f 116/164/31 115/165/31 105/161/31 106/160/31
f 110/166/32 108/167/32 107/168/32 109/169/32
f 118/170/33 110/166/33 109/169/33 117/171/33
f 112/172/34 104/163/34 103/162/34 111/173/34
f 120/174/35 112/172/35 111/173/35 119/175/35
f 114/176/36 113/177/36 107/168/36 108/167/36
f 122/178/37 121/179/37 113/177/37 114/176/37
f 94/120/1 64/92/1 114/95/1 108/121/1
f 37/22/1 44/151/1 112/180/1 120/181/1
f 3/135/11 8/55/11 105/58/11 115/182/11
f 58/155/38 66/51/38 113/54/38 121/183/38
f 42/56/7 46/153/7 111/184/7 103/57/7
f 18/89/10 17/142/10 118/185/10 117/90/10
f 44/151/1 88/17/1 104/20/1 112/180/1
f 17/142/1 21/119/1 110/122/1 118/185/1
f 46/153/38 38/21/38 119/24/38 111/184/38
f 62/52/8 23/88/8 109/91/8 107/53/8
f 2/117/10 3/135/10 115/182/10 116/118/10
f 57/93/2 58/155/2 121/183/2 122/94/2
