# Blender v2.80 (sub 75) OBJ File: 'jar.blend'
# www.blender.org
mtllib jar.mtl
o Cylinder
v 0.000000 -1.000000 -1.000000
v 0.000000 3.149071 -0.757210
v 0.707107 -1.000000 -0.707107
v 0.535429 3.149071 -0.535429
v 1.000000 -1.000000 0.000000
v 0.757210 3.149071 0.000000
v 0.707107 -1.000000 0.707107
v 0.535429 3.149071 0.535429
v -0.000000 -1.000000 1.000000
v -0.000000 3.149071 0.757210
v -0.707107 -1.000000 0.707107
v -0.535429 3.149071 0.535428
v -1.000000 -1.000000 -0.000000
v -0.757210 3.149071 -0.000000
v -0.707107 -1.000000 -0.707107
v -0.535429 3.149071 -0.535428
v 0.000000 -0.028286 -1.303245
v 0.921533 -0.028286 -0.921533
v 1.303245 -0.028286 0.000000
v 0.921533 -0.028286 0.921533
v -0.000000 -0.028286 1.303245
v -0.921533 -0.028286 0.921533
v -1.303245 -0.028286 -0.000000
v -0.921533 -0.028286 -0.921533
v -0.000000 1.560392 -0.854379
v 0.604137 1.560392 -0.604137
v 0.854379 1.560392 0.000000
v 0.604137 1.560392 0.604137
v -0.000000 1.560392 0.854379
v -0.604137 1.560392 0.604137
v -0.854379 1.560392 -0.000000
v -0.604137 1.560392 -0.604137
v -0.000000 2.354732 -0.759479
v 0.537033 2.354732 -0.537033
v 0.759479 2.354732 0.000000
v 0.537033 2.354732 0.537033
v -0.000000 2.354732 0.759479
v -0.537033 2.354732 0.537033
v -0.759479 2.354732 -0.000000
v -0.537033 2.354732 -0.537033
v 0.798564 0.766053 -0.798564
v 1.129340 0.766053 0.000000
v 0.798564 0.766053 0.798564
v -0.000000 0.766053 1.129340
v -0.798564 0.766053 0.798564
v -1.129340 0.766053 -0.000000
v -0.798564 0.766053 -0.798564
v 0.000000 0.766053 -1.129340
v 0.859337 -0.630566 -0.859337
v 1.215286 -0.630566 0.000000
v 0.859337 -0.630566 0.859337
v -0.000000 -0.630566 1.215286
v -0.859338 -0.630566 0.859337
v -1.215286 -0.630566 -0.000000
v -0.859338 -0.630566 -0.859337
v 0.000000 -0.630566 -1.215286
v -0.000000 2.805252 -0.798943
v 0.564938 2.805252 -0.564938
v 0.798943 2.805252 0.000000
v 0.564938 2.805252 0.564938
v -0.000000 2.805252 0.798943
v -0.564938 2.805252 0.564938
v -0.798943 2.805252 -0.000000
v -0.564938 2.805252 -0.564938
v 0.707107 3.149071 -0.707107
v 0.000000 3.149071 -1.000000
v 1.000000 3.149071 0.000000
v 0.707107 3.149071 0.707107
v -0.000000 3.149071 1.000000
v -0.707107 3.149071 0.707107
v -1.000000 3.149071 -0.000000
v -0.707107 3.149071 -0.707107
v 0.408758 3.005974 -0.408758
v 0.000000 3.005974 -0.578071
v 0.578071 3.005974 0.000000
v 0.408758 3.005974 0.408758
v -0.000000 3.005974 0.578071
v -0.408758 3.005974 0.408758
v -0.578071 3.005974 -0.000000
v -0.408758 3.005974 -0.408758
vt 0.799259 0.694267
vt 0.824580 0.638218
vt 0.888743 0.636730
vt 0.910472 0.694267
vt 0.933061 0.590308
vt 0.989109 0.615628
vt 0.931574 0.526146
vt 0.989109 0.504418
vt 0.885152 0.481827
vt 0.910472 0.425778
vt 0.820989 0.483315
vt 0.799260 0.425779
vt 0.776670 0.529737
vt 0.720622 0.504417
vt 0.524815 0.896704
vt 0.457287 0.896437
vt 0.467046 0.871930
vt 0.514186 0.872542
vt 0.778158 0.593900
vt 0.720622 0.615627
vt 0.650042 0.526206
vt 0.651421 0.604536
vt 0.597704 0.661919
vt 0.518304 0.661893
vt 0.459000 0.609797
vt 0.456776 0.531934
vt 0.511793 0.475366
vt 0.591665 0.473639
vt 0.563520 0.303687
vt 0.526052 0.373860
vt 0.428029 0.265018
vt 0.503975 0.239284
vt 0.648762 0.301762
vt 0.674569 0.377599
vt 0.707310 0.237367
vt 0.780065 0.272044
vt 0.703699 0.148611
vt 0.780065 0.122465
vt 0.639584 0.086837
vt 0.676264 0.015451
vt 0.553855 0.086398
vt 0.528566 0.010891
vt 0.497403 0.150089
vt 0.424767 0.116891
vt 0.125557 0.011129
vt 0.169160 0.127017
vt 0.123825 0.177921
vt 0.011012 0.126620
vt 0.288330 0.010891
vt 0.236910 0.123369
vt 0.402985 0.126010
vt 0.286859 0.169116
vt 0.402985 0.288620
vt 0.290113 0.237238
vt 0.288108 0.403972
vt 0.244591 0.287935
vt 0.125284 0.403996
vt 0.176787 0.291594
vt 0.010891 0.288776
vt 0.126856 0.245798
vt 0.192540 0.181058
vt 0.179361 0.200397
vt 0.214496 0.177292
vt 0.231940 0.191457
vt 0.235019 0.214724
vt 0.221111 0.233610
vt 0.199082 0.237645
vt 0.181600 0.223778
vt 0.010891 0.532793
vt 0.103207 0.578319
vt 0.109258 0.652010
vt 0.012178 0.687631
vt 0.168917 0.701321
vt 0.123282 0.794988
vt 0.245063 0.701960
vt 0.276114 0.799962
vt 0.294804 0.647099
vt 0.387743 0.692658
vt 0.289488 0.571863
vt 0.387743 0.537095
vt 0.231726 0.521033
vt 0.277397 0.427098
vt 0.154669 0.524498
vt 0.122052 0.425778
vt 0.698840 0.507926
vt 0.698840 0.626389
vt 0.615240 0.711000
vt 0.497032 0.709647
vt 0.410409 0.628450
vt 0.409525 0.509806
vt 0.493925 0.426144
vt 0.612919 0.425778
vt 0.868715 0.892768
vt 0.886746 0.950269
vt 0.789495 0.948129
vt 0.816378 0.893878
vt 0.904367 0.857512
vt 0.957664 0.884607
vt 0.901184 0.807915
vt 0.957664 0.787370
vt 0.861339 0.774114
vt 0.887917 0.719737
vt 0.809011 0.773369
vt 0.791657 0.716049
vt 0.774003 0.808668
vt 0.720622 0.781727
vt 0.777691 0.858610
vt 0.720834 0.879037
vt 0.832172 0.618020
vt 0.879829 0.617080
vt 0.912863 0.582716
vt 0.911923 0.535059
vt 0.877559 0.502025
vt 0.829902 0.502966
vt 0.796869 0.537329
vt 0.797809 0.584986
vt 0.836103 0.127850
vt 0.801847 0.093594
vt 0.801847 0.045148
vt 0.836103 0.010891
vt 0.884549 0.010891
vt 0.918806 0.045148
vt 0.918806 0.093594
vt 0.884549 0.127850
vt 0.410189 0.847976
vt 0.409525 0.780632
vt 0.434161 0.789989
vt 0.434420 0.837464
vt 0.524821 0.733043
vt 0.572559 0.781117
vt 0.548297 0.791732
vt 0.515117 0.757658
vt 0.572559 0.848845
vt 0.547896 0.839292
vt 0.457176 0.732782
vt 0.467779 0.756960
vn 0.3367 -0.4753 -0.8128
vn 0.8128 -0.4753 -0.3367
vn 0.8128 -0.4753 0.3367
vn 0.3367 -0.4753 0.8128
vn -0.3367 -0.4753 0.8128
vn -0.8128 -0.4753 0.3367
vn -0.2503 0.7565 -0.6043
vn -0.8128 -0.4753 -0.3367
vn -0.3367 -0.4753 -0.8128
vn 0.0000 -1.0000 0.0000
vn -0.3792 -0.1337 -0.9156
vn -0.9156 -0.1337 -0.3792
vn -0.9156 -0.1337 0.3792
vn -0.3792 -0.1337 0.9156
vn 0.3792 -0.1337 0.9156
vn 0.9156 -0.1337 0.3792
vn 0.9156 -0.1337 -0.3792
vn 0.3792 -0.1337 -0.9156
vn -0.3645 0.3046 -0.8800
vn -0.8800 0.3046 -0.3645
vn -0.8800 0.3046 0.3645
vn -0.3645 0.3046 0.8800
vn 0.3645 0.3046 0.8800
vn 0.8800 0.3046 0.3645
vn 0.8800 0.3046 -0.3645
vn 0.3645 0.3046 -0.8800
vn -0.3804 0.1097 -0.9183
vn -0.9183 0.1097 -0.3804
vn -0.9183 0.1097 0.3804
vn -0.3804 0.1097 0.9183
vn 0.3804 0.1097 0.9183
vn 0.9183 0.1097 0.3804
vn 0.9183 0.1097 -0.3804
vn 0.3804 0.1097 -0.9183
vn 0.3751 0.1983 -0.9055
vn 0.9055 0.1983 -0.3751
vn 0.9055 0.1983 0.3751
vn 0.3751 0.1983 0.9055
vn -0.3751 0.1983 0.9055
vn -0.9055 0.1983 0.3751
vn -0.9055 0.1983 -0.3751
vn -0.3751 0.1983 -0.9055
vn 0.3370 -0.4740 -0.8135
vn 0.8135 -0.4740 -0.3370
vn 0.8135 -0.4740 0.3370
vn 0.3370 -0.4740 0.8135
vn -0.3370 -0.4740 0.8135
vn -0.8135 -0.4740 0.3370
vn -0.8135 -0.4740 -0.3370
vn -0.3370 -0.4740 -0.8135
vn -0.3814 -0.0807 -0.9209
vn -0.9209 -0.0807 -0.3814
vn -0.9209 -0.0807 0.3814
vn -0.3814 -0.0807 0.9209
vn 0.3814 -0.0807 0.9209
vn 0.9209 -0.0807 0.3814
vn 0.9209 -0.0807 -0.3814
vn 0.3814 -0.0807 -0.9209
vn 0.0000 1.0000 -0.0000
vn -0.6043 0.7565 0.2503
vn 0.6043 0.7565 0.2503
vn 0.2503 0.7565 -0.6043
vn -0.6043 0.7565 -0.2503
vn -0.2503 0.7565 0.6043
vn 0.2503 0.7565 0.6043
vn 0.6043 0.7565 -0.2503
usemtl Material.001
s off
f 57/1/1 66/2/1 65/3/1 58/4/1
f 58/4/2 65/3/2 67/5/2 59/6/2
f 59/6/3 67/5/3 68/7/3 60/8/3
f 60/8/4 68/7/4 69/9/4 61/10/4
f 61/10/5 69/9/5 70/11/5 62/12/5
f 62/12/6 70/11/6 71/13/6 63/14/6
f 10/15/7 8/16/7 76/17/7 77/18/7
f 63/14/8 71/13/8 72/19/8 64/20/8
f 64/20/9 72/19/9 66/2/9 57/1/9
f 1/21/10 3/22/10 5/23/10 7/24/10 9/25/10 11/26/10 13/27/10 15/28/10
f 55/29/11 24/30/11 17/31/11 56/32/11
f 54/33/12 23/34/12 24/30/12 55/29/12
f 53/35/13 22/36/13 23/34/13 54/33/13
f 52/37/14 21/38/14 22/36/14 53/35/14
f 51/39/15 20/40/15 21/38/15 52/37/15
f 50/41/16 19/42/16 20/40/16 51/39/16
f 49/43/17 18/44/17 19/42/17 50/41/17
f 56/32/18 17/31/18 18/44/18 49/43/18
f 47/45/19 32/46/19 25/47/19 48/48/19
f 46/49/20 31/50/20 32/46/20 47/45/20
f 45/51/21 30/52/21 31/50/21 46/49/21
f 44/53/22 29/54/22 30/52/22 45/51/22
f 43/55/23 28/56/23 29/54/23 44/53/23
f 42/57/24 27/58/24 28/56/24 43/55/24
f 41/59/25 26/60/25 27/58/25 42/57/25
f 48/48/26 25/47/26 26/60/26 41/59/26
f 32/46/27 40/61/27 33/62/27 25/47/27
f 31/50/28 39/63/28 40/61/28 32/46/28
f 30/52/29 38/64/29 39/63/29 31/50/29
f 29/54/30 37/65/30 38/64/30 30/52/30
f 28/56/31 36/66/31 37/65/31 29/54/31
f 27/58/32 35/67/32 36/66/32 28/56/32
f 26/60/33 34/68/33 35/67/33 27/58/33
f 25/47/34 33/62/34 34/68/34 26/60/34
f 17/69/35 48/70/35 41/71/35 18/72/35
f 18/72/36 41/71/36 42/73/36 19/74/36
f 19/74/37 42/73/37 43/75/37 20/76/37
f 20/76/38 43/75/38 44/77/38 21/78/38
f 21/78/39 44/77/39 45/79/39 22/80/39
f 22/80/40 45/79/40 46/81/40 23/82/40
f 23/82/41 46/81/41 47/83/41 24/84/41
f 24/84/42 47/83/42 48/70/42 17/69/42
f 1/21/43 56/85/43 49/86/43 3/22/43
f 3/22/44 49/86/44 50/87/44 5/23/44
f 5/23/45 50/87/45 51/88/45 7/24/45
f 7/24/46 51/88/46 52/89/46 9/25/46
f 9/25/47 52/89/47 53/90/47 11/26/47
f 11/26/48 53/90/48 54/91/48 13/27/48
f 13/27/49 54/91/49 55/92/49 15/28/49
f 15/28/50 55/92/50 56/85/50 1/21/50
f 40/93/51 64/94/51 57/95/51 33/96/51
f 39/97/52 63/98/52 64/94/52 40/93/52
f 38/99/53 62/100/53 63/98/53 39/97/53
f 37/101/54 61/102/54 62/100/54 38/99/54
f 36/103/55 60/104/55 61/102/55 37/101/55
f 35/105/56 59/106/56 60/104/56 36/103/56
f 34/107/57 58/108/57 59/106/57 35/105/57
f 33/96/58 57/95/58 58/108/58 34/107/58
f 2/109/59 4/110/59 65/3/59 66/2/59
f 4/110/59 6/111/59 67/5/59 65/3/59
f 6/111/59 8/112/59 68/7/59 67/5/59
f 8/112/59 10/113/59 69/9/59 68/7/59
f 10/113/59 12/114/59 70/11/59 69/9/59
f 12/114/59 14/115/59 71/13/59 70/11/59
f 14/115/59 16/116/59 72/19/59 71/13/59
f 16/116/59 2/109/59 66/2/59 72/19/59
f 73/117/59 74/118/59 80/119/59 79/120/59 78/121/59 77/122/59 76/123/59 75/124/59
f 6/125/60 4/126/60 73/127/60 75/128/60
f 16/129/61 14/130/61 79/131/61 80/132/61
f 12/133/62 10/15/62 77/18/62 78/134/62
f 8/16/63 6/125/63 75/128/63 76/17/63
f 4/126/64 2/135/64 74/136/64 73/127/64
f 2/135/65 16/129/65 80/132/65 74/136/65
f 14/130/66 12/133/66 78/134/66 79/131/66
