# Blender v2.80 (sub 75) OBJ File: 'log.blend'
# www.blender.org
mtllib log.mtl
o Cylinder
v 0.000000 -0.917354 6.929384
v 0.000000 -0.917355 -6.929384
v 0.178967 -0.899727 6.929384
v 0.178967 -0.899728 -6.929384
v 0.351056 -0.847525 6.929384
v 0.351056 -0.847525 -6.929384
v 0.509655 -0.762752 6.929384
v 0.509655 -0.762753 -6.929384
v 0.648668 -0.648667 6.929384
v 0.648668 -0.648668 -6.929384
v 0.762752 -0.509654 6.929384
v 0.762752 -0.509655 -6.929384
v 0.847525 -0.351056 6.929384
v 0.847525 -0.351057 -6.929384
v 0.899728 -0.178967 6.929384
v 0.899728 -0.178967 -6.929384
v 0.917354 0.000000 6.929384
v 0.917354 -0.000000 -6.929384
v 0.899728 0.178967 6.929384
v 0.899728 0.178967 -6.929384
v 0.847525 0.351056 6.929384
v 0.847525 0.351056 -6.929384
v 0.762752 0.509655 6.929384
v 0.762752 0.509654 -6.929384
v 0.648668 0.648668 6.929384
v 0.648668 0.648667 -6.929384
v 0.509655 0.762753 6.929384
v 0.509655 0.762752 -6.929384
v 0.351056 0.847525 6.929384
v 0.351056 0.847525 -6.929384
v 0.178967 0.899728 6.929384
v 0.178967 0.899727 -6.929384
v -0.000000 0.917355 6.929384
v -0.000000 0.917354 -6.929384
v -0.178967 0.899728 6.929384
v -0.178967 0.899727 -6.929384
v -0.351057 0.847525 6.929384
v -0.351057 0.847524 -6.929384
v -0.509655 0.762752 6.929384
v -0.509655 0.762752 -6.929384
v -0.648668 0.648667 6.929384
v -0.648668 0.648667 -6.929384
v -0.762753 0.509655 6.929384
v -0.762753 0.509654 -6.929384
v -0.847525 0.351056 6.929384
v -0.847525 0.351055 -6.929384
v -0.899728 0.178966 6.929384
v -0.899728 0.178966 -6.929384
v -0.917354 -0.000001 6.929384
v -0.917354 -0.000001 -6.929384
v -0.899728 -0.178968 6.929384
v -0.899728 -0.178968 -6.929384
v -0.847525 -0.351057 6.929384
v -0.847525 -0.351058 -6.929384
v -0.762752 -0.509655 6.929384
v -0.762752 -0.509656 -6.929384
v -0.648667 -0.648668 6.929384
v -0.648667 -0.648669 -6.929384
v -0.509654 -0.762753 6.929384
v -0.509654 -0.762753 -6.929384
v -0.351055 -0.847525 6.929384
v -0.351055 -0.847526 -6.929384
v -0.178966 -0.899728 6.929384
v -0.178966 -0.899728 -6.929384
vt 0.016967 0.530189
vt 0.324969 0.530189
vt 0.324969 0.560379
vt 0.016967 0.560379
vt 0.324969 0.590568
vt 0.016967 0.590568
vt 0.324969 0.620758
vt 0.016967 0.620758
vt 0.324969 0.650947
vt 0.016967 0.650947
vt 0.324969 0.681137
vt 0.016967 0.681137
vt 0.324969 0.711326
vt 0.016967 0.711327
vt 0.324969 0.741516
vt 0.016967 0.741516
vt 0.324969 0.771705
vt 0.016967 0.771706
vt 0.324969 0.801895
vt 0.016967 0.801895
vt 0.324969 0.832084
vt 0.016967 0.832085
vt 0.324969 0.862273
vt 0.016968 0.862275
vt 0.324970 0.892463
vt 0.016968 0.892464
vt 0.324970 0.922652
vt 0.016968 0.922654
vt 0.324970 0.952842
vt 0.016968 0.952843
vt 0.324970 0.983031
vt 0.016968 0.983033
vt 0.016969 0.016967
vt 0.324970 0.016969
vt 0.324970 0.047159
vt 0.016969 0.047157
vt 0.324970 0.077348
vt 0.016968 0.077346
vt 0.324970 0.107537
vt 0.016968 0.107536
vt 0.324969 0.137727
vt 0.016968 0.137725
vt 0.324969 0.167916
vt 0.016968 0.167915
vt 0.324969 0.198106
vt 0.016968 0.198104
vt 0.324969 0.228295
vt 0.016968 0.228294
vt 0.324969 0.258485
vt 0.016968 0.258483
vt 0.324969 0.288674
vt 0.016968 0.288673
vt 0.324969 0.318863
vt 0.016967 0.318862
vt 0.324969 0.349053
vt 0.016967 0.349052
vt 0.324969 0.379242
vt 0.016967 0.379242
vt 0.324969 0.409432
vt 0.016967 0.409431
vt 0.324969 0.439621
vt 0.016967 0.439621
vt 0.324969 0.469811
vt 0.016967 0.469810
vt 0.467459 0.658049
vt 0.439568 0.646496
vt 0.414467 0.629724
vt 0.393119 0.608377
vt 0.376347 0.583275
vt 0.364794 0.555384
vt 0.358904 0.525774
vt 0.358904 0.495585
vt 0.364794 0.465976
vt 0.376347 0.438084
vt 0.393119 0.412982
vt 0.414466 0.391635
vt 0.439568 0.374863
vt 0.467459 0.363310
vt 0.497068 0.357420
vt 0.527258 0.357420
vt 0.556867 0.363310
vt 0.584759 0.374863
vt 0.609860 0.391635
vt 0.631208 0.412982
vt 0.647980 0.438083
vt 0.659533 0.465975
vt 0.665423 0.495584
vt 0.665423 0.525774
vt 0.659533 0.555383
vt 0.647980 0.583275
vt 0.631208 0.608376
vt 0.609861 0.629724
vt 0.584759 0.646496
vt 0.556868 0.658049
vt 0.527258 0.663939
vt 0.497069 0.663939
vt 0.324969 0.500000
vt 0.016967 0.500000
vt 0.556868 0.022857
vt 0.584759 0.034410
vt 0.609861 0.051182
vt 0.631208 0.072529
vt 0.647980 0.097631
vt 0.659533 0.125523
vt 0.665423 0.155132
vt 0.665423 0.185321
vt 0.659533 0.214931
vt 0.647980 0.242822
vt 0.631208 0.267924
vt 0.609861 0.289271
vt 0.584759 0.306043
vt 0.556867 0.317596
vt 0.527258 0.323486
vt 0.497069 0.323486
vt 0.467460 0.317596
vt 0.439568 0.306043
vt 0.414466 0.289271
vt 0.393119 0.267923
vt 0.376347 0.242822
vt 0.364794 0.214930
vt 0.358904 0.185321
vt 0.358904 0.155132
vt 0.364794 0.125522
vt 0.376347 0.097631
vt 0.393119 0.072529
vt 0.414467 0.051182
vt 0.439568 0.034410
vt 0.467460 0.022857
vt 0.497069 0.016967
vt 0.527259 0.016967
vn 0.0980 -0.9952 0.0000
vn 0.2903 -0.9569 0.0000
vn 0.4714 -0.8819 0.0000
vn 0.6344 -0.7730 0.0000
vn 0.7730 -0.6344 0.0000
vn 0.8819 -0.4714 0.0000
vn 0.9569 -0.2903 0.0000
vn 0.9952 -0.0980 0.0000
vn 0.9952 0.0980 -0.0000
vn 0.9569 0.2903 -0.0000
vn 0.8819 0.4714 -0.0000
vn 0.7730 0.6344 -0.0000
vn 0.6344 0.7730 -0.0000
vn 0.4714 0.8819 -0.0000
vn 0.2903 0.9569 -0.0000
vn 0.0980 0.9952 -0.0000
vn -0.0980 0.9952 -0.0000
vn -0.2903 0.9569 -0.0000
vn -0.4714 0.8819 -0.0000
vn -0.6344 0.7730 -0.0000
vn -0.7730 0.6344 -0.0000
vn -0.8819 0.4714 -0.0000
vn -0.9569 0.2903 -0.0000
vn -0.9952 0.0980 -0.0000
vn -0.9952 -0.0980 0.0000
vn -0.9569 -0.2903 0.0000
vn -0.8819 -0.4714 0.0000
vn -0.7730 -0.6344 0.0000
vn -0.6344 -0.7730 0.0000
vn -0.4714 -0.8819 0.0000
vn 0.0000 0.0000 -1.0000
vn -0.2903 -0.9569 0.0000
vn -0.0980 -0.9952 0.0000
vn -0.0000 0.0000 1.0000
g Cylinder_Cylinder_Material
usemtl Material
s off
f 1/1/1 2/2/1 4/3/1 3/4/1
f 3/4/2 4/3/2 6/5/2 5/6/2
f 5/6/3 6/5/3 8/7/3 7/8/3
f 7/8/4 8/7/4 10/9/4 9/10/4
f 9/10/5 10/9/5 12/11/5 11/12/5
f 11/12/6 12/11/6 14/13/6 13/14/6
f 13/14/7 14/13/7 16/15/7 15/16/7
f 15/16/8 16/15/8 18/17/8 17/18/8
f 17/18/9 18/17/9 20/19/9 19/20/9
f 19/20/10 20/19/10 22/21/10 21/22/10
f 21/22/11 22/21/11 24/23/11 23/24/11
f 23/24/12 24/23/12 26/25/12 25/26/12
f 25/26/13 26/25/13 28/27/13 27/28/13
f 27/28/14 28/27/14 30/29/14 29/30/14
f 29/30/15 30/29/15 32/31/15 31/32/15
f 31/33/16 32/34/16 34/35/16 33/36/16
f 33/36/17 34/35/17 36/37/17 35/38/17
f 35/38/18 36/37/18 38/39/18 37/40/18
f 37/40/19 38/39/19 40/41/19 39/42/19
f 39/42/20 40/41/20 42/43/20 41/44/20
f 41/44/21 42/43/21 44/45/21 43/46/21
f 43/46/22 44/45/22 46/47/22 45/48/22
f 45/48/23 46/47/23 48/49/23 47/50/23
f 47/50/24 48/49/24 50/51/24 49/52/24
f 49/52/25 50/51/25 52/53/25 51/54/25
f 51/54/26 52/53/26 54/55/26 53/56/26
f 53/56/27 54/55/27 56/57/27 55/58/27
f 55/58/28 56/57/28 58/59/28 57/60/28
f 57/60/29 58/59/29 60/61/29 59/62/29
f 59/62/30 60/61/30 62/63/30 61/64/30
f 4/65/31 2/66/31 64/67/31 62/68/31 60/69/31 58/70/31 56/71/31 54/72/31 52/73/31 50/74/31 48/75/31 46/76/31 44/77/31 42/78/31 40/79/31 38/80/31 36/81/31 34/82/31 32/83/31 30/84/31 28/85/31 26/86/31 24/87/31 22/88/31 20/89/31 18/90/31 16/91/31 14/92/31 12/93/31 10/94/31 8/95/31 6/96/31
f 61/64/32 62/63/32 64/97/32 63/98/32
f 63/98/33 64/97/33 2/2/33 1/1/33
f 1/99/34 3/100/34 5/101/34 7/102/34 9/103/34 11/104/34 13/105/34 15/106/34 17/107/34 19/108/34 21/109/34 23/110/34 25/111/34 27/112/34 29/113/34 31/114/34 33/115/34 35/116/34 37/117/34 39/118/34 41/119/34 43/120/34 45/121/34 47/122/34 49/123/34 51/124/34 53/125/34 55/126/34 57/127/34 59/128/34 61/129/34 63/130/34
