# Blender v2.80 (sub 75) OBJ File: 'ruin3.blend'
# www.blender.org
mtllib ruin3.mtl
o Cube
v 5.331448 10.496075 -5.331448
v 5.331448 -0.166822 -5.331448
v -5.331448 10.496075 -0.551561
v -5.331448 2.824710 5.331448
v -5.331448 10.496075 -5.331448
v -5.331448 -0.166822 -5.331448
v -5.331448 -0.166822 5.331448
v 3.448708 10.496075 -5.331448
v -1.787844 -0.166822 -5.331448
v 0.735568 7.904967 -5.331448
v 0.653482 4.936939 -5.331448
v -0.962193 3.141787 -5.331448
v -4.727478 10.496075 -5.331448
v -3.209679 -0.166822 -5.331448
v -3.156901 6.614625 -5.331448
v -3.380651 1.504422 -5.331448
v 5.331448 10.496075 -3.429137
v 5.331448 -0.166822 3.870395
v 5.331448 7.830768 -0.802439
v 5.331448 3.624574 -0.736371
v 5.331448 1.521574 1.078551
v 5.331448 0.340620 1.603869
v -5.331448 7.879924 0.672437
v -5.331448 5.484097 3.922545
v -5.331448 3.011461 3.228923
v 5.180657 10.496075 -5.180657
v 5.180657 -0.166822 -5.180657
v -5.118190 10.496075 -0.551561
v -5.118196 2.824710 5.331448
v -5.180657 10.496075 -5.180657
v -5.180657 -0.166822 -5.180657
v -5.118190 -0.166822 5.331448
v 3.448708 10.496075 -5.118190
v -1.787844 -0.166822 -5.118190
v 0.735568 7.904967 -5.118190
v 0.653482 4.936939 -5.118190
v -0.962193 3.141787 -5.118190
v -4.727478 10.496075 -5.118190
v -3.209679 -0.166822 -5.118190
v -3.156901 6.614625 -5.118190
v -3.380651 1.504422 -5.118190
v 5.118190 10.496075 -3.429137
v 5.118190 -0.166822 3.870395
v 5.118190 7.830768 -0.802439
v 5.118190 3.624574 -0.736371
v 5.118190 1.521574 1.078551
v 5.118190 0.340620 1.603869
v -5.118190 7.879924 0.672437
v -5.118190 5.484097 3.922545
v -5.118190 3.011461 3.228923
vt 0.841082 0.868737
vt 0.793142 0.866855
vt 0.740868 0.850334
vt 0.701436 0.825081
vt 0.656609 0.778143
vt 0.656609 0.745570
vt 0.841082 0.745570
vt 0.940055 0.273377
vt 0.888300 0.273377
vt 0.868379 0.264820
vt 0.842292 0.249002
vt 0.805294 0.213915
vt 0.755582 0.171598
vt 0.755582 0.088904
vt 0.940055 0.088904
vt 0.656609 0.712660
vt 0.702720 0.667217
vt 0.775489 0.666074
vt 0.811872 0.634675
vt 0.832303 0.625586
vt 0.841082 0.586375
vt 0.755582 0.078455
vt 0.822733 0.051283
vt 0.911142 0.055154
vt 0.940055 0.052197
vt 0.554042 0.591720
vt 0.554037 0.712283
vt 0.369565 0.712279
vt 0.369553 0.682296
vt 0.414394 0.635370
vt 0.451022 0.605212
vt 0.472969 0.586375
vt 0.235780 0.731820
vt 0.235779 0.913687
vt 0.051307 0.913688
vt 0.051305 0.833596
vt 0.074136 0.771766
vt 0.138016 0.756194
vt 0.160466 0.731744
vt 0.184025 0.717171
vt 0.554042 0.868874
vt 0.545258 0.829663
vt 0.524826 0.820575
vt 0.488443 0.789177
vt 0.415674 0.788032
vt 0.369553 0.742600
vt 0.235780 0.947803
vt 0.206866 0.944847
vt 0.118458 0.948717
vt 0.051283 0.921603
vt 0.127752 0.340684
vt 0.051283 0.182164
vt 0.055096 0.183097
vt 0.130927 0.339164
vt 0.084671 0.161906
vt 0.086707 0.165262
vt 0.182406 0.454887
vt 0.164108 0.416652
vt 0.167283 0.415132
vt 0.185581 0.453367
vt 0.211176 0.515004
vt 0.214351 0.513484
vt 0.149068 0.385225
vt 0.152243 0.383705
vt 0.265815 0.629178
vt 0.231756 0.558009
vt 0.234932 0.556490
vt 0.266986 0.625858
vt 0.653015 0.483780
vt 0.621034 0.483789
vt 0.621033 0.480167
vt 0.650453 0.481219
vt 0.653015 0.051431
vt 0.652934 0.207855
vt 0.649312 0.207856
vt 0.650329 0.054115
vt 0.526195 0.051364
vt 0.526193 0.055163
vt 0.557304 0.483808
vt 0.557303 0.480185
vt 0.369555 0.051283
vt 0.422439 0.051311
vt 0.422437 0.055109
vt 0.369553 0.055082
vt 0.465456 0.051333
vt 0.465455 0.055131
vt 0.257482 0.057050
vt 0.266986 0.051283
vt 0.266053 0.055096
vt 0.259518 0.060406
vt 0.191595 0.097028
vt 0.193631 0.100384
vt 0.111106 0.145866
vt 0.113142 0.149222
vt 0.653006 0.451467
vt 0.649384 0.451468
vt 0.652987 0.387903
vt 0.649365 0.387904
vt 0.652966 0.316447
vt 0.649344 0.316448
vt 0.652952 0.269262
vt 0.649330 0.269263
vt 0.652946 0.247308
vt 0.649324 0.247309
vn -0.0000 0.0000 -1.0000
vn -1.0000 0.0000 0.0000
vn 1.0000 0.0000 0.0000
vn 0.0127 -0.0031 0.9999
vn 1.0000 -0.0021 -0.0077
vn -0.9999 -0.0046 -0.0134
vn -0.0375 -0.0027 0.9993
vn 0.0000 -1.0000 0.0000
vn 0.0000 -0.2701 0.9628
vn 0.0000 0.8049 0.5934
vn 0.0000 0.9961 0.0885
vn 0.0000 1.0000 0.0000
vn -0.6907 0.7232 0.0000
vn -0.9996 0.0276 0.0000
vn -0.7433 0.6690 0.0000
vn -0.9702 0.2421 0.0000
vn 0.0000 0.0000 1.0000
vn 0.9270 0.3751 0.0000
vn 0.9990 -0.0437 0.0000
vn 0.9948 0.1018 0.0000
vn 0.0000 0.4238 0.9058
vn 0.0000 0.7019 0.7122
vn 0.0000 0.0157 0.9999
vn 0.0000 0.6534 0.7571
vn 0.0000 0.4064 0.9137
vn 0.0000 0.9758 0.2185
usemtl Material
s off
f 9/1/1 12/2/1 11/3/1 10/4/1 8/5/1 1/6/1 2/7/1
f 7/8/2 4/9/2 25/10/2 24/11/2 23/12/2 3/13/2 5/14/2 6/15/2
f 2/7/3 1/6/3 17/16/3 19/17/3 20/18/3 21/19/3 22/20/3 18/21/3
f 6/15/1 5/14/1 13/22/1 15/23/1 16/24/1 14/25/1
f 34/26/4 27/27/4 26/28/4 33/29/4 35/30/4 36/31/4 37/32/4
f 32/33/5 31/34/5 30/35/5 28/36/5 48/37/5 49/38/5 50/39/5 29/40/5
f 27/27/6 43/41/6 47/42/6 46/43/6 45/44/6 44/45/6 42/46/6 26/28/6
f 31/34/7 39/47/7 41/48/7 40/49/7 38/50/7 30/35/7
f 7/51/8 6/52/8 31/53/8 32/54/8
f 6/52/8 14/55/8 39/56/8 31/53/8
f 24/57/9 25/58/9 50/59/9 49/60/9
f 23/61/10 24/57/10 49/60/10 48/62/10
f 25/58/11 4/63/11 29/64/11 50/59/11
f 5/65/12 3/66/12 28/67/12 30/68/12
f 1/69/12 8/70/12 33/71/12 26/72/12
f 2/73/8 18/74/8 43/75/8 27/76/8
f 9/77/8 2/73/8 27/76/8 34/78/8
f 8/70/13 10/79/13 35/80/13 33/71/13
f 10/81/14 11/82/14 36/83/14 35/84/14
f 11/82/15 12/85/15 37/86/15 36/83/15
f 12/85/16 9/77/16 34/78/16 37/86/16
f 13/87/12 5/88/12 30/89/12 38/90/12
f 4/63/17 7/51/17 32/54/17 29/64/17
f 15/91/18 13/87/18 38/90/18 40/92/18
f 16/93/19 15/91/19 40/92/19 41/94/19
f 14/55/20 16/93/20 41/94/20 39/56/20
f 17/95/12 1/69/12 26/72/12 42/96/12
f 3/66/21 23/61/21 48/62/21 28/67/21
f 19/97/22 17/95/22 42/96/22 44/98/22
f 20/99/23 19/97/23 44/98/23 45/100/23
f 21/101/24 20/99/24 45/100/24 46/102/24
f 22/103/25 21/101/25 46/102/25 47/104/25
f 18/74/26 22/103/26 47/104/26 43/75/26
