# Blender v2.83.0 OBJ File: 'stalagtight 1.blend'
# www.blender.org
mtllib stalagtight 1.mtl
o Cylinder
v 0.000000 -0.001231 -0.000000
v -0.000000 6.720137 -1.209450
v 0.235952 6.720137 -1.186210
v 0.462836 6.720137 -1.117386
v 0.671934 6.720137 -1.005620
v 0.855210 6.720137 -0.855210
v 1.005621 6.720137 -0.671934
v 1.117386 6.720137 -0.462836
v 1.186210 6.720137 -0.235952
v 1.209450 6.720137 -0.000000
v 1.186210 6.720137 0.235952
v 1.117386 6.720137 0.462836
v 1.005621 6.720137 0.671934
v 0.855210 6.720137 0.855210
v 0.671934 6.720137 1.005621
v 0.462836 6.720137 1.117386
v 0.235952 6.720137 1.186211
v -0.000000 6.720137 1.209450
v -0.235952 6.720137 1.186210
v -0.462837 6.720137 1.117386
v -0.671935 6.720137 1.005620
v -0.855211 6.720137 0.855210
v -1.005621 6.720137 0.671934
v -1.117386 6.720137 0.462835
v -1.186211 6.720137 0.235951
v -1.209450 6.720137 -0.000001
v -1.186210 6.720137 -0.235953
v -1.117385 6.720137 -0.462838
v -1.005620 6.720137 -0.671935
v -0.855209 6.720137 -0.855211
v -0.671933 6.720137 -1.005621
v -0.462835 6.720137 -1.117386
v -0.235950 6.720137 -1.186211
v 0.000000 1.679111 -0.171710
v 0.000000 3.359452 -0.405816
v 0.000000 5.039795 -0.792523
v 0.154614 5.039795 -0.777295
v 0.079171 3.359452 -0.398019
v 0.033499 1.679111 -0.168411
v 0.303285 5.039795 -0.732195
v 0.155299 3.359452 -0.374925
v 0.065711 1.679111 -0.158640
v 0.440302 5.039795 -0.658958
v 0.225459 3.359452 -0.337424
v 0.095397 1.679111 -0.142772
v 0.560398 5.039795 -0.560398
v 0.286955 3.359452 -0.286955
v 0.121417 1.679111 -0.121418
v 0.658959 5.039795 -0.440302
v 0.337424 3.359452 -0.225459
v 0.142772 1.679111 -0.095397
v 0.732195 5.039795 -0.303285
v 0.374925 3.359452 -0.155299
v 0.158639 1.679111 -0.065711
v 0.777295 5.039795 -0.154614
v 0.398018 3.359452 -0.079171
v 0.168411 1.679111 -0.033499
v 0.792523 5.039795 -0.000000
v 0.405816 3.359452 -0.000000
v 0.171710 1.679111 -0.000000
v 0.777295 5.039795 0.154613
v 0.398018 3.359452 0.079171
v 0.168411 1.679111 0.033499
v 0.732195 5.039795 0.303285
v 0.374925 3.359452 0.155299
v 0.158639 1.679111 0.065710
v 0.658959 5.039795 0.440302
v 0.337424 3.359452 0.225459
v 0.142772 1.679111 0.095397
v 0.560398 5.039795 0.560398
v 0.286955 3.359452 0.286955
v 0.121417 1.679111 0.121417
v 0.440302 5.039795 0.658958
v 0.225459 3.359452 0.337424
v 0.095397 1.679111 0.142771
v 0.303285 5.039795 0.732195
v 0.155299 3.359452 0.374925
v 0.065711 1.679111 0.158639
v 0.154613 5.039795 0.777294
v 0.079171 3.359452 0.398018
v 0.033499 1.679111 0.168410
v -0.000000 5.039795 0.792522
v -0.000000 3.359452 0.405816
v 0.000000 1.679111 0.171710
v -0.154614 5.039795 0.777294
v -0.079171 3.359452 0.398018
v -0.033499 1.679111 0.168410
v -0.303286 5.039795 0.732195
v -0.155299 3.359452 0.374925
v -0.065711 1.679111 0.158639
v -0.440302 5.039795 0.658958
v -0.225459 3.359452 0.337423
v -0.095397 1.679111 0.142771
v -0.560398 5.039795 0.560398
v -0.286955 3.359452 0.286955
v -0.121417 1.679111 0.121417
v -0.658959 5.039795 0.440301
v -0.337424 3.359452 0.225459
v -0.142772 1.679111 0.095397
v -0.732196 5.039795 0.303285
v -0.374925 3.359452 0.155299
v -0.158639 1.679111 0.065710
v -0.777295 5.039795 0.154613
v -0.398018 3.359452 0.079170
v -0.168411 1.679111 0.033499
v -0.792523 5.039795 -0.000001
v -0.405816 3.359452 -0.000001
v -0.171710 1.679111 -0.000000
v -0.777294 5.039795 -0.154614
v -0.398018 3.359452 -0.079171
v -0.168411 1.679111 -0.033499
v -0.732195 5.039795 -0.303286
v -0.374925 3.359452 -0.155300
v -0.158639 1.679111 -0.065711
v -0.658958 5.039795 -0.440303
v -0.337423 3.359452 -0.225460
v -0.142771 1.679111 -0.095397
v -0.560397 5.039795 -0.560399
v -0.286955 3.359452 -0.286956
v -0.121417 1.679111 -0.121418
v -0.440301 5.039795 -0.658959
v -0.225459 3.359452 -0.337424
v -0.095397 1.679111 -0.142772
v -0.303284 5.039795 -0.732196
v -0.155298 3.359452 -0.374926
v -0.065710 1.679111 -0.158640
v -0.154612 5.039795 -0.777295
v -0.079170 3.359452 -0.398019
v -0.033499 1.679111 -0.168411
vt 1.000000 0.875000
vt 1.000000 1.000000
vt 0.968750 1.000000
vt 0.968750 0.875000
vt 0.937500 1.000000
vt 0.937500 0.875000
vt 0.906250 1.000000
vt 0.906250 0.875000
vt 0.875000 1.000000
vt 0.875000 0.875000
vt 0.843750 1.000000
vt 0.843750 0.875000
vt 0.812500 1.000000
vt 0.812500 0.875000
vt 0.781250 1.000000
vt 0.781250 0.875000
vt 0.750000 1.000000
vt 0.750000 0.875000
vt 0.718750 1.000000
vt 0.718750 0.875000
vt 0.687500 1.000000
vt 0.687500 0.875000
vt 0.656250 1.000000
vt 0.656250 0.875000
vt 0.625000 1.000000
vt 0.625000 0.875000
vt 0.593750 1.000000
vt 0.593750 0.875000
vt 0.562500 1.000000
vt 0.562500 0.875000
vt 0.531250 1.000000
vt 0.531250 0.875000
vt 0.500000 1.000000
vt 0.500000 0.875000
vt 0.468750 1.000000
vt 0.468750 0.875000
vt 0.437500 1.000000
vt 0.437500 0.875000
vt 0.406250 1.000000
vt 0.406250 0.875000
vt 0.375000 1.000000
vt 0.375000 0.875000
vt 0.343750 1.000000
vt 0.343750 0.875000
vt 0.312500 1.000000
vt 0.312500 0.875000
vt 0.281250 1.000000
vt 0.281250 0.875000
vt 0.250000 1.000000
vt 0.250000 0.875000
vt 0.218750 1.000000
vt 0.218750 0.875000
vt 0.187500 1.000000
vt 0.187500 0.875000
vt 0.156250 1.000000
vt 0.156250 0.875000
vt 0.125000 1.000000
vt 0.125000 0.875000
vt 0.093750 1.000000
vt 0.093750 0.875000
vt 0.062500 1.000000
vt 0.062500 0.875000
vt 0.296822 0.485388
vt 0.250000 0.490000
vt 0.203179 0.485389
vt 0.158156 0.471731
vt 0.116663 0.449553
vt 0.080295 0.419706
vt 0.050447 0.383337
vt 0.028269 0.341844
vt 0.014612 0.296822
vt 0.010000 0.250000
vt 0.014611 0.203179
vt 0.028269 0.158156
vt 0.050447 0.116663
vt 0.080294 0.080294
vt 0.116663 0.050447
vt 0.158156 0.028269
vt 0.203178 0.014612
vt 0.250000 0.010000
vt 0.296822 0.014612
vt 0.341844 0.028269
vt 0.383337 0.050447
vt 0.419706 0.080294
vt 0.449553 0.116663
vt 0.471731 0.158156
vt 0.485388 0.203178
vt 0.490000 0.250000
vt 0.485388 0.296822
vt 0.471731 0.341844
vt 0.449553 0.383337
vt 0.419706 0.419706
vt 0.383337 0.449553
vt 0.341844 0.471731
vt 0.031250 1.000000
vt 0.031250 0.875000
vt 0.000000 1.000000
vt 0.000000 0.875000
vt 0.031250 0.500000
vt 0.031250 0.625000
vt 0.000000 0.625000
vt 0.031250 0.750000
vt 0.000000 0.750000
vt 0.062500 0.500000
vt 0.062500 0.625000
vt 0.062500 0.750000
vt 0.093750 0.500000
vt 0.093750 0.625000
vt 0.093750 0.750000
vt 0.125000 0.500000
vt 0.125000 0.625000
vt 0.125000 0.750000
vt 0.156250 0.500000
vt 0.156250 0.625000
vt 0.156250 0.750000
vt 0.187500 0.500000
vt 0.187500 0.625000
vt 0.187500 0.750000
vt 0.218750 0.500000
vt 0.218750 0.625000
vt 0.218750 0.750000
vt 0.250000 0.500000
vt 0.250000 0.625000
vt 0.250000 0.750000
vt 0.281250 0.500000
vt 0.281250 0.625000
vt 0.281250 0.750000
vt 0.312500 0.500000
vt 0.312500 0.625000
vt 0.312500 0.750000
vt 0.343750 0.500000
vt 0.343750 0.625000
vt 0.343750 0.750000
vt 0.375000 0.500000
vt 0.375000 0.625000
vt 0.375000 0.750000
vt 0.406250 0.500000
vt 0.406250 0.625000
vt 0.406250 0.750000
vt 0.437500 0.500000
vt 0.437500 0.625000
vt 0.437500 0.750000
vt 0.468750 0.500000
vt 0.468750 0.625000
vt 0.468750 0.750000
vt 0.500000 0.500000
vt 0.500000 0.625000
vt 0.500000 0.750000
vt 0.531250 0.500000
vt 0.531250 0.625000
vt 0.531250 0.750000
vt 0.562500 0.500000
vt 0.562500 0.625000
vt 0.562500 0.750000
vt 0.593750 0.500000
vt 0.593750 0.625000
vt 0.593750 0.750000
vt 0.625000 0.500000
vt 0.625000 0.625000
vt 0.625000 0.750000
vt 0.656250 0.500000
vt 0.656250 0.625000
vt 0.656250 0.750000
vt 0.687500 0.500000
vt 0.687500 0.625000
vt 0.687500 0.750000
vt 0.718750 0.500000
vt 0.718750 0.625000
vt 0.718750 0.750000
vt 0.750000 0.500000
vt 0.750000 0.625000
vt 0.750000 0.750000
vt 0.781250 0.500000
vt 0.781250 0.625000
vt 0.781250 0.750000
vt 0.812500 0.500000
vt 0.812500 0.625000
vt 0.812500 0.750000
vt 0.843750 0.500000
vt 0.843750 0.625000
vt 0.843750 0.750000
vt 0.875000 0.500000
vt 0.875000 0.625000
vt 0.875000 0.750000
vt 0.906250 0.500000
vt 0.906250 0.625000
vt 0.906250 0.750000
vt 0.937500 0.500000
vt 0.937500 0.625000
vt 0.937500 0.750000
vt 0.968750 0.500000
vt 0.968750 0.625000
vt 0.968750 0.750000
vt 1.000000 0.500000
vt 1.000000 0.625000
vt 1.000000 0.750000
vn 0.0952 -0.2397 -0.9662
vn 0.2818 -0.2397 -0.9290
vn 0.4577 -0.2397 -0.8562
vn 0.6159 -0.2397 -0.7505
vn 0.7505 -0.2397 -0.6159
vn 0.8562 -0.2397 -0.4577
vn 0.9290 -0.2397 -0.2818
vn 0.9662 -0.2397 -0.0952
vn 0.9662 -0.2397 0.0952
vn 0.9290 -0.2397 0.2818
vn 0.8562 -0.2397 0.4577
vn 0.7505 -0.2397 0.6159
vn 0.6159 -0.2397 0.7505
vn 0.4577 -0.2397 0.8562
vn 0.2818 -0.2397 0.9290
vn 0.0952 -0.2397 0.9662
vn -0.0952 -0.2397 0.9662
vn -0.2818 -0.2397 0.9290
vn -0.4577 -0.2397 0.8562
vn -0.6159 -0.2397 0.7505
vn -0.7505 -0.2397 0.6159
vn -0.8562 -0.2397 0.4577
vn -0.9290 -0.2397 0.2818
vn -0.9662 -0.2397 0.0952
vn -0.9662 -0.2397 -0.0952
vn -0.9290 -0.2397 -0.2818
vn -0.8562 -0.2397 -0.4577
vn -0.7505 -0.2397 -0.6159
vn -0.6159 -0.2397 -0.7505
vn -0.4576 -0.2397 -0.8562
vn 0.0000 1.0000 0.0000
vn -0.2818 -0.2397 -0.9290
vn -0.0952 -0.2397 -0.9662
vn -0.0975 -0.1012 -0.9901
vn -0.0971 -0.1373 -0.9858
vn -0.0955 -0.2232 -0.9701
vn -0.2888 -0.1012 -0.9520
vn -0.2875 -0.1373 -0.9479
vn -0.2830 -0.2232 -0.9328
vn -0.4690 -0.1012 -0.8774
vn -0.4669 -0.1373 -0.8736
vn -0.4595 -0.2232 -0.8597
vn -0.6311 -0.1012 -0.7690
vn -0.6284 -0.1373 -0.7657
vn -0.6184 -0.2232 -0.7535
vn -0.7690 -0.1012 -0.6311
vn -0.7657 -0.1373 -0.6284
vn -0.7535 -0.2232 -0.6184
vn -0.8774 -0.1012 -0.4690
vn -0.8736 -0.1373 -0.4669
vn -0.8597 -0.2232 -0.4595
vn -0.9520 -0.1012 -0.2888
vn -0.9479 -0.1373 -0.2875
vn -0.9328 -0.2232 -0.2830
vn -0.9901 -0.1012 -0.0975
vn -0.9858 -0.1373 -0.0971
vn -0.9701 -0.2232 -0.0955
vn -0.9901 -0.1012 0.0975
vn -0.9858 -0.1373 0.0971
vn -0.9701 -0.2232 0.0955
vn -0.9520 -0.1012 0.2888
vn -0.9479 -0.1373 0.2875
vn -0.9328 -0.2232 0.2830
vn -0.8774 -0.1012 0.4690
vn -0.8736 -0.1373 0.4669
vn -0.8597 -0.2232 0.4595
vn -0.7690 -0.1012 0.6311
vn -0.7657 -0.1373 0.6284
vn -0.7535 -0.2232 0.6184
vn -0.6311 -0.1012 0.7690
vn -0.6284 -0.1373 0.7657
vn -0.6184 -0.2232 0.7535
vn -0.4690 -0.1012 0.8774
vn -0.4669 -0.1373 0.8736
vn -0.4595 -0.2232 0.8597
vn -0.2888 -0.1012 0.9520
vn -0.2875 -0.1373 0.9479
vn -0.2830 -0.2232 0.9328
vn -0.0975 -0.1012 0.9901
vn -0.0971 -0.1373 0.9858
vn -0.0955 -0.2232 0.9701
vn 0.0975 -0.1012 0.9901
vn 0.0971 -0.1373 0.9858
vn 0.0955 -0.2232 0.9701
vn 0.2888 -0.1012 0.9520
vn 0.2875 -0.1373 0.9479
vn 0.2830 -0.2232 0.9328
vn 0.4690 -0.1012 0.8774
vn 0.4669 -0.1373 0.8736
vn 0.4595 -0.2232 0.8597
vn 0.6311 -0.1012 0.7690
vn 0.6284 -0.1373 0.7657
vn 0.6184 -0.2232 0.7535
vn 0.7690 -0.1012 0.6311
vn 0.7657 -0.1373 0.6284
vn 0.7535 -0.2232 0.6184
vn 0.8774 -0.1012 0.4690
vn 0.8736 -0.1373 0.4669
vn 0.8597 -0.2232 0.4595
vn 0.9520 -0.1012 0.2888
vn 0.9479 -0.1373 0.2875
vn 0.9328 -0.2232 0.2830
vn 0.9901 -0.1012 0.0975
vn 0.9858 -0.1373 0.0971
vn 0.9701 -0.2232 0.0955
vn 0.9901 -0.1012 -0.0975
vn 0.9858 -0.1373 -0.0971
vn 0.9701 -0.2232 -0.0955
vn 0.9520 -0.1012 -0.2888
vn 0.9479 -0.1373 -0.2875
vn 0.9328 -0.2232 -0.2830
vn 0.8774 -0.1012 -0.4690
vn 0.8736 -0.1373 -0.4669
vn 0.8597 -0.2232 -0.4595
vn 0.7690 -0.1012 -0.6311
vn 0.7657 -0.1373 -0.6284
vn 0.7535 -0.2232 -0.6184
vn 0.6311 -0.1012 -0.7690
vn 0.6284 -0.1373 -0.7657
vn 0.6184 -0.2232 -0.7535
vn 0.4690 -0.1012 -0.8774
vn 0.4669 -0.1373 -0.8736
vn 0.4595 -0.2232 -0.8597
vn 0.2888 -0.1012 -0.9520
vn 0.2875 -0.1373 -0.9479
vn 0.2830 -0.2232 -0.9328
vn 0.0975 -0.1012 -0.9901
vn 0.0971 -0.1373 -0.9858
vn 0.0955 -0.2232 -0.9701
g Cylinder_Cylinder_Material
usemtl Material
s off
f 36/1/1 2/2/1 3/3/1 37/4/1
f 37/4/2 3/3/2 4/5/2 40/6/2
f 40/6/3 4/5/3 5/7/3 43/8/3
f 43/8/4 5/7/4 6/9/4 46/10/4
f 46/10/5 6/9/5 7/11/5 49/12/5
f 49/12/6 7/11/6 8/13/6 52/14/6
f 52/14/7 8/13/7 9/15/7 55/16/7
f 55/16/8 9/15/8 10/17/8 58/18/8
f 58/18/9 10/17/9 11/19/9 61/20/9
f 61/20/10 11/19/10 12/21/10 64/22/10
f 64/22/11 12/21/11 13/23/11 67/24/11
f 67/24/12 13/23/12 14/25/12 70/26/12
f 70/26/13 14/25/13 15/27/13 73/28/13
f 73/28/14 15/27/14 16/29/14 76/30/14
f 76/30/15 16/29/15 17/31/15 79/32/15
f 79/32/16 17/31/16 18/33/16 82/34/16
f 82/34/17 18/33/17 19/35/17 85/36/17
f 85/36/18 19/35/18 20/37/18 88/38/18
f 88/38/19 20/37/19 21/39/19 91/40/19
f 91/40/20 21/39/20 22/41/20 94/42/20
f 94/42/21 22/41/21 23/43/21 97/44/21
f 97/44/22 23/43/22 24/45/22 100/46/22
f 100/46/23 24/45/23 25/47/23 103/48/23
f 103/48/24 25/47/24 26/49/24 106/50/24
f 106/50/25 26/49/25 27/51/25 109/52/25
f 109/52/26 27/51/26 28/53/26 112/54/26
f 112/54/27 28/53/27 29/55/27 115/56/27
f 115/56/28 29/55/28 30/57/28 118/58/28
f 118/58/29 30/57/29 31/59/29 121/60/29
f 121/60/30 31/59/30 32/61/30 124/62/30
f 3/63/31 2/64/31 33/65/31 32/66/31 31/67/31 30/68/31 29/69/31 28/70/31 27/71/31 26/72/31 25/73/31 24/74/31 23/75/31 22/76/31 21/77/31 20/78/31 19/79/31 18/80/31 17/81/31 16/82/31 15/83/31 14/84/31 13/85/31 12/86/31 11/87/31 10/88/31 9/89/31 8/90/31 7/91/31 6/92/31 5/93/31 4/94/31
f 124/62/32 32/61/32 33/95/32 127/96/32
f 127/96/33 33/95/33 2/97/33 36/98/33
f 1/99/34 129/100/34 34/101/34
f 129/100/35 128/102/35 35/103/35 34/101/35
f 128/102/36 127/96/36 36/98/36 35/103/36
f 1/104/37 126/105/37 129/100/37
f 126/105/38 125/106/38 128/102/38 129/100/38
f 125/106/39 124/62/39 127/96/39 128/102/39
f 1/107/40 123/108/40 126/105/40
f 123/108/41 122/109/41 125/106/41 126/105/41
f 122/109/42 121/60/42 124/62/42 125/106/42
f 1/110/43 120/111/43 123/108/43
f 120/111/44 119/112/44 122/109/44 123/108/44
f 119/112/45 118/58/45 121/60/45 122/109/45
f 1/113/46 117/114/46 120/111/46
f 117/114/47 116/115/47 119/112/47 120/111/47
f 116/115/48 115/56/48 118/58/48 119/112/48
f 1/116/49 114/117/49 117/114/49
f 114/117/50 113/118/50 116/115/50 117/114/50
f 113/118/51 112/54/51 115/56/51 116/115/51
f 1/119/52 111/120/52 114/117/52
f 111/120/53 110/121/53 113/118/53 114/117/53
f 110/121/54 109/52/54 112/54/54 113/118/54
f 1/122/55 108/123/55 111/120/55
f 108/123/56 107/124/56 110/121/56 111/120/56
f 107/124/57 106/50/57 109/52/57 110/121/57
f 1/125/58 105/126/58 108/123/58
f 105/126/59 104/127/59 107/124/59 108/123/59
f 104/127/60 103/48/60 106/50/60 107/124/60
f 1/128/61 102/129/61 105/126/61
f 102/129/62 101/130/62 104/127/62 105/126/62
f 101/130/63 100/46/63 103/48/63 104/127/63
f 1/131/64 99/132/64 102/129/64
f 99/132/65 98/133/65 101/130/65 102/129/65
f 98/133/66 97/44/66 100/46/66 101/130/66
f 1/134/67 96/135/67 99/132/67
f 96/135/68 95/136/68 98/133/68 99/132/68
f 95/136/69 94/42/69 97/44/69 98/133/69
f 1/137/70 93/138/70 96/135/70
f 93/138/71 92/139/71 95/136/71 96/135/71
f 92/139/72 91/40/72 94/42/72 95/136/72
f 1/140/73 90/141/73 93/138/73
f 90/141/74 89/142/74 92/139/74 93/138/74
f 89/142/75 88/38/75 91/40/75 92/139/75
f 1/143/76 87/144/76 90/141/76
f 87/144/77 86/145/77 89/142/77 90/141/77
f 86/145/78 85/36/78 88/38/78 89/142/78
f 1/146/79 84/147/79 87/144/79
f 84/147/80 83/148/80 86/145/80 87/144/80
f 83/148/81 82/34/81 85/36/81 86/145/81
f 1/149/82 81/150/82 84/147/82
f 81/150/83 80/151/83 83/148/83 84/147/83
f 80/151/84 79/32/84 82/34/84 83/148/84
f 1/152/85 78/153/85 81/150/85
f 78/153/86 77/154/86 80/151/86 81/150/86
f 77/154/87 76/30/87 79/32/87 80/151/87
f 1/155/88 75/156/88 78/153/88
f 75/156/89 74/157/89 77/154/89 78/153/89
f 74/157/90 73/28/90 76/30/90 77/154/90
f 1/158/91 72/159/91 75/156/91
f 72/159/92 71/160/92 74/157/92 75/156/92
f 71/160/93 70/26/93 73/28/93 74/157/93
f 1/161/94 69/162/94 72/159/94
f 69/162/95 68/163/95 71/160/95 72/159/95
f 68/163/96 67/24/96 70/26/96 71/160/96
f 1/164/97 66/165/97 69/162/97
f 66/165/98 65/166/98 68/163/98 69/162/98
f 65/166/99 64/22/99 67/24/99 68/163/99
f 1/167/100 63/168/100 66/165/100
f 63/168/101 62/169/101 65/166/101 66/165/101
f 62/169/102 61/20/102 64/22/102 65/166/102
f 1/170/103 60/171/103 63/168/103
f 60/171/104 59/172/104 62/169/104 63/168/104
f 59/172/105 58/18/105 61/20/105 62/169/105
f 1/173/106 57/174/106 60/171/106
f 57/174/107 56/175/107 59/172/107 60/171/107
f 56/175/108 55/16/108 58/18/108 59/172/108
f 1/176/109 54/177/109 57/174/109
f 54/177/110 53/178/110 56/175/110 57/174/110
f 53/178/111 52/14/111 55/16/111 56/175/111
f 1/179/112 51/180/112 54/177/112
f 51/180/113 50/181/113 53/178/113 54/177/113
f 50/181/114 49/12/114 52/14/114 53/178/114
f 1/182/115 48/183/115 51/180/115
f 48/183/116 47/184/116 50/181/116 51/180/116
f 47/184/117 46/10/117 49/12/117 50/181/117
f 1/185/118 45/186/118 48/183/118
f 45/186/119 44/187/119 47/184/119 48/183/119
f 44/187/120 43/8/120 46/10/120 47/184/120
f 1/188/121 42/189/121 45/186/121
f 42/189/122 41/190/122 44/187/122 45/186/122
f 41/190/123 40/6/123 43/8/123 44/187/123
f 1/191/124 39/192/124 42/189/124
f 39/192/125 38/193/125 41/190/125 42/189/125
f 38/193/126 37/4/126 40/6/126 41/190/126
f 1/194/127 34/195/127 39/192/127
f 34/195/128 35/196/128 38/193/128 39/192/128
f 35/196/129 36/1/129 37/4/129 38/193/129
