# Blender v2.80 (sub 75) OBJ File: 'tent.blend'
# www.blender.org
mtllib tent.mtl
o Cylinder_Cylinder.001
v -0.140719 -0.027651 -0.131076
v -0.140719 4.986253 -0.131076
v -0.027204 -0.027651 -0.065538
v -0.027204 4.986253 -0.065538
v -0.027204 -0.027651 0.065538
v -0.027204 4.986253 0.065538
v -0.140719 -0.027651 0.131076
v -0.140719 4.986253 0.131076
v -0.254234 -0.027651 0.065538
v -0.254234 4.986253 0.065538
v -0.254234 -0.027651 -0.065538
v -0.254234 4.986253 -0.065538
v -8.248335 0.000000 -2.805929
v -0.035877 0.000000 -2.805929
v -5.469693 1.761338 -1.856557
v -0.035877 1.761338 -1.856557
v -4.142106 0.000000 -3.538660
v -2.752785 1.761338 -2.589289
v -8.248335 0.000000 2.805929
v -0.035877 0.000000 2.805929
v -10.098210 0.000000 0.000000
v -0.035877 5.205748 0.000000
v -5.469693 1.761338 1.856557
v -0.035877 1.761338 1.856557
v -6.424829 1.761338 0.000000
v -0.035877 0.000000 0.000000
v -4.142106 0.000000 3.538660
v -2.752785 1.761338 2.589289
v 0.060081 1.779139 -1.906225
v 0.060081 -0.029319 -2.880994
v -4.156000 -0.029319 -3.633328
v -8.372081 -0.029319 -2.880994
v -10.271444 -0.029319 -0.000000
v -6.499791 1.779139 -0.000000
v -5.519103 1.779139 -1.906225
v 0.060081 5.315696 -0.000000
v -2.729511 1.779139 -2.658559
v 0.060081 -0.029319 -0.000000
v 0.060081 1.779139 1.906225
v 0.060081 -0.029319 2.880994
v -4.156000 -0.029319 3.633328
v -8.372081 -0.029319 2.880994
v -5.519103 1.779139 1.906225
v -2.729511 1.779139 2.658559
vt 0.849906 0.231493
vt 0.908640 0.231493
vt 0.908639 0.261703
vt 0.849906 0.261703
vt 0.908639 0.291913
vt 0.849906 0.291913
vt 0.908639 0.322123
vt 0.849905 0.322123
vt 0.908639 0.352332
vt 0.849905 0.352332
vt 0.934802 0.216387
vt 0.960964 0.231493
vt 0.960964 0.261703
vt 0.934802 0.276807
vt 0.908639 0.382543
vt 0.849905 0.382543
vt 0.908639 0.412753
vt 0.849905 0.412752
vt 0.823743 0.276807
vt 0.797581 0.261702
vt 0.797580 0.231493
vt 0.823743 0.216387
vt 0.740413 0.764995
vt 0.639993 0.461832
vt 0.562479 0.411228
vt 0.529356 0.488411
vt 0.593924 0.343354
vt 0.518779 0.134333
vt 0.451096 0.151897
vt 0.539778 0.297637
vt 0.317378 0.210620
vt 0.740413 0.072026
vt 0.446167 0.499984
vt 0.474513 0.588107
vt 0.372400 0.512396
vt 0.342598 0.448102
vt 0.225439 0.324093
vt 0.190630 0.384738
vt 0.072026 0.582062
vt 0.740413 0.764995
vt 0.529356 0.488411
vt 0.562479 0.411228
vt 0.639993 0.461832
vt 0.593924 0.343354
vt 0.539778 0.297637
vt 0.451096 0.151897
vt 0.518779 0.134333
vt 0.317378 0.210620
vt 0.740413 0.072026
vt 0.474513 0.588107
vt 0.446167 0.499984
vt 0.372400 0.512396
vt 0.190630 0.384738
vt 0.225439 0.324093
vt 0.342598 0.448102
vt 0.072026 0.582062
vn 0.5000 0.0000 -0.8660
vn 1.0000 0.0000 0.0000
vn 0.5000 0.0000 0.8660
vn -0.5000 0.0000 0.8660
vn 0.0000 1.0000 0.0000
vn -1.0000 0.0000 0.0000
vn -0.5000 0.0000 -0.8660
vn 0.0000 -1.0000 0.0000
vn 0.4329 -0.8630 0.2604
vn -0.1919 -0.4059 0.8935
vn 0.4610 -0.8551 0.2372
vn -0.2310 -0.4616 0.8565
vn 0.1659 -0.6128 0.7726
vn 0.1906 -0.6815 0.7066
vn 0.4329 -0.8630 -0.2604
vn -0.1919 -0.4059 -0.8935
vn 0.4610 -0.8551 -0.2372
vn -0.2310 -0.4616 -0.8565
vn 0.1659 -0.6128 -0.7726
vn 0.1906 -0.6815 -0.7066
vn -0.4329 0.8630 -0.2604
vn 0.1919 0.4059 -0.8935
vn -0.4610 0.8551 -0.2372
vn 0.2310 0.4616 -0.8565
vn -0.1659 0.6128 -0.7726
vn -0.1906 0.6815 -0.7066
vn -0.4329 0.8630 0.2604
vn 0.1919 0.4059 0.8935
vn -0.4610 0.8551 0.2372
vn 0.2310 0.4616 0.8565
vn -0.1659 0.6128 0.7726
vn -0.1906 0.6815 0.7066
vn 0.4776 -0.4169 -0.7734
vn 0.2922 0.9564 0.0000
vn 0.4776 -0.4169 0.7734
usemtl Material.001
s off
f 1/1/1 2/2/1 4/3/1 3/4/1
f 3/4/2 4/3/2 6/5/2 5/6/2
f 5/6/3 6/5/3 8/7/3 7/8/3
f 7/8/4 8/7/4 10/9/4 9/10/4
f 4/3/5 2/2/5 12/11/5 10/12/5 8/13/5 6/14/5
f 9/10/6 10/9/6 12/15/6 11/16/6
f 11/16/7 12/15/7 2/17/7 1/18/7
f 1/1/8 3/4/8 5/19/8 7/20/8 9/21/8 11/22/8
f 21/23/9 13/24/9 15/25/9 25/26/9
f 17/27/10 14/28/10 16/29/10 18/30/10
f 15/25/11 22/31/11 25/26/11
f 16/29/12 22/31/12 18/30/12
f 26/32/5 13/24/5 21/23/5
f 13/24/13 17/27/13 18/30/13 15/25/13
f 13/24/5 26/32/5 17/27/5
f 26/32/5 14/28/5 17/27/5
f 22/31/14 15/25/14 18/30/14
f 21/23/15 25/26/15 23/33/15 19/34/15
f 27/35/16 28/36/16 24/37/16 20/38/16
f 23/33/17 25/26/17 22/31/17
f 24/37/18 28/36/18 22/31/18
f 26/39/5 21/23/5 19/34/5
f 19/34/19 23/33/19 28/36/19 27/35/19
f 19/34/5 27/35/5 26/39/5
f 26/39/5 27/35/5 20/38/5
f 22/31/20 28/36/20 23/33/20
f 33/40/21 34/41/21 35/42/21 32/43/21
f 31/44/22 37/45/22 29/46/22 30/47/22
f 35/42/23 34/41/23 36/48/23
f 29/46/24 37/45/24 36/48/24
f 38/49/8 33/40/8 32/43/8
f 32/43/25 35/42/25 37/45/25 31/44/25
f 32/43/8 31/44/8 38/49/8
f 38/49/8 31/44/8 30/47/8
f 36/48/26 37/45/26 35/42/26
f 33/40/27 42/50/27 43/51/27 34/41/27
f 41/52/28 40/53/28 39/54/28 44/55/28
f 43/51/29 36/48/29 34/41/29
f 39/54/30 36/48/30 44/55/30
f 38/56/8 42/50/8 33/40/8
f 42/50/31 41/52/31 44/55/31 43/51/31
f 42/50/8 38/56/8 41/52/8
f 38/56/8 40/53/8 41/52/8
f 36/48/32 43/51/32 44/55/32
f 20/38/33 24/37/33 39/54/33 40/53/33
f 24/37/33 22/31/33 36/48/33 39/54/33
f 14/28/34 26/32/34 38/49/34 30/47/34
f 22/31/35 16/29/35 29/46/35 36/48/35
f 26/39/34 20/38/34 40/53/34 38/56/34
f 16/29/35 14/28/35 30/47/35 29/46/35
