# Blender v2.80 (sub 75) OBJ File: 'wall ruin.blend'
# www.blender.org
mtllib wall ruin.mtl
o Cube
v -7.194444 10.516579 -1.000000
v -7.194444 0.355592 -1.000000
v -7.194444 10.516579 1.000000
v -7.194444 0.355592 1.000000
v -7.194444 7.112132 1.000000
v -7.194444 7.112132 -1.000000
v -7.194444 4.385758 -1.000000
v -7.194444 4.385758 1.000000
v -7.194444 2.370676 -1.000000
v -7.194444 2.370675 1.000000
v -10.579348 0.355592 -1.000000
v -10.579348 0.355592 1.000000
v -10.579348 2.370676 -1.000000
v -10.579348 4.385758 1.000000
v -10.579348 7.112132 1.000000
v -10.579348 7.112132 -1.000000
v -10.579348 4.385758 -1.000000
v -10.579348 2.370675 1.000000
v -13.615129 0.355592 -1.000000
v -13.615129 0.355592 1.000000
v -13.615129 2.370676 -1.000000
v -13.615129 2.370675 1.000000
v -13.615129 4.385758 1.000000
v -13.615129 4.385758 -1.000000
v -16.601458 0.355592 -1.000000
v -16.601458 0.355592 1.000000
v -16.601458 2.370676 -1.000000
v -16.601458 2.370675 1.000000
v 7.194444 10.516579 -1.000000
v 7.194444 0.355592 -1.000000
v 7.194444 10.516579 1.000000
v 7.194444 0.355592 1.000000
v 7.194444 7.112132 1.000000
v 7.194444 7.112132 -1.000000
v 7.194444 4.385758 -1.000000
v 7.194444 4.385758 1.000000
v 7.194444 2.370676 -1.000000
v 7.194444 2.370675 1.000000
v 0.000000 0.355592 -1.000000
v 0.000000 10.516579 1.000000
v 0.000000 0.355592 1.000000
v 0.000000 10.516579 -1.000000
v 0.000000 7.112132 -1.000000
v 0.000000 7.112132 1.000000
v 0.000000 4.385758 1.000000
v 0.000000 4.385758 -1.000000
v 0.000000 2.370676 -1.000000
v 0.000000 2.370676 1.000000
v 10.579348 0.355592 -1.000000
v 10.579348 0.355592 1.000000
v 10.579348 2.370676 -1.000000
v 10.579348 4.385758 1.000000
v 10.579348 7.112132 1.000000
v 10.579348 7.112132 -1.000000
v 10.579348 4.385758 -1.000000
v 10.579348 2.370675 1.000000
v 13.615129 0.355592 -1.000000
v 13.615129 0.355592 1.000000
v 13.615129 2.370676 -1.000000
v 13.615129 2.370675 1.000000
v 13.615129 4.385758 1.000000
v 13.615129 4.385758 -1.000000
v 16.601458 0.355592 -1.000000
v 16.601458 0.355592 1.000000
v 16.601458 2.370676 -1.000000
v 16.601458 2.370675 1.000000
vt 0.345119 0.574973
vt 0.277467 0.574973
vt 0.277467 0.439668
vt 0.345120 0.439668
vt 0.792646 0.349697
vt 0.792646 0.304363
vt 0.860299 0.304363
vt 0.860299 0.349697
vt 0.232133 0.439668
vt 0.232133 0.574973
vt 0.860299 0.628640
vt 0.860299 0.601806
vt 0.892129 0.601806
vt 0.892129 0.628640
vt 0.792646 0.386002
vt 0.860299 0.386002
vt 0.792646 0.412835
vt 0.860299 0.412835
vt 0.860299 0.574973
vt 0.860299 0.439668
vt 0.892129 0.439668
vt 0.892129 0.574973
vt 0.892129 0.386002
vt 0.892129 0.412835
vt 0.792646 0.439668
vt 0.792646 0.601806
vt 0.792646 0.574973
vt 0.792646 0.628640
vt 0.860299 0.664944
vt 0.792646 0.664944
vt 0.860299 0.710278
vt 0.792646 0.710278
vt 0.163998 0.439668
vt 0.200303 0.439668
vt 0.200303 0.574973
vt 0.163998 0.574973
vt 0.920675 0.601807
vt 0.920675 0.628640
vt 0.920675 0.439668
vt 0.920675 0.574973
vt 0.892129 0.664944
vt 0.892129 0.349697
vt 0.108619 0.439668
vt 0.135452 0.439668
vt 0.135452 0.574973
vt 0.108619 0.574973
vt 0.080537 0.574973
vt 0.080537 0.439668
vt 0.920675 0.386002
vt 0.920675 0.412835
vt 0.053704 0.439668
vt 0.053704 0.574973
vt 0.948757 0.439668
vt 0.948757 0.574973
vt 0.948757 0.412835
vt 0.948757 0.601806
vt 0.412772 0.439668
vt 0.412772 0.574973
vt 0.724994 0.349697
vt 0.724994 0.304363
vt 0.458106 0.439668
vt 0.458106 0.574973
vt 0.724994 0.628640
vt 0.693164 0.628640
vt 0.693164 0.601806
vt 0.724994 0.601806
vt 0.724994 0.386002
vt 0.724994 0.412835
vt 0.724994 0.574973
vt 0.693164 0.574973
vt 0.693164 0.439668
vt 0.724994 0.439668
vt 0.693164 0.412835
vt 0.693164 0.386002
vt 0.724994 0.664944
vt 0.724994 0.710278
vt 0.526241 0.439668
vt 0.526241 0.574973
vt 0.489936 0.574973
vt 0.489936 0.439668
vt 0.664617 0.628640
vt 0.664617 0.601806
vt 0.664617 0.574973
vt 0.664617 0.439668
vt 0.693164 0.664944
vt 0.693164 0.349697
vt 0.581621 0.439668
vt 0.581620 0.574973
vt 0.554787 0.574973
vt 0.554787 0.439668
vt 0.609702 0.439668
vt 0.609702 0.574973
vt 0.664617 0.412835
vt 0.664617 0.386002
vt 0.636535 0.439668
vt 0.636535 0.574973
vt 0.636535 0.412835
vt 0.636535 0.601806
vn 0.0000 1.0000 0.0000
vn 0.0000 0.0000 1.0000
vn -1.0000 0.0000 0.0000
vn 0.0000 0.0000 -1.0000
vn 0.0000 -1.0000 0.0000
vn 1.0000 0.0000 0.0000
g Cube_Cube_Material.001
usemtl Material.001
s off
f 42/1/1 1/2/1 3/3/1 40/4/1
f 44/5/2 40/6/2 3/7/2 5/8/2
f 5/9/3 3/3/3 1/2/3 6/10/3
f 7/11/4 9/12/4 13/13/4 17/14/4
f 45/15/2 44/5/2 5/8/2 8/16/2
f 48/17/2 45/15/2 8/16/2 10/18/2
f 2/19/5 4/20/5 12/21/5 11/22/5
f 10/18/2 8/16/2 14/23/2 18/24/2
f 41/25/2 48/17/2 10/18/2 4/20/2
f 2/19/4 9/12/4 47/26/4 39/27/4
f 9/12/4 7/11/4 46/28/4 47/26/4
f 7/11/4 6/29/4 43/30/4 46/28/4
f 6/29/4 1/31/4 42/32/4 43/30/4
f 2/19/5 39/27/5 41/25/5 4/20/5
f 14/33/3 15/34/3 16/35/3 17/36/3
f 17/14/4 13/13/4 21/37/4 24/38/4
f 11/22/5 12/21/5 20/39/5 19/40/5
f 9/12/4 2/19/4 11/22/4 13/13/4
f 6/29/4 7/11/4 17/14/4 16/41/4
f 5/9/1 6/10/1 16/35/1 15/34/1
f 8/16/2 5/8/2 15/42/2 14/23/2
f 4/20/2 10/18/2 18/24/2 12/21/2
f 22/43/3 23/44/3 24/45/3 21/46/3
f 22/43/1 21/46/1 27/47/1 28/48/1
f 18/24/2 14/23/2 23/49/2 22/50/2
f 13/13/4 11/22/4 19/40/4 21/37/4
f 12/21/2 18/24/2 22/50/2 20/39/2
f 14/33/1 17/36/1 24/45/1 23/44/1
f 26/51/3 28/48/3 27/47/3 25/52/3
f 19/40/5 20/39/5 26/53/5 25/54/5
f 20/39/2 22/50/2 28/55/2 26/53/2
f 21/37/4 19/40/4 25/54/4 27/56/4
f 42/1/1 40/4/1 31/57/1 29/58/1
f 44/5/2 33/59/2 31/60/2 40/6/2
f 33/61/6 34/62/6 29/58/6 31/57/6
f 35/63/4 55/64/4 51/65/4 37/66/4
f 45/15/2 36/67/2 33/59/2 44/5/2
f 48/17/2 38/68/2 36/67/2 45/15/2
f 30/69/5 49/70/5 50/71/5 32/72/5
f 38/68/2 56/73/2 52/74/2 36/67/2
f 41/25/2 32/72/2 38/68/2 48/17/2
f 30/69/4 39/27/4 47/26/4 37/66/4
f 37/66/4 47/26/4 46/28/4 35/63/4
f 35/63/4 46/28/4 43/30/4 34/75/4
f 34/75/4 43/30/4 42/32/4 29/76/4
f 30/69/5 32/72/5 41/25/5 39/27/5
f 52/77/6 55/78/6 54/79/6 53/80/6
f 55/64/4 62/81/4 59/82/4 51/65/4
f 49/70/5 57/83/5 58/84/5 50/71/5
f 37/66/4 51/65/4 49/70/4 30/69/4
f 34/75/4 54/85/4 55/64/4 35/63/4
f 33/61/1 53/80/1 54/79/1 34/62/1
f 36/67/2 52/74/2 53/86/2 33/59/2
f 32/72/2 50/71/2 56/73/2 38/68/2
f 60/87/6 59/88/6 62/89/6 61/90/6
f 60/87/1 66/91/1 65/92/1 59/88/1
f 56/73/2 60/93/2 61/94/2 52/74/2
f 51/65/4 59/82/4 57/83/4 49/70/4
f 50/71/2 58/84/2 60/93/2 56/73/2
f 52/77/1 61/90/1 62/89/1 55/78/1
f 64/95/6 63/96/6 65/92/6 66/91/6
f 57/83/5 63/96/5 64/95/5 58/84/5
f 58/84/2 64/95/2 66/97/2 60/93/2
f 59/82/4 65/98/4 63/96/4 57/83/4
