# Blender v2.83.0 OBJ File: 'western bank.blend'
# www.blender.org
mtllib western bank.mtl
o Cube
v 7.464894 6.666614 -3.337311
v 7.464894 -0.008007 -3.337311
v 7.464894 6.666614 3.337311
v 7.464894 -0.008007 3.337311
v -7.464894 6.666614 -3.337311
v -7.464894 -0.008007 -3.337311
v -7.464894 6.666614 3.337311
v -7.464894 -0.008007 3.337311
v 0.970436 -0.008007 -3.337311
v 0.970436 6.666614 3.337311
v 0.970436 -0.008007 3.337311
v 0.970436 6.666614 -3.337311
v -0.969690 -0.008007 -3.337311
v -0.969690 6.666614 3.337311
v -0.969690 -0.008007 3.337311
v -0.969690 6.666614 -3.337311
v 7.464894 3.976183 -3.337311
v -7.464894 3.976183 3.337311
v 7.464894 3.976183 3.337311
v -7.464894 3.976183 -3.337311
v 0.970436 3.976183 -3.337311
v 0.970436 3.976183 3.337311
v -0.969690 3.976183 -3.337311
v -0.969690 3.976183 3.337311
v 7.249401 6.570274 -3.240971
v 7.249401 -0.031096 -3.240971
v 7.249401 6.570274 3.240971
v 7.249401 -0.031096 3.240971
v -7.249401 6.570274 -3.240971
v -7.249401 -0.031096 -3.240971
v -7.249401 6.570274 3.240971
v -7.249401 -0.031096 3.240971
v 0.970436 -0.009448 -3.219323
v 0.970436 6.548626 3.219323
v 0.970436 -0.009448 3.219323
v 0.970436 6.548626 -3.219323
v -0.969690 -0.009448 -3.219323
v -0.969690 6.548626 3.219323
v -0.969690 -0.009448 3.219323
v -0.969690 6.548626 -3.219323
v 7.200979 3.976183 -3.219323
v -7.200979 3.976183 3.219323
v 7.200979 3.976183 3.219323
v -7.200979 3.976183 -3.219323
v 0.970436 3.976183 -3.170445
v 0.970436 3.976183 3.170445
v -0.969690 3.976183 -3.170445
v -0.969690 3.976183 3.170445
v -7.464894 -0.008007 3.044557
v 7.185673 6.791444 3.044557
v -7.185673 6.791444 3.044557
v 7.464894 -0.008007 3.044557
v 0.970436 6.791444 3.044557
v -0.969690 6.791444 3.044557
v 7.464894 3.976183 3.044557
v -7.464894 3.976183 3.044557
v -7.464894 6.666614 2.701349
v 7.464894 -0.008007 2.701349
v -7.464894 3.976183 2.701349
v -7.464894 -0.008007 2.701349
v 7.464894 6.666614 2.701349
v 0.970436 6.666614 2.701349
v -0.969690 6.666614 2.701349
v 7.464894 3.976183 2.701349
v 7.464894 10.185679 2.701349
v 7.185673 10.060848 3.044557
v 0.970436 10.185679 2.701349
v 0.970436 10.060848 3.044557
v -0.969690 10.185679 2.701349
v -0.969690 10.060848 3.044557
v -7.185673 10.060848 3.044557
v -7.464894 10.185679 2.701349
v -0.969690 6.666614 3.044557
v 0.970436 6.666614 3.044557
v 7.464894 6.666614 3.044557
v -7.464894 6.666614 3.044557
v -0.969690 10.185679 3.044557
v 0.970436 10.185679 3.044557
v 7.464894 10.185679 3.044557
v -7.464894 10.185679 3.044557
v 0.970436 6.791444 2.955652
v 0.970436 10.060848 2.955652
v -0.969690 10.060848 2.955652
v -0.969690 6.791444 2.955652
v 7.185673 6.791444 2.955652
v -7.185673 6.791444 2.955652
v 7.185673 10.060848 2.955652
v -7.185673 10.060848 2.955652
v -7.464894 -0.292382 3.044557
v -7.464894 -0.292382 3.337311
v -0.969690 -0.292382 -3.337311
v -7.464894 -0.292382 -3.337311
v 0.970436 -0.292382 3.337311
v 7.464894 -0.292382 3.337311
v 7.464894 -0.292382 2.701349
v 7.464894 -0.292382 -3.337311
v 0.970436 -0.292382 -3.337311
v -0.969690 -0.292382 3.337311
v 0.970436 -0.292382 3.044557
v -0.969690 -0.292382 3.044557
v -7.464894 -0.292382 2.701349
v 7.464894 -0.292382 3.044557
v 0.970436 -0.292382 2.701349
v -0.969690 -0.292382 2.701349
v 0.970436 -0.008007 6.738400
v 7.464894 -0.008007 6.738400
v -0.969690 -0.008007 6.738400
v -7.464894 -0.008007 6.738400
v 0.970436 -0.292382 6.738400
v -0.969690 -0.292382 6.738400
v -7.464894 -0.292382 6.738400
v 7.464894 -0.292382 6.738400
vt 0.305985 0.583925
vt 0.387490 0.583925
vt 0.387490 0.592142
vt 0.305985 0.592142
vt 0.305985 0.667659
vt 0.387490 0.667659
vt 0.405341 0.667659
vt 0.405341 0.592142
vt 0.574839 0.592142
vt 0.574839 0.667659
vt 0.703873 0.583925
vt 0.703873 0.591907
vt 0.608409 0.591907
vt 0.608409 0.583925
vt 0.191925 0.667659
vt 0.191925 0.592142
vt 0.200142 0.592142
vt 0.200142 0.667659
vt 0.855161 0.415420
vt 0.855161 0.490937
vt 0.773665 0.490937
vt 0.773665 0.415420
vt 0.879507 0.415420
vt 0.879507 0.490937
vt 0.961013 0.303588
vt 0.879507 0.303588
vt 0.879507 0.295606
vt 0.961013 0.295606
vt 0.281639 0.592142
vt 0.281639 0.667659
vt 0.200142 0.583925
vt 0.281639 0.583925
vt 0.012794 0.779490
vt 0.182292 0.779490
vt 0.182292 0.787472
vt 0.012794 0.787472
vt 0.961013 0.415420
vt 0.961013 0.490937
vt 0.200142 0.779490
vt 0.281639 0.779490
vt 0.855161 0.303588
vt 0.773665 0.303588
vt 0.191925 0.779490
vt 0.405341 0.779490
vt 0.574839 0.779490
vt 0.305985 0.779490
vt 0.387490 0.779490
vt 0.379182 0.297503
vt 0.560888 0.297503
vt 0.560878 0.376500
vt 0.379073 0.376350
vt 0.633187 0.297494
vt 0.633758 0.375817
vt 0.636057 0.556764
vt 0.563291 0.558337
vt 0.194573 0.272908
vt 0.013517 0.273024
vt 0.012794 0.194276
vt 0.194628 0.194009
vt 0.635834 0.014273
vt 0.633875 0.195005
vt 0.561029 0.194248
vt 0.563411 0.012794
vt 0.306766 0.273034
vt 0.306729 0.195016
vt 0.379229 0.194091
vt 0.379194 0.273067
vt 0.306745 0.297382
vt 0.194568 0.297328
vt 0.013528 0.297337
vt 0.633206 0.273219
vt 0.560896 0.273076
vt 0.194524 0.376275
vt 0.012850 0.375916
vt 0.306610 0.375366
vt 0.746323 0.196296
vt 0.744588 0.274634
vt 0.748077 0.014751
vt 0.746396 0.374691
vt 0.748077 0.556170
vt 0.744758 0.296214
vt 0.729616 0.695803
vt 0.729732 0.583925
vt 0.734415 0.583987
vt 0.732928 0.695806
vt 0.729731 0.856374
vt 0.729461 0.832030
vt 0.734144 0.831978
vt 0.734415 0.856322
vt 0.729589 0.720149
vt 0.732901 0.720152
vt 0.395708 0.667659
vt 0.395708 0.779490
vt 0.182292 0.667659
vt 0.898029 0.800125
vt 0.975343 0.809787
vt 0.973398 0.811843
vt 0.897881 0.802609
vt 0.191925 0.787472
vt 0.781660 0.887496
vt 0.773664 0.885704
vt 0.792033 0.803721
vt 0.800029 0.805513
vt 0.855161 0.108258
vt 0.773665 0.108258
vt 0.773664 0.012794
vt 0.855161 0.012794
vt 0.182292 0.592142
vt 0.405341 0.787472
vt 0.395708 0.787472
vt 0.395708 0.592142
vt 0.787639 0.694259
vt 0.871899 0.686586
vt 0.873172 0.786946
vt 0.796939 0.796385
vt 0.961013 0.660434
vt 0.879507 0.660434
vt 0.387490 0.787472
vt 0.012794 0.667659
vt 0.012794 0.592142
vt 0.200142 0.787472
vt 0.855161 0.660434
vt 0.773664 0.660434
vt 0.855161 0.295606
vt 0.898577 0.786904
vt 0.898218 0.796613
vt 0.873439 0.796300
vt 0.798146 0.805518
vt 0.980549 0.796895
vt 0.979309 0.806708
vt 0.897551 0.686022
vt 0.986742 0.688869
vt 0.975189 0.892892
vt 0.972346 0.890745
vt 0.987206 0.895817
vt 0.978507 0.895816
vt 0.978507 0.806623
vt 0.987206 0.806623
vt 0.896312 0.907217
vt 0.869379 0.906418
vt 0.869650 0.903944
vt 0.896077 0.904164
vt 0.896489 0.910578
vt 0.868982 0.909944
vt 0.785545 0.884851
vt 0.873552 0.799672
vt 0.801856 0.808389
vt 0.090796 0.813060
vt 0.115142 0.813060
vt 0.115142 0.904828
vt 0.090796 0.904828
vt 0.012794 0.813060
vt 0.012794 0.904828
vt 0.193134 0.813060
vt 0.193134 0.904828
vt 0.873685 0.802442
vt 0.788195 0.882890
vt 0.804089 0.810540
vt 0.855161 0.116475
vt 0.773665 0.116476
vt 0.879507 0.116475
vt 0.879507 0.108258
vt 0.961013 0.116475
vt 0.961013 0.108258
vt 0.961013 0.126109
vt 0.879507 0.126109
vt 0.855161 0.126109
vt 0.773665 0.126109
vt 0.773665 0.295606
vt 0.703873 0.673403
vt 0.608409 0.673403
vt 0.574839 0.787472
vt 0.600427 0.673403
vt 0.600427 0.591907
vt 0.608409 0.697749
vt 0.600427 0.697749
vt 0.608409 0.779255
vt 0.600427 0.779255
vt 0.703873 0.697749
vt 0.703873 0.779255
vt 0.879507 0.012794
vt 0.961013 0.012794
vt 0.703873 0.787237
vt 0.608409 0.787237
vn 0.0000 1.0000 0.0000
vn 0.0000 0.0000 1.0000
vn -1.0000 0.0000 0.0000
vn 1.0000 0.0000 0.0000
vn 0.0000 0.0000 -1.0000
vn -0.0034 -1.0000 0.0000
vn -0.0056 0.0136 -0.9999
vn 0.9998 0.0187 0.0000
vn 0.0034 1.0000 0.0000
vn -0.9998 0.0187 0.0000
vn 0.0056 0.0136 0.9999
vn 0.0000 0.0190 0.9998
vn 0.0056 0.0136 -0.9999
vn 0.0034 -1.0000 0.0000
vn -0.0034 1.0000 0.0000
vn -0.0056 0.0136 0.9999
vn 0.0000 0.0190 -0.9998
vn 0.0000 -1.0000 0.0000
vn -0.0056 -0.0088 0.9999
vn 0.0056 -0.0088 -0.9999
vn 0.0000 -0.0123 0.9999
vn 0.0056 -0.0088 0.9999
vn -0.9999 -0.0121 0.0000
vn 0.9999 -0.0121 0.0000
vn -0.0056 -0.0088 -0.9999
vn 0.0000 0.9999 -0.0122
g Cube_Cube_Material
usemtl Material
s off
f 73/1/1 76/2/1 7/3/1 14/4/1
f 24/5/2 14/4/2 7/3/2 18/6/2
f 59/7/3 57/8/3 5/9/3 20/10/3
f 94/11/4 4/12/4 106/13/4 112/14/4
f 55/15/4 75/16/4 3/17/4 19/18/4
f 21/19/5 12/20/5 1/21/5 17/22/5
f 23/23/5 16/24/5 12/20/5 21/19/5
f 6/25/5 13/26/5 91/27/5 92/28/5
f 19/18/2 3/17/2 10/29/2 22/30/2
f 75/31/1 74/32/1 10/29/1 3/17/1
f 2/33/4 58/34/4 95/35/4 96/36/4
f 20/37/5 5/38/5 16/24/5 23/23/5
f 22/30/2 10/29/2 14/4/2 24/5/2
f 74/32/1 73/1/1 14/4/1 10/29/1
f 6/25/5 20/37/5 23/23/5 13/26/5
f 4/39/2 19/18/2 22/30/2 11/40/2
f 13/26/5 23/23/5 21/19/5 9/41/5
f 9/41/5 21/19/5 17/22/5 2/42/5
f 52/43/4 55/15/4 19/18/4 4/39/4
f 60/44/3 59/7/3 20/10/3 6/45/3
f 15/46/2 24/5/2 18/6/2 8/47/2
f 40/48/6 38/49/6 31/50/6 29/51/6
f 48/52/7 42/53/7 31/50/7 38/49/7
f 42/53/8 44/54/8 29/55/8 31/50/8
f 33/56/9 35/57/9 28/58/9 26/59/9
f 41/60/10 43/61/10 27/62/10 25/63/10
f 45/64/11 41/65/11 25/66/11 36/67/11
f 47/68/12 45/64/12 36/67/12 40/48/12
f 37/69/1 39/70/1 35/57/1 33/56/1
f 43/61/13 46/71/13 34/72/13 27/62/13
f 25/66/14 27/62/14 34/72/14 36/67/14
f 30/73/15 32/74/15 39/70/15 37/69/15
f 44/75/16 47/68/16 40/48/16 29/51/16
f 46/71/17 48/52/17 38/49/17 34/72/17
f 36/67/18 34/72/18 38/49/18 40/48/18
f 30/73/19 37/69/19 47/68/19 44/75/19
f 28/76/20 35/77/20 46/71/20 43/61/20
f 37/69/21 33/56/21 45/64/21 47/68/21
f 33/56/22 26/59/22 41/65/22 45/64/22
f 26/78/23 28/76/23 43/61/23 41/60/23
f 32/79/24 30/80/24 44/54/24 42/53/24
f 39/81/25 32/79/25 42/53/25 48/52/25
f 39/82/4 48/83/4 24/84/4 15/85/4
f 48/86/18 46/87/18 22/88/18 24/89/18
f 46/87/3 35/90/3 11/91/3 22/88/3
f 35/90/26 39/82/26 15/85/26 11/91/26
f 8/47/3 18/6/3 56/92/3 49/93/3
f 58/34/4 64/94/4 55/15/4 52/43/4
f 70/95/18 71/96/18 88/97/18 83/98/18
f 58/34/4 52/43/4 102/99/4 95/35/4
f 75/100/4 61/101/4 65/102/4 79/103/4
f 93/104/18 94/105/18 112/106/18 109/107/18
f 64/94/4 61/108/4 75/16/4 55/15/4
f 49/93/3 60/44/3 101/109/3 89/110/3
f 18/6/3 7/3/3 76/111/3 56/92/3
f 61/112/5 62/113/5 67/114/5 65/115/5
f 16/24/1 5/38/1 57/116/1 63/117/1
f 8/47/3 49/93/3 89/110/3 90/118/3
f 17/119/4 1/120/4 61/108/4 64/94/4
f 52/43/4 4/39/4 94/121/4 102/99/4
f 1/21/1 12/20/1 62/122/1 61/123/1
f 13/26/5 9/41/5 97/124/5 91/27/5
f 12/20/1 16/24/1 63/117/1 62/122/1
f 2/33/4 17/119/4 64/94/4 58/34/4
f 49/93/3 56/92/3 59/7/3 60/44/3
f 56/92/3 76/111/3 57/8/3 59/7/3
f 67/114/1 69/125/1 77/126/1 78/127/1
f 65/115/1 67/114/1 78/127/1 79/128/1
f 69/125/1 72/129/1 80/130/1 77/126/1
f 63/131/5 57/132/5 72/129/5 69/125/5
f 71/96/4 51/133/4 86/134/4 88/97/4
f 57/135/3 76/136/3 80/137/3 72/138/3
f 62/113/5 63/131/5 69/125/5 67/114/5
f 54/139/1 53/140/1 81/141/1 84/142/1
f 53/140/2 54/139/2 73/143/2 74/144/2
f 50/145/2 53/140/2 74/144/2 75/100/2
f 54/139/2 51/133/2 76/136/2 73/143/2
f 70/95/2 68/146/2 78/127/2 77/126/2
f 68/146/2 66/147/2 79/128/2 78/127/2
f 71/96/2 70/95/2 77/126/2 80/130/2
f 66/147/2 50/145/2 75/100/2 79/103/2
f 51/133/2 71/96/2 80/137/2 76/136/2
f 84/148/2 81/149/2 82/150/2 83/151/2
f 86/152/2 84/148/2 83/151/2 88/153/2
f 81/149/2 85/154/2 87/155/2 82/150/2
f 68/146/18 70/95/18 83/98/18 82/156/18
f 53/140/1 50/145/1 85/157/1 81/141/1
f 50/145/3 66/147/3 87/158/3 85/157/3
f 66/147/18 68/146/18 82/156/18 87/158/18
f 51/133/1 54/139/1 84/142/1 86/134/1
f 99/159/18 102/160/18 94/105/18 93/104/18
f 100/161/18 99/159/18 93/104/18 98/162/18
f 89/163/18 100/161/18 98/162/18 90/164/18
f 101/165/18 104/166/18 100/161/18 89/163/18
f 104/166/18 103/167/18 99/159/18 100/161/18
f 103/167/18 95/168/18 102/160/18 99/159/18
f 97/124/18 96/169/18 95/168/18 103/167/18
f 91/27/18 97/124/18 103/167/18 104/166/18
f 92/28/18 91/27/18 104/166/18 101/165/18
f 4/12/1 11/170/1 105/171/1 106/13/1
f 9/41/5 2/42/5 96/169/5 97/124/5
f 60/44/3 6/45/3 92/172/3 101/109/3
f 106/13/2 105/171/2 109/173/2 112/174/2
f 105/171/2 107/175/2 110/176/2 109/173/2
f 107/175/2 108/177/2 111/178/2 110/176/2
f 15/179/1 8/180/1 108/177/1 107/175/1
f 98/162/18 93/104/18 109/107/18 110/181/18
f 11/170/1 15/179/1 107/175/1 105/171/1
f 90/164/18 98/162/18 110/181/18 111/182/18
f 8/180/3 90/183/3 111/184/3 108/177/3
