# Blender v2.82 (sub 7) OBJ File: 'barrel.blend'
# www.blender.org
mtllib barrel.mtl
o Cylinder
v -0.000000 0.007017 -0.832352
v -0.000000 3.047870 -0.832352
v 0.489244 0.007017 -0.673387
v 0.489244 3.047870 -0.673387
v 0.791614 0.007017 -0.257211
v 0.791614 3.047870 -0.257211
v 0.791614 0.007017 0.257211
v 0.791614 3.047870 0.257211
v 0.489244 0.007017 0.673387
v 0.489244 3.047870 0.673387
v -0.000000 0.007017 0.832352
v -0.000000 3.047870 0.832352
v -0.489244 0.007017 0.673387
v -0.489244 3.047870 0.673387
v -0.791614 0.007017 0.257211
v -0.791614 3.047870 0.257211
v -0.791614 0.007017 -0.257211
v -0.791614 3.047870 -0.257211
v -0.489244 0.007017 -0.673387
v -0.489244 3.047870 -0.673387
v 0.000000 0.647287 -1.157776
v 0.000000 1.527444 -1.217977
v 0.000000 2.407600 -1.157776
v 0.680524 2.407600 -0.936661
v 0.715909 1.527444 -0.985364
v 0.680524 0.647287 -0.936661
v 1.101111 2.407600 -0.357772
v 1.158365 1.527444 -0.376375
v 1.101111 0.647287 -0.357772
v 1.101111 2.407600 0.357773
v 1.158365 1.527444 0.376376
v 1.101111 0.647287 0.357773
v 0.680524 2.407600 0.936661
v 0.715909 1.527444 0.985364
v 0.680524 0.647287 0.936661
v -0.000000 2.407600 1.157776
v -0.000000 1.527444 1.217977
v -0.000000 0.647287 1.157776
v -0.680524 2.407600 0.936660
v -0.715909 1.527444 0.985364
v -0.680524 0.647287 0.936660
v -1.101110 2.407600 0.357773
v -1.158365 1.527444 0.376376
v -1.101110 0.647287 0.357773
v -1.101110 2.407600 -0.357773
v -1.158365 1.527444 -0.376376
v -1.101110 0.647287 -0.357773
v -0.680523 2.407600 -0.936661
v -0.715908 1.527444 -0.985364
v -0.680523 0.647287 -0.936661
v 0.000000 0.007017 -1.000000
v 0.587785 0.007017 -0.809017
v 0.587785 3.047870 -0.809017
v 0.000000 3.047870 -1.000000
v 0.951057 0.007017 -0.309017
v 0.951057 3.047870 -0.309017
v 0.951056 0.007017 0.309017
v 0.951056 3.047870 0.309017
v 0.587785 0.007017 0.809017
v 0.587785 3.047870 0.809017
v -0.000000 0.007017 1.000000
v -0.000000 3.047870 1.000000
v -0.587785 0.007017 0.809017
v -0.587785 3.047870 0.809017
v -0.951056 0.007017 0.309017
v -0.951056 3.047870 0.309017
v -0.951056 0.007017 -0.309017
v -0.951056 3.047870 -0.309017
v -0.587785 0.007017 -0.809017
v -0.587785 3.047870 -0.809017
v -0.000000 0.091662 -0.832352
v 0.489244 0.091662 -0.673387
v 0.791614 0.091662 -0.257211
v 0.791614 0.091662 0.257211
v 0.489244 0.091662 0.673387
v -0.000000 0.091662 0.832352
v -0.489244 0.091662 0.673387
v -0.791614 0.091662 0.257211
v -0.791614 0.091662 -0.257211
v -0.489244 0.091662 -0.673387
v 0.489244 2.980382 -0.673387
v -0.000000 2.980382 -0.832352
v 0.791614 2.980382 -0.257211
v 0.791614 2.980382 0.257211
v 0.489244 2.980382 0.673387
v -0.000000 2.980382 0.832352
v -0.489244 2.980382 0.673387
v -0.791614 2.980382 0.257211
v -0.791614 2.980382 -0.257211
v -0.489244 2.980382 -0.673387
v 0.000000 1.820829 -1.197910
v 0.000000 2.114215 -1.177843
v 0.692319 2.114215 -0.952895
v 0.704114 1.820829 -0.969130
v 1.120195 2.114215 -0.363973
v 1.139280 1.820829 -0.370174
v 1.120195 2.114215 0.363974
v 1.139280 1.820829 0.370175
v 0.692319 2.114215 0.952895
v 0.704114 1.820829 0.969130
v -0.000000 2.114215 1.177843
v -0.000000 1.820829 1.197910
v -0.692319 2.114215 0.952895
v -0.704114 1.820829 0.969129
v -1.120195 2.114215 0.363974
v -1.139280 1.820829 0.370175
v -1.120195 2.114215 -0.363974
v -1.139280 1.820829 -0.370175
v -0.692318 2.114215 -0.952895
v -0.704113 1.820829 -0.969130
v 0.000000 1.856197 -1.246194
v 0.000000 2.078847 -1.225318
v 0.720224 2.078847 -0.991303
v 0.732494 1.856197 -1.008192
v 1.165347 2.078847 -0.378644
v 1.185200 1.856197 -0.385095
v 1.165347 2.078847 0.378644
v 1.185200 1.856197 0.385095
v 0.720224 2.078847 0.991303
v 0.732494 1.856197 1.008192
v -0.000000 2.078847 1.225318
v -0.000000 1.856197 1.246193
v -0.720224 2.078847 0.991303
v -0.732494 1.856197 1.008192
v -1.165346 2.078847 0.378644
v -1.185200 1.856197 0.385095
v -1.165346 2.078847 -0.378644
v -1.185200 1.856197 -0.385095
v -0.720223 2.078847 -0.991303
v -0.732494 1.856197 -1.008192
v 0.000000 0.940673 -1.177843
v 0.000000 1.234058 -1.197910
v 0.704114 1.234058 -0.969130
v 0.692319 0.940673 -0.952895
v 1.139280 1.234058 -0.370174
v 1.120195 0.940673 -0.363973
v 1.139280 1.234058 0.370175
v 1.120195 0.940673 0.363974
v 0.704114 1.234058 0.969130
v 0.692319 0.940673 0.952895
v -0.000000 1.234058 1.197910
v -0.000000 0.940673 1.177843
v -0.704114 1.234058 0.969129
v -0.692319 0.940673 0.952895
v -1.139280 1.234058 0.370175
v -1.120195 0.940673 0.363974
v -1.139280 1.234058 -0.370175
v -1.120195 0.940673 -0.363974
v -0.704113 1.234058 -0.969130
v -0.692318 0.940673 -0.952895
v 0.000000 0.971109 -1.238872
v 0.000000 1.203622 -1.259979
v 0.740597 1.203622 -1.019345
v 0.728191 0.971109 -1.002269
v 1.198311 1.203622 -0.389355
v 1.178238 0.971109 -0.382833
v 1.198311 1.203622 0.389355
v 1.178238 0.971109 0.382833
v 0.740597 1.203622 1.019345
v 0.728191 0.971109 1.002269
v -0.000000 1.203622 1.259979
v -0.000000 0.971109 1.238873
v -0.740597 1.203622 1.019344
v -0.728191 0.971109 1.002269
v -1.198311 1.203622 0.389355
v -1.178238 0.971109 0.382833
v -1.198311 1.203622 -0.389355
v -1.178238 0.971109 -0.382833
v -0.740597 1.203622 -1.019345
v -0.728191 0.971109 -1.002269
vt 0.713282 0.241312
vt 0.666128 0.223657
vt 0.664919 0.167209
vt 0.713023 0.153470
vt 0.629326 0.123220
vt 0.660134 0.083085
vt 0.573983 0.107438
vt 0.575866 0.056751
vt 0.519615 0.126328
vt 0.491914 0.084014
vt 0.486532 0.172444
vt 0.439753 0.154744
vt 0.488597 0.228740
vt 0.440198 0.242674
vt 0.523525 0.273652
vt 0.492722 0.313407
vt 0.579031 0.288272
vt 0.577309 0.339400
vt 0.651595 0.219013
vt 0.624963 0.258066
vt 0.622307 0.254740
vt 0.647539 0.217948
vt 0.633913 0.270432
vt 0.661358 0.312557
vt 0.118932 0.225569
vt 0.116976 0.178382
vt 0.122066 0.179714
vt 0.123801 0.223597
vt 0.194718 0.290650
vt 0.192924 0.341807
vt 0.108233 0.315528
vt 0.139260 0.275770
vt 0.559091 0.425511
vt 0.557765 0.448857
vt 0.482880 0.468673
vt 0.470335 0.449035
vt 0.676994 0.335125
vt 0.739222 0.250305
vt 0.249537 0.272623
vt 0.277150 0.314811
vt 0.646069 0.456871
vt 0.631784 0.475471
vt 0.576930 0.366836
vt 0.281700 0.225584
vt 0.329118 0.243223
vt 0.700304 0.531674
vt 0.677996 0.538694
vt 0.476408 0.335535
vt 0.280430 0.168681
vt 0.328848 0.154930
vt 0.700304 0.623443
vt 0.678361 0.615566
vt 0.413971 0.250841
vt 0.244671 0.124219
vt 0.275943 0.083976
vt 0.643811 0.695438
vt 0.631266 0.675799
vt 0.413842 0.145721
vt 0.189622 0.107332
vt 0.191708 0.056892
vt 0.555055 0.718962
vt 0.556381 0.695616
vt 0.476324 0.061481
vt 0.135802 0.127196
vt 0.107571 0.084779
vt 0.468077 0.687602
vt 0.482362 0.669001
vt 0.576243 0.029338
vt 0.102458 0.173780
vt 0.055367 0.156025
vt 0.413842 0.612799
vt 0.436150 0.605779
vt 0.676397 0.060988
vt 0.104414 0.230538
vt 0.055750 0.244402
vt 0.413843 0.521030
vt 0.435785 0.528907
vt 0.739222 0.145267
vt 0.147893 0.263144
vt 0.650675 0.172230
vt 0.620662 0.135946
vt 0.144974 0.139733
vt 0.574170 0.122933
vt 0.189856 0.122668
vt 0.528584 0.138850
vt 0.235738 0.136924
vt 0.500933 0.176999
vt 0.266062 0.173728
vt 0.503006 0.223733
vt 0.267067 0.220959
vt 0.532072 0.261009
vt 0.240519 0.260265
vt 0.578909 0.272597
vt 0.194595 0.274997
vt 0.150614 0.258608
vt 0.148335 0.143851
vt 0.190224 0.127969
vt 0.232929 0.141433
vt 0.261210 0.175752
vt 0.261979 0.219645
vt 0.237192 0.256145
vt 0.194261 0.269655
vt 0.646811 0.173841
vt 0.578640 0.268312
vt 0.534234 0.257350
vt 0.506880 0.222137
vt 0.504987 0.178053
vt 0.531220 0.142180
vt 0.574455 0.127215
vt 0.618494 0.139589
vt 0.493325 0.485874
vt 0.454508 0.536007
vt 0.921444 0.589857
vt 0.917262 0.515767
vt 0.922667 0.515552
vt 0.926725 0.589499
vt 0.455598 0.599931
vt 0.959911 0.730218
vt 0.970662 0.803512
vt 0.965391 0.805878
vt 0.954788 0.730826
vt 0.495155 0.652908
vt 0.915071 0.362431
vt 0.917251 0.283230
vt 0.923021 0.283485
vt 0.920721 0.362523
vt 0.557997 0.675238
vt 0.943755 0.807669
vt 0.935479 0.732756
vt 0.940444 0.732208
vt 0.949131 0.808604
vt 0.620821 0.658599
vt 0.950404 0.204820
vt 0.945350 0.284840
vt 0.939703 0.284545
vt 0.944644 0.204356
vt 0.659638 0.608466
vt 0.952705 0.660119
vt 0.947649 0.660556
vt 0.658548 0.544542
vt 0.921746 0.202378
vt 0.927637 0.202810
vt 0.618991 0.491565
vt 0.942049 0.439988
vt 0.943613 0.515065
vt 0.938319 0.515232
vt 0.936635 0.440007
vt 0.556149 0.469235
vt 0.927563 0.662207
vt 0.932716 0.661713
vt 0.957884 0.123254
vt 0.952082 0.122556
vt 0.942025 0.588758
vt 0.944909 0.029338
vt 0.964795 0.032808
vt 0.934994 0.120408
vt 0.937065 0.363104
vt 0.920635 0.439887
vt 0.942597 0.363238
vt 0.928809 0.119794
vt 0.937845 0.030584
vt 0.947197 0.588449
vt 0.915106 0.439952
vt 0.970662 0.035469
vt 0.091809 0.337674
vt 0.029416 0.252549
vt 0.856396 0.036326
vt 0.843419 0.124624
vt 0.836407 0.123778
vt 0.849285 0.032944
vt 0.029338 0.147004
vt 0.810460 0.666105
vt 0.804376 0.593238
vt 0.810799 0.592816
vt 0.816732 0.665522
vt 0.091811 0.062208
vt 0.831163 0.286684
vt 0.828481 0.365383
vt 0.821778 0.365217
vt 0.824323 0.286328
vt 0.192124 0.029338
vt 0.804289 0.203730
vt 0.811124 0.120820
vt 0.818635 0.121548
vt 0.811434 0.204244
vt 0.292393 0.061889
vt 0.833046 0.591729
vt 0.838472 0.663857
vt 0.832327 0.664370
vt 0.826765 0.592088
vt 0.355167 0.146739
vt 0.798006 0.442411
vt 0.797897 0.364486
vt 0.804756 0.364598
vt 0.804721 0.442338
vt 0.355167 0.252219
vt 0.836096 0.206401
vt 0.829125 0.205844
vt 0.292868 0.337432
vt 0.818296 0.737197
vt 0.824340 0.736563
vt 0.192518 0.369324
vt 0.827960 0.442472
vt 0.821396 0.442488
vt 0.799960 0.284916
vt 0.806960 0.285222
vt 0.828333 0.029338
vt 0.849942 0.811538
vt 0.832701 0.814314
vt 0.839339 0.735195
vt 0.806765 0.518417
vt 0.823088 0.518119
vt 0.829511 0.517927
vt 0.819695 0.031040
vt 0.800195 0.518669
vt 0.845581 0.734476
vt 0.856396 0.808528
vt 0.826115 0.813008
vn 0.3009 0.2282 -0.9260
vn 0.7877 0.2282 -0.5723
vn 0.9736 0.2282 0.0000
vn 0.7877 0.2282 0.5723
vn 0.3009 0.2282 0.9260
vn -0.3009 0.2282 0.9260
vn -0.7877 0.2282 0.5723
vn -0.9736 0.2282 0.0000
vn 0.3090 0.0000 0.9511
vn -0.7877 0.2282 -0.5723
vn -0.3009 0.2282 -0.9260
vn -0.8090 0.0000 0.5878
vn -0.3009 -0.2282 -0.9260
vn -0.3084 -0.0649 -0.9491
vn -0.3084 0.0649 -0.9491
vn -0.7877 -0.2282 -0.5723
vn -0.8073 -0.0649 -0.5865
vn -0.8073 0.0649 -0.5865
vn -0.9736 -0.2282 0.0000
vn -0.9979 -0.0649 0.0000
vn -0.9979 0.0649 0.0000
vn -0.7877 -0.2282 0.5723
vn -0.8073 -0.0649 0.5865
vn -0.8073 0.0649 0.5865
vn -0.3009 -0.2282 0.9260
vn -0.3084 -0.0649 0.9491
vn -0.3084 0.0649 0.9491
vn 0.3009 -0.2282 0.9260
vn 0.3084 -0.0649 0.9491
vn 0.3084 0.0649 0.9491
vn 0.7877 -0.2282 0.5723
vn 0.8073 -0.0649 0.5865
vn 0.8073 0.0649 0.5865
vn 0.9736 -0.2282 0.0000
vn 0.9979 -0.0649 0.0000
vn 0.9979 0.0649 0.0000
vn 0.7877 -0.2282 -0.5723
vn 0.8073 -0.0649 -0.5865
vn 0.8073 0.0649 -0.5865
vn 0.3009 -0.2282 -0.9260
vn 0.3084 -0.0649 -0.9491
vn 0.3084 0.0649 -0.9491
vn 0.0000 -1.0000 0.0000
vn 0.0000 1.0000 -0.0000
vn 0.8090 0.0000 0.5878
vn -0.8090 0.0000 -0.5878
vn 0.3090 0.0000 -0.9511
vn -0.3090 0.0000 0.9511
vn 1.0000 0.0000 0.0000
vn -1.0000 0.0000 -0.0000
vn -0.3090 0.0000 -0.9511
vn 0.8090 0.0000 -0.5878
vn 0.1886 -0.7923 -0.5803
vn 0.4989 0.7872 0.3625
vn -0.6102 -0.7923 0.0000
vn 0.4937 -0.7923 0.3587
vn -0.4989 0.7872 0.3625
vn 0.6167 0.7872 0.0000
vn -0.4937 -0.7923 0.3587
vn -0.1906 0.7872 -0.5865
vn 0.6102 -0.7923 0.0000
vn -0.1906 0.7872 0.5865
vn 0.3078 0.0888 -0.9473
vn 0.8058 0.0888 -0.5855
vn 0.9960 0.0888 0.0000
vn 0.8058 0.0888 0.5855
vn 0.3078 0.0888 0.9473
vn -0.3078 0.0888 0.9473
vn -0.8058 0.0888 0.5855
vn -0.9960 0.0888 0.0000
vn -0.8058 0.0888 -0.5855
vn -0.3078 0.0888 -0.9473
vn -0.6167 0.7872 0.0000
vn 0.1886 -0.7923 0.5803
vn 0.1906 0.7872 -0.5865
vn -0.4937 -0.7923 -0.3587
vn 0.1906 0.7872 0.5865
vn 0.4937 -0.7923 -0.3587
vn -0.4989 0.7872 -0.3625
vn -0.1886 -0.7923 0.5803
vn 0.4989 0.7872 -0.3625
vn -0.1886 -0.7923 -0.5803
vn 0.4644 -0.8856 0.0000
vn -0.1416 0.8888 0.4358
vn -0.1435 -0.8856 -0.4417
vn 0.3707 0.8888 -0.2694
vn -0.1435 -0.8856 0.4417
vn -0.3707 0.8888 -0.2694
vn 0.3757 -0.8856 -0.2730
vn 0.1416 0.8888 0.4358
vn -0.3757 -0.8856 -0.2730
vn 0.1416 0.8888 -0.4358
vn 0.3079 -0.0860 -0.9475
vn 0.8060 -0.0860 -0.5856
vn 0.9963 -0.0860 0.0000
vn 0.8060 -0.0860 0.5856
vn 0.3079 -0.0860 0.9475
vn -0.3079 -0.0860 0.9475
vn -0.8060 -0.0860 0.5856
vn -0.9963 -0.0860 0.0000
vn -0.8060 -0.0860 -0.5856
vn -0.3079 -0.0860 -0.9475
vn -0.1416 0.8888 -0.4358
vn -0.3757 -0.8856 0.2730
vn 0.4583 0.8888 0.0000
vn -0.3707 0.8888 0.2694
vn 0.3757 -0.8856 0.2730
vn -0.4644 -0.8856 0.0000
vn 0.3707 0.8888 0.2694
vn 0.1435 -0.8856 -0.4417
vn -0.4583 0.8888 0.0000
vn 0.1435 -0.8856 0.4417
usemtl Material.001
s off
f 23/1/1 54/2/1 53/3/1 24/4/1
f 24/4/2 53/3/2 56/5/2 27/6/2
f 27/6/3 56/5/3 58/7/3 30/8/3
f 30/8/4 58/7/4 60/9/4 33/10/4
f 33/10/5 60/9/5 62/11/5 36/12/5
f 36/12/6 62/11/6 64/13/6 39/14/6
f 39/14/7 64/13/7 66/15/7 42/16/7
f 42/16/8 66/15/8 68/17/8 45/18/8
f 2/19/9 20/20/9 90/21/9 82/22/9
f 45/18/10 68/17/10 70/23/10 48/24/10
f 48/24/11 70/23/11 54/2/11 23/1/11
f 3/25/12 5/26/12 73/27/12 72/28/12
f 69/29/13 50/30/13 21/31/13 51/32/13
f 149/33/14 49/34/14 22/35/14 132/36/14
f 109/37/15 48/24/15 23/1/15 92/38/15
f 67/39/16 47/40/16 50/30/16 69/29/16
f 147/41/17 46/42/17 49/34/17 149/33/17
f 107/43/18 45/18/18 48/24/18 109/37/18
f 65/44/19 44/45/19 47/40/19 67/39/19
f 145/46/20 43/47/20 46/42/20 147/41/20
f 105/48/21 42/16/21 45/18/21 107/43/21
f 63/49/22 41/50/22 44/45/22 65/44/22
f 143/51/23 40/52/23 43/47/23 145/46/23
f 103/53/24 39/14/24 42/16/24 105/48/24
f 61/54/25 38/55/25 41/50/25 63/49/25
f 141/56/26 37/57/26 40/52/26 143/51/26
f 101/58/27 36/12/27 39/14/27 103/53/27
f 59/59/28 35/60/28 38/55/28 61/54/28
f 139/61/29 34/62/29 37/57/29 141/56/29
f 99/63/30 33/10/30 36/12/30 101/58/30
f 57/64/31 32/65/31 35/60/31 59/59/31
f 137/66/32 31/67/32 34/62/32 139/61/32
f 97/68/33 30/8/33 33/10/33 99/63/33
f 55/69/34 29/70/34 32/65/34 57/64/34
f 135/71/35 28/72/35 31/67/35 137/66/35
f 95/73/36 27/6/36 30/8/36 97/68/36
f 52/74/37 26/75/37 29/70/37 55/69/37
f 133/76/38 25/77/38 28/72/38 135/71/38
f 93/78/39 24/4/39 27/6/39 95/73/39
f 51/32/40 21/31/40 26/75/40 52/74/40
f 132/36/41 22/35/41 25/77/41 133/76/41
f 92/38/42 23/1/42 24/4/42 93/78/42
f 3/25/43 1/79/43 51/32/43 52/74/43
f 2/19/44 4/80/44 53/3/44 54/2/44
f 5/26/43 3/25/43 52/74/43 55/69/43
f 4/80/44 6/81/44 56/5/44 53/3/44
f 7/82/43 5/26/43 55/69/43 57/64/43
f 6/81/44 8/83/44 58/7/44 56/5/44
f 9/84/43 7/82/43 57/64/43 59/59/43
f 8/83/44 10/85/44 60/9/44 58/7/44
f 11/86/43 9/84/43 59/59/43 61/54/43
f 10/85/44 12/87/44 62/11/44 60/9/44
f 13/88/43 11/86/43 61/54/43 63/49/43
f 12/87/44 14/89/44 64/13/44 62/11/44
f 15/90/43 13/88/43 63/49/43 65/44/43
f 14/89/44 16/91/44 66/15/44 64/13/44
f 17/92/43 15/90/43 65/44/43 67/39/43
f 16/91/44 18/93/44 68/17/44 66/15/44
f 19/94/43 17/92/43 67/39/43 69/29/43
f 18/93/44 20/20/44 70/23/44 68/17/44
f 1/79/43 19/94/43 69/29/43 51/32/43
f 20/20/44 2/19/44 54/2/44 70/23/44
f 71/95/43 72/28/43 73/27/43 74/96/43 75/97/43 76/98/43 77/99/43 78/100/43 79/101/43 80/102/43
f 17/92/45 19/94/45 80/102/45 79/101/45
f 7/82/46 9/84/46 75/97/46 74/96/46
f 11/86/47 13/88/47 77/99/47 76/98/47
f 1/79/48 3/25/48 72/28/48 71/95/48
f 15/90/49 17/92/49 79/101/49 78/100/49
f 5/26/50 7/82/50 74/96/50 73/27/50
f 19/94/9 1/79/9 71/95/9 80/102/9
f 9/84/51 11/86/51 76/98/51 75/97/51
f 13/88/52 15/90/52 78/100/52 77/99/52
f 81/103/44 82/22/44 90/21/44 89/104/44 88/105/44 87/106/44 86/107/44 85/108/44 84/109/44 83/110/44
f 12/87/51 10/85/51 85/108/51 86/107/51
f 16/91/52 14/89/52 87/106/52 88/105/52
f 6/81/12 4/80/12 81/103/12 83/110/12
f 20/20/45 18/93/45 89/104/45 90/21/45
f 10/85/46 8/83/46 84/109/46 85/108/46
f 14/89/47 12/87/47 86/107/47 87/106/47
f 4/80/48 2/19/48 82/22/48 81/103/48
f 18/93/49 16/91/49 88/105/49 89/104/49
f 8/83/50 6/81/50 83/110/50 84/109/50
f 22/35/42 91/111/42 94/112/42 25/77/42
f 94/113/53 91/114/53 111/115/53 114/116/53
f 25/77/39 94/112/39 96/117/39 28/72/39
f 97/118/54 99/119/54 119/120/54 117/121/54
f 28/72/36 96/117/36 98/122/36 31/67/36
f 108/123/55 106/124/55 126/125/55 128/126/55
f 31/67/33 98/122/33 100/127/33 34/62/33
f 100/128/56 98/129/56 118/130/56 120/131/56
f 34/62/30 100/127/30 102/132/30 37/57/30
f 103/133/57 105/134/57 125/135/57 123/136/57
f 37/57/27 102/132/27 104/137/27 40/52/27
f 95/138/58 97/118/58 117/121/58 115/139/58
f 40/52/24 104/137/24 106/140/24 43/47/24
f 106/124/59 104/141/59 124/142/59 126/125/59
f 43/47/21 106/140/21 108/143/21 46/42/21
f 109/144/60 92/145/60 112/146/60 129/147/60
f 46/42/18 108/143/18 110/148/18 49/34/18
f 98/129/61 96/149/61 116/150/61 118/130/61
f 49/34/15 110/148/15 91/111/15 22/35/15
f 101/151/62 103/133/62 123/136/62 121/152/62
f 111/115/63 112/146/63 113/153/63 114/116/63
f 114/116/64 113/153/64 115/139/64 116/150/64
f 116/150/65 115/139/65 117/121/65 118/130/65
f 118/130/66 117/121/66 119/120/66 120/131/66
f 120/154/67 119/155/67 121/152/67 122/156/67
f 122/156/68 121/152/68 123/136/68 124/142/68
f 124/142/69 123/136/69 125/135/69 126/125/69
f 126/125/70 125/135/70 127/157/70 128/126/70
f 128/126/71 127/157/71 129/147/71 130/158/71
f 130/158/72 129/147/72 112/146/72 111/115/72
f 105/134/73 107/159/73 127/157/73 125/135/73
f 102/160/74 100/161/74 120/154/74 122/156/74
f 92/145/75 93/162/75 113/153/75 112/146/75
f 110/163/76 108/123/76 128/126/76 130/158/76
f 99/164/77 101/151/77 121/152/77 119/155/77
f 96/149/78 94/113/78 114/116/78 116/150/78
f 107/159/79 109/144/79 129/147/79 127/157/79
f 104/141/80 102/160/80 122/156/80 124/142/80
f 93/162/81 95/138/81 115/139/81 113/153/81
f 91/114/82 110/163/82 130/158/82 111/115/82
f 21/31/41 131/165/41 134/166/41 26/75/41
f 138/167/83 136/168/83 156/169/83 158/170/83
f 26/75/38 134/166/38 136/171/38 29/70/38
f 141/172/84 143/173/84 163/174/84 161/175/84
f 29/70/35 136/171/35 138/176/35 32/65/35
f 131/177/85 150/178/85 170/179/85 151/180/85
f 32/65/32 138/176/32 140/181/32 35/60/32
f 133/182/86 135/183/86 155/184/86 153/185/86
f 35/60/29 140/181/29 142/186/29 38/55/29
f 144/187/87 142/188/87 162/189/87 164/190/87
f 38/55/26 142/186/26 144/191/26 41/50/26
f 147/192/88 149/193/88 169/194/88 167/195/88
f 41/50/23 144/191/23 146/196/23 44/45/23
f 136/168/89 134/197/89 154/198/89 156/169/89
f 44/45/20 146/196/20 148/199/20 47/40/20
f 139/200/90 141/172/90 161/175/90 159/201/90
f 47/40/17 148/199/17 150/202/17 50/30/17
f 150/178/91 148/203/91 168/204/91 170/179/91
f 50/30/14 150/202/14 131/165/14 21/31/14
f 132/205/92 133/182/92 153/185/92 152/206/92
f 151/180/93 152/206/93 153/185/93 154/198/93
f 154/198/94 153/185/94 155/184/94 156/169/94
f 156/169/95 155/184/95 157/207/95 158/170/95
f 158/208/96 157/209/96 159/201/96 160/210/96
f 160/210/97 159/201/97 161/175/97 162/189/97
f 162/189/98 161/175/98 163/174/98 164/190/98
f 164/190/99 163/174/99 165/211/99 166/212/99
f 166/212/100 165/211/100 167/195/100 168/204/100
f 168/204/101 167/195/101 169/194/101 170/179/101
f 170/179/102 169/194/102 152/206/102 151/180/102
f 149/193/103 132/205/103 152/206/103 169/194/103
f 146/213/104 144/187/104 164/190/104 166/212/104
f 135/183/105 137/214/105 157/207/105 155/184/105
f 143/173/106 145/215/106 165/211/106 163/174/106
f 140/216/107 138/217/107 158/208/107 160/210/107
f 148/203/108 146/213/108 166/212/108 168/204/108
f 137/218/109 139/200/109 159/201/109 157/209/109
f 134/197/110 131/177/110 151/180/110 154/198/110
f 145/215/111 147/192/111 167/195/111 165/211/111
f 142/188/112 140/216/112 160/210/112 162/189/112
