# Blender v2.82 (sub 7) OBJ File: 'arrow.blend'
# www.blender.org
mtllib arrow.mtl
o Arrowhead_Cube
v 0.000040 0.000971 0.489712
v 0.000589 0.001594 0.489659
v -0.008009 0.000188 0.352500
v -0.000570 0.005354 0.352500
v 0.000717 0.000197 0.489901
v 0.001300 0.000781 0.489901
v -0.000570 -0.008784 0.352500
v 0.008340 0.000188 0.352500
v -0.008009 0.000188 0.353782
v -0.002770 0.003163 0.352749
v -0.000570 -0.008784 0.353782
v 0.008340 0.000188 0.353782
v -0.030835 0.000699 0.385898
v 0.030551 0.000699 0.385898
v -0.000142 0.031393 0.385898
v -0.000142 -0.029994 0.385898
vt 0.375000 0.189320
vt 0.625000 0.189320
vt 0.625000 0.250000
vt 0.375000 0.250000
vt 0.625000 0.500000
vt 0.375000 0.500000
vt 0.375000 0.655340
vt 0.625000 0.655340
vt 0.625000 0.750000
vt 0.375000 0.750000
vt 0.625000 1.000000
vt 0.375000 1.000000
vt 0.125000 0.655340
vt 0.125000 0.750000
vt 0.875000 0.655340
vt 0.875000 0.750000
vt 0.875000 0.500000
vt 0.875000 0.560680
vt 0.625000 0.560680
vt 0.125000 0.500000
vt 0.375000 0.560680
vt 0.125000 0.560680
vt 0.375000 0.094660
vt 0.625000 0.094660
vt 0.375000 0.000000
vt 0.625000 0.000000
vn -0.4586 0.7703 0.4432
vn 0.0000 0.0000 -1.0000
vn 0.6935 -0.6935 0.1956
vn -0.1231 0.1587 0.9796
vn -0.6935 -0.6901 0.2070
vn 0.6940 0.6932 0.1944
vn 0.1443 0.4655 0.8732
vn -0.7698 -0.6383 0.0000
vn 0.7096 -0.7046 0.0000
vn -0.6108 0.6374 -0.4697
vn -0.6929 0.6916 0.2039
vn 0.5497 0.6670 -0.5029
vn -0.6513 -0.6261 -0.4288
vn 0.6387 -0.6377 -0.4306
usemtl Material.003
s off
f 9/1/1 10/2/1 4/3/1 3/4/1
f 3/4/2 4/3/2 8/5/2 7/6/2
f 16/7/3 14/8/3 6/9/3 5/10/3
f 5/10/4 6/9/4 2/11/4 1/12/4
f 13/13/5 16/7/5 5/10/5 1/14/5
f 14/8/6 15/15/6 2/16/6 6/9/6
f 8/5/7 4/17/7 10/18/7 12/19/7
f 3/20/8 7/6/8 11/21/8 9/22/8
f 7/6/9 8/5/9 12/19/9 11/21/9
f 13/23/10 15/24/10 10/2/10 9/1/10
f 1/25/11 2/26/11 15/24/11 13/23/11
f 12/19/12 10/18/12 15/15/12 14/8/12
f 9/22/13 11/21/13 16/7/13 13/13/13
f 11/21/14 12/19/14 14/8/14 16/7/14
o Shaft_Cube.001
v -0.008666 -0.008666 0.401252
v -0.008666 0.008666 0.401252
v -0.008666 -0.008666 -0.401252
v -0.008666 0.008666 -0.401252
v 0.008666 -0.008666 0.401252
v 0.008666 0.008666 0.401252
v 0.008666 -0.008666 -0.401252
v 0.008666 0.008666 -0.401252
vt 0.375000 0.000000
vt 0.625000 0.000000
vt 0.625000 0.250000
vt 0.375000 0.250000
vt 0.625000 0.500000
vt 0.375000 0.500000
vt 0.625000 0.750000
vt 0.375000 0.750000
vt 0.625000 1.000000
vt 0.375000 1.000000
vt 0.125000 0.500000
vt 0.125000 0.750000
vt 0.875000 0.500000
vt 0.875000 0.750000
vn -1.0000 0.0000 0.0000
vn 0.0000 0.0000 -1.0000
vn 1.0000 0.0000 0.0000
vn 0.0000 0.0000 1.0000
vn 0.0000 -1.0000 0.0000
vn 0.0000 1.0000 0.0000
usemtl Material.002
s off
f 17/27/15 18/28/15 20/29/15 19/30/15
f 19/30/16 20/29/16 24/31/16 23/32/16
f 23/32/17 24/31/17 22/33/17 21/34/17
f 21/34/18 22/33/18 18/35/18 17/36/18
f 19/37/19 23/32/19 21/34/19 17/38/19
f 24/31/20 20/39/20 18/40/20 22/33/20
o Feather_Cube.002
v 0.006103 -0.000389 -0.354201
v 0.006103 -0.002491 -0.354201
v 0.020668 0.011855 -0.461112
v 0.020668 -0.016142 -0.461112
v -0.006962 0.001788 -0.354201
v -0.006962 -0.002491 -0.354201
v -0.021526 0.011855 -0.461112
v -0.014661 -0.016142 -0.461112
v 0.025511 0.014286 -0.373126
v 0.025511 -0.018574 -0.373126
v -0.026370 0.014286 -0.373126
v -0.026370 -0.018574 -0.373126
v -0.000429 0.005470 -0.429784
v 0.000000 -0.006790 -0.429784
v -0.000429 0.001788 -0.354201
v -0.000429 -0.002491 -0.354201
v -0.000429 0.001026 -0.373126
v 0.000000 -0.002346 -0.373126
vt 0.375000 0.120482
vt 0.625000 0.120482
vt 0.625000 0.250000
vt 0.375000 0.250000
vt 0.375000 0.375000
vt 0.625000 0.375000
vt 0.625000 0.500000
vt 0.375000 0.500000
vt 0.375000 0.629518
vt 0.625000 0.629518
vt 0.625000 0.750000
vt 0.375000 0.750000
vt 0.375000 0.875000
vt 0.625000 0.875000
vt 0.625000 1.000000
vt 0.375000 1.000000
vt 0.250000 0.629518
vt 0.250000 0.750000
vt 0.750000 0.629518
vt 0.875000 0.629518
vt 0.875000 0.750000
vt 0.750000 0.750000
vt 0.750000 0.500000
vt 0.875000 0.500000
vt 0.250000 0.500000
vt 0.375000 0.000000
vt 0.625000 0.000000
vt 0.125000 0.500000
vt 0.125000 0.629518
vt 0.125000 0.750000
vn 0.9985 0.0000 -0.0550
vn 0.8549 0.1549 -0.4952
vn -0.6982 0.0000 0.7159
vn 0.0000 0.0000 1.0000
vn 0.4509 0.8921 -0.0290
vn -0.5166 -0.8560 0.0192
vn -0.5038 -0.8625 0.0475
vn 0.4109 0.9105 0.0464
vn -0.9894 -0.1116 -0.0931
vn 0.6982 0.0000 0.7159
vn -0.4156 0.9082 0.0490
vn 0.5391 -0.8388 0.0765
vn 0.5166 -0.8560 0.0192
vn -0.4109 0.9109 0.0383
vn -0.8322 -0.0089 -0.5543
usemtl Material.001
s off
f 33/41/21 34/42/21 28/43/21 27/44/21
f 37/45/22 38/46/22 32/47/22 31/48/22
f 35/49/23 36/50/23 30/51/23 29/52/23
f 39/53/24 40/54/24 26/55/24 25/56/24
f 42/57/25 35/49/25 29/52/25 39/58/25
f 41/59/26 34/60/26 26/61/26 40/62/26
f 38/63/27 28/64/27 34/60/27 41/59/27
f 37/65/28 31/48/28 35/49/28 42/57/28
f 31/48/29 32/47/29 36/50/29 35/49/29
f 25/66/30 26/67/30 34/42/30 33/41/30
f 27/68/31 37/65/31 42/57/31 33/69/31
f 32/47/32 38/63/32 41/59/32 36/50/32
f 36/50/33 41/59/33 40/62/33 30/51/33
f 33/69/34 42/57/34 39/58/34 25/70/34
f 29/52/24 30/51/24 40/54/24 39/53/24
f 27/44/35 28/43/35 38/46/35 37/45/35
