# Blender v2.82 (sub 7) OBJ File: 'bow.blend'
# www.blender.org
mtllib bow.mtl
o Bow_Cube
v 0.086272 -0.106274 -1.684686
v 0.099861 0.050879 -1.657480
v 0.188741 -0.101953 -1.754228
v 0.202329 0.055200 -1.727023
v -0.117912 0.068925 -0.455564
v 0.001873 -0.079213 -0.463676
v -0.118968 -0.079535 -0.457887
v 0.002928 0.069247 -0.461353
v -0.068101 0.028812 -0.253962
v 0.038193 -0.061952 -0.253962
v -0.068101 -0.061952 -0.253962
v 0.038193 0.028812 -0.253962
v 0.021778 -0.057343 -1.936063
v 0.045631 0.081994 -1.905760
v 0.088637 -0.048591 -2.025940
v 0.112490 0.090746 -1.995638
v -0.241624 0.063496 -0.995679
v -0.132600 -0.093393 -1.044347
v -0.247958 -0.095323 -1.009616
v -0.126265 0.065426 -1.030411
v 0.086272 -0.106274 1.684686
v 0.099861 0.050879 1.657480
v 0.188741 -0.101953 1.754228
v 0.202329 0.055200 1.727022
v -0.117912 0.068925 0.455564
v 0.001873 -0.079213 0.463676
v -0.118968 -0.079535 0.457887
v 0.002928 0.069247 0.461353
v -0.058971 -0.051836 0.000000
v -0.058971 0.038929 0.000000
v 0.047323 -0.051836 0.000000
v 0.047323 0.038929 0.000000
v -0.068101 0.028812 0.253962
v 0.038193 -0.061952 0.253962
v -0.068101 -0.061952 0.253962
v 0.038193 0.028812 0.253962
v 0.021778 -0.057343 1.936063
v 0.045631 0.081994 1.905760
v 0.088637 -0.048591 2.025940
v 0.112490 0.090746 1.995638
v -0.241624 0.063496 0.995679
v -0.132600 -0.093393 1.044347
v -0.247958 -0.095323 1.009616
v -0.126265 0.065426 1.030411
v -0.095245 0.054270 -1.340405
v 0.073854 -0.028508 -1.658044
v 0.134959 -0.133580 -1.724558
v 0.153643 0.082506 -1.687150
v 0.214748 -0.022566 -1.753664
v 0.005284 -0.100898 -1.413392
v -0.072386 0.053077 -0.325123
v -0.072518 -0.070973 -0.325413
v 0.043059 0.053117 -0.325847
v 0.042927 -0.070933 -0.326137
v -0.217217 -0.087412 -0.694858
v -0.093940 0.071670 -0.705689
v 0.025058 -0.004922 -0.463600
v -0.058746 -0.107210 -0.461217
v -0.057294 0.096923 -0.458023
v -0.141098 -0.005365 -0.455640
v -0.061824 -0.054997 -0.126981
v 0.044470 0.035767 -0.126981
v -0.005824 0.055947 0.000000
v -0.005824 -0.068854 0.000000
v 0.067253 -0.006454 0.000000
v -0.078901 -0.006454 -0.000000
v -0.061824 0.035767 -0.126981
v 0.044470 -0.054997 -0.126981
v 0.058124 -0.016570 -0.253962
v -0.014954 -0.078971 -0.253962
v -0.014954 0.045831 -0.253962
v -0.088031 -0.016570 -0.253962
v 0.019271 0.013592 -1.920008
v 0.044836 -0.067198 -1.995458
v 0.075119 0.105532 -1.957577
v 0.100684 0.024743 -2.033027
v 0.158865 -0.077769 -1.933336
v 0.179489 0.077084 -1.902304
v 0.072453 -0.085013 -1.846713
v 0.093076 0.069839 -1.815681
v -0.213918 0.070665 -0.687600
v -0.097239 -0.086407 -0.712948
v -0.104770 -0.103806 -1.361292
v 0.014809 0.057178 -1.392504
v -0.182757 0.094239 -1.010432
v -0.191467 -0.124136 -1.029595
v -0.107803 -0.013621 -1.043891
v -0.266421 -0.016276 -0.996135
v -0.095245 0.054270 1.340405
v 0.073854 -0.028508 1.658044
v 0.134959 -0.133580 1.724558
v 0.153643 0.082506 1.687150
v 0.214748 -0.022566 1.753664
v 0.005284 -0.100898 1.413392
v -0.072386 0.053077 0.325123
v -0.072518 -0.070973 0.325413
v 0.043059 0.053117 0.325847
v 0.042927 -0.070933 0.326137
v -0.217217 -0.087412 0.694858
v -0.093940 0.071670 0.705689
v 0.025058 -0.004922 0.463600
v -0.058746 -0.107210 0.461217
v -0.057294 0.096923 0.458023
v -0.141098 -0.005365 0.455640
v -0.061824 -0.054997 0.126981
v 0.044470 0.035767 0.126981
v -0.061824 0.035767 0.126981
v 0.044470 -0.054997 0.126981
v 0.058124 -0.016570 0.253962
v -0.014954 -0.078971 0.253962
v -0.014954 0.045831 0.253962
v -0.088031 -0.016570 0.253962
v 0.019271 0.013592 1.920008
v 0.044836 -0.067198 1.995458
v 0.075119 0.105532 1.957577
v 0.100684 0.024743 2.033027
v 0.158865 -0.077769 1.933336
v 0.179489 0.077084 1.902304
v 0.072453 -0.085013 1.846713
v 0.093076 0.069839 1.815681
v -0.213918 0.070665 0.687600
v -0.097239 -0.086407 0.712948
v -0.104770 -0.103806 1.361292
v 0.014809 0.057178 1.392504
v -0.182757 0.094239 1.010432
v -0.191467 -0.124136 1.029595
v -0.107803 -0.013621 1.043891
v -0.266421 -0.016276 0.996135
v -0.120642 -0.025313 -1.341080
v 0.185261 0.001055 -1.934238
v -0.014820 -0.094212 -0.325830
v -0.094098 -0.008956 -0.325132
v 0.064639 -0.008900 -0.326127
v -0.073094 -0.007180 -0.712710
v -0.157847 -0.116549 -0.705264
v -0.153310 0.100807 -0.695283
v -0.014639 0.076357 -0.325430
v -0.008677 0.052786 -0.126981
v -0.008677 -0.072016 -0.126981
v 0.064400 -0.009615 -0.126981
v -0.081754 -0.009615 -0.126981
v 0.045565 0.024134 -1.998000
v 0.111681 -0.110398 -1.895998
v 0.140060 0.102538 -1.853317
v 0.066480 -0.008915 -1.815077
v -0.038432 0.085363 -1.362538
v -0.051529 -0.131991 -1.391259
v 0.030681 -0.021315 -1.412717
v -0.238063 -0.008562 -0.687837
v -0.120642 -0.025313 1.341080
v 0.185261 0.001055 1.934238
v -0.014820 -0.094212 0.325830
v -0.094098 -0.008956 0.325132
v 0.064639 -0.008900 0.326127
v -0.073094 -0.007180 0.712710
v -0.157847 -0.116549 0.705264
v -0.153310 0.100807 0.695283
v -0.014639 0.076357 0.325430
v -0.008677 0.052786 0.126981
v -0.008677 -0.072016 0.126981
v 0.064400 -0.009615 0.126981
v -0.081754 -0.009615 0.126981
v 0.045565 0.024134 1.998000
v 0.111681 -0.110398 1.895998
v 0.140060 0.102538 1.853317
v 0.066480 -0.008915 1.815077
v -0.038432 0.085363 1.362538
v -0.051529 -0.131991 1.391259
v 0.030681 -0.021315 1.412717
v -0.238063 -0.008562 0.687837
vt 0.375000 0.202293
vt 0.500000 0.202293
vt 0.500000 0.226035
vt 0.375000 0.226035
vt 0.625000 0.202293
vt 0.625000 0.226035
vt 0.625000 0.245580
vt 0.500000 0.245580
vt 0.375000 0.245580
vt 0.625000 0.504420
vt 0.500000 0.504420
vt 0.500000 0.499529
vt 0.625388 0.499626
vt 0.375000 0.504420
vt 0.374612 0.499626
vt 0.351839 0.476839
vt 0.500000 0.476839
vt 0.648161 0.476839
vt 0.125000 0.587463
vt 0.250000 0.587463
vt 0.250000 0.594421
vt 0.125000 0.594421
vt 0.375000 0.587463
vt 0.375000 0.594421
vt 0.375000 0.595415
vt 0.250000 0.595415
vt 0.125000 0.595415
vt 0.625000 0.162537
vt 0.500000 0.162537
vt 0.500000 0.155579
vt 0.625000 0.155579
vt 0.375000 0.162537
vt 0.375000 0.155579
vt 0.375000 0.154586
vt 0.500000 0.154586
vt 0.625000 0.154586
vt 0.500000 0.587463
vt 0.500000 0.594421
vt 0.625000 0.587463
vt 0.625000 0.594421
vt 0.625000 0.595415
vt 0.500000 0.595415
vt 0.375000 0.547707
vt 0.500000 0.547707
vt 0.500000 0.570567
vt 0.375000 0.570567
vt 0.625000 0.547707
vt 0.625000 0.570567
vt 0.125000 0.547707
vt 0.250000 0.547707
vt 0.250000 0.570567
vt 0.125000 0.570567
vt 0.750000 0.547707
vt 0.750000 0.570567
vt 0.875000 0.547707
vt 0.875000 0.570567
vt 0.875000 0.587463
vt 0.750000 0.587463
vt 0.750000 0.594421
vt 0.875000 0.594421
vt 0.875000 0.595415
vt 0.750000 0.595415
vt 0.750000 0.610207
vt 0.625000 0.610207
vt 0.875000 0.610207
vt 0.875000 0.625000
vt 0.750000 0.625000
vt 0.625000 0.625000
vt 0.250000 0.610207
vt 0.125000 0.610207
vt 0.375000 0.610207
vt 0.375000 0.625000
vt 0.250000 0.625000
vt 0.125000 0.625000
vt 0.500000 0.610207
vt 0.500000 0.625000
vt 0.375000 0.125000
vt 0.500000 0.125000
vt 0.500000 0.139793
vt 0.375000 0.139793
vt 0.625000 0.125000
vt 0.625000 0.139793
vt 0.375000 0.273161
vt 0.500000 0.273161
vt 0.500000 0.375000
vt 0.374418 0.375000
vt 0.625000 0.273161
vt 0.625582 0.375000
vt 0.250000 0.504420
vt 0.249903 0.500014
vt 0.125000 0.504420
vt 0.125000 0.500111
vt 0.125000 0.500000
vt 0.249418 0.499418
vt 0.875000 0.504420
vt 0.750000 0.504420
vt 0.750097 0.500014
vt 0.875000 0.500111
vt 0.750582 0.499418
vt 0.875000 0.500000
vt 0.500000 0.250471
vt 0.375000 0.250471
vt 0.625000 0.250471
vt 0.750000 0.523965
vt 0.625000 0.523965
vt 0.875000 0.523965
vt 0.250000 0.523965
vt 0.125000 0.523965
vt 0.375000 0.523965
vt 0.500000 0.523965
vt 0.500000 0.179433
vt 0.375000 0.179433
vt 0.625000 0.179433
vt 0.375000 0.202293
vt 0.375000 0.226146
vt 0.500000 0.226146
vt 0.500000 0.202293
vt 0.375000 0.250000
vt 0.500000 0.250000
vt 0.625000 0.250000
vt 0.625000 0.226146
vt 0.625000 0.202293
vt 0.625000 0.500000
vt 0.625000 0.500000
vt 0.500000 0.500000
vt 0.500000 0.500000
vt 0.625000 0.500000
vt 0.500000 0.500000
vt 0.375000 0.500000
vt 0.375000 0.500000
vt 0.375000 0.500000
vt 0.125000 0.595415
vt 0.125000 0.595415
vt 0.250000 0.595414
vt 0.250000 0.595415
vt 0.125000 0.595415
vt 0.250000 0.595415
vt 0.375000 0.595415
vt 0.375000 0.595415
vt 0.375000 0.595415
vt 0.625000 0.154586
vt 0.625000 0.154586
vt 0.500000 0.154586
vt 0.500000 0.154586
vt 0.625000 0.154586
vt 0.500000 0.154586
vt 0.375000 0.154586
vt 0.375000 0.154586
vt 0.375000 0.154586
vt 0.500000 0.595414
vt 0.500000 0.595415
vt 0.500000 0.595415
vt 0.625000 0.595415
vt 0.625000 0.595415
vt 0.625000 0.595415
vt 0.375000 0.547707
vt 0.375000 0.571561
vt 0.500000 0.571561
vt 0.500000 0.547707
vt 0.625000 0.571561
vt 0.625000 0.547707
vt 0.125000 0.547707
vt 0.125000 0.571561
vt 0.250000 0.571561
vt 0.250000 0.547707
vt 0.750000 0.571561
vt 0.750000 0.547707
vt 0.750000 0.595415
vt 0.875000 0.595415
vt 0.875000 0.571561
vt 0.875000 0.547707
vt 0.750000 0.595415
vt 0.750000 0.595415
vt 0.875000 0.595415
vt 0.875000 0.595415
vt 0.625000 0.610207
vt 0.750000 0.610207
vt 0.875000 0.610207
vt 0.125000 0.610207
vt 0.250000 0.610207
vt 0.375000 0.610207
vt 0.500000 0.610207
vt 0.375000 0.139793
vt 0.500000 0.139793
vt 0.625000 0.139793
vt 0.375000 0.250000
vt 0.375000 0.375000
vt 0.500000 0.375000
vt 0.500000 0.250000
vt 0.625000 0.375000
vt 0.625000 0.250000
vt 0.250000 0.500000
vt 0.250000 0.500000
vt 0.250000 0.500000
vt 0.125000 0.500000
vt 0.125000 0.500000
vt 0.125000 0.500000
vt 0.875000 0.500000
vt 0.875000 0.500000
vt 0.750000 0.500000
vt 0.750000 0.500000
vt 0.875000 0.500000
vt 0.750000 0.500000
vt 0.375000 0.250000
vt 0.500000 0.250000
vt 0.625000 0.250000
vt 0.625000 0.523854
vt 0.750000 0.523854
vt 0.875000 0.523854
vt 0.125000 0.523854
vt 0.250000 0.523854
vt 0.375000 0.523854
vt 0.500000 0.523854
vt 0.375000 0.178439
vt 0.500000 0.178439
vt 0.625000 0.178439
vn -0.9181 -0.1193 -0.3779
vn -0.8812 0.2803 -0.3807
vn -0.8194 0.2689 -0.5063
vn -0.8567 -0.0004 -0.5158
vn 0.9790 0.1627 -0.1231
vn 0.9310 -0.3088 -0.1947
vn 0.7284 -0.2181 -0.6494
vn 0.7837 0.2452 -0.5706
vn -0.3828 -0.9015 0.2017
vn 0.3960 -0.9168 -0.0518
vn 0.3371 -0.9265 0.1672
vn -0.3360 -0.9269 0.1670
vn -0.8937 0.2941 0.3388
vn -0.8987 -0.2945 0.3249
vn -0.9303 -0.3597 0.0719
vn -0.9222 0.3575 0.1472
vn 0.9162 -0.3016 -0.2639
vn 0.9213 0.3003 -0.2469
vn 0.9221 0.3560 0.1519
vn 0.9297 -0.3604 0.0757
vn 0.9516 -0.2925 -0.0947
vn 0.9620 0.2529 -0.1032
vn 0.8948 0.2727 -0.3535
vn 0.8956 -0.2754 -0.3493
vn -0.4326 -0.8992 0.0654
vn 0.4498 -0.8927 -0.0275
vn 0.4189 -0.8975 -0.1382
vn -0.4021 -0.8941 0.1970
vn 0.4339 0.8990 -0.0599
vn -0.4507 0.8924 0.0217
vn -0.4131 0.8928 0.1797
vn 0.4098 0.8994 -0.1523
vn 0.3965 0.9180 0.0032
vn -0.3799 0.8904 0.2506
vn -0.3194 0.8816 0.3475
vn 0.3211 0.8806 0.3484
vn 0.3043 0.9502 -0.0671
vn -0.3048 0.9517 -0.0371
vn -0.3049 0.9522 -0.0169
vn 0.3048 0.9519 -0.0305
vn -0.3043 -0.9502 0.0671
vn 0.3048 -0.9517 0.0371
vn 0.3049 -0.9522 0.0169
vn -0.3048 -0.9519 0.0305
vn 0.9154 -0.4020 -0.0232
vn 0.9135 0.4012 -0.0671
vn 0.9152 0.4019 -0.0306
vn 0.9155 -0.4021 -0.0106
vn -0.9152 -0.4019 0.0306
vn -0.9155 0.4021 0.0106
vn -0.9154 0.4020 0.0232
vn -0.9135 -0.4012 0.0671
vn -0.9410 0.0178 -0.3379
vn -0.8685 0.4201 -0.2629
vn -0.4834 0.5109 -0.7108
vn -0.5513 -0.0060 -0.8343
vn 0.4372 -0.8801 -0.1852
vn -0.5502 -0.8336 -0.0499
vn -0.5050 -0.8630 -0.0096
vn 0.1621 -0.8797 -0.4472
vn -0.4679 0.8735 0.1344
vn 0.5458 0.8367 0.0445
vn 0.3292 0.9336 -0.1411
vn -0.3454 0.8988 0.2698
vn -0.9895 -0.1365 0.0482
vn -0.9458 0.3146 0.0810
vn -0.8488 0.2629 0.4587
vn -0.8962 -0.1828 0.4043
vn 0.6223 0.6985 0.3533
vn -0.5819 0.7302 -0.3582
vn -0.5156 0.8235 -0.2365
vn 0.5186 0.8343 0.1872
vn -0.6224 -0.6983 -0.3535
vn 0.5762 -0.7524 0.3192
vn 0.5125 -0.8320 0.2123
vn -0.5184 -0.8345 -0.1867
vn 0.8454 -0.2769 0.4567
vn 0.8761 0.0141 0.4819
vn 0.9274 0.1269 0.3519
vn 0.8958 -0.2846 0.3414
vn -0.8863 -0.2716 0.3752
vn -0.8886 0.2732 0.3685
vn -0.9528 0.2929 0.0796
vn -0.9627 -0.2523 0.0976
vn -0.9181 -0.1193 0.3779
vn -0.8567 -0.0004 0.5158
vn -0.8194 0.2689 0.5063
vn -0.8812 0.2803 0.3807
vn 0.9790 0.1627 0.1231
vn 0.7837 0.2452 0.5706
vn 0.7284 -0.2181 0.6494
vn 0.9310 -0.3088 0.1947
vn -0.3828 -0.9015 -0.2017
vn -0.3360 -0.9269 -0.1670
vn 0.3371 -0.9265 -0.1672
vn 0.3960 -0.9168 0.0518
vn -0.8937 0.2941 -0.3388
vn -0.9222 0.3575 -0.1472
vn -0.9303 -0.3597 -0.0719
vn -0.8987 -0.2945 -0.3249
vn 0.9162 -0.3016 0.2639
vn 0.9297 -0.3604 -0.0757
vn 0.9221 0.3560 -0.1519
vn 0.9213 0.3003 0.2469
vn 0.9516 -0.2925 0.0947
vn 0.8956 -0.2754 0.3493
vn 0.8948 0.2727 0.3535
vn 0.9620 0.2529 0.1032
vn -0.4326 -0.8992 -0.0654
vn -0.4021 -0.8941 -0.1970
vn 0.4189 -0.8975 0.1382
vn 0.4498 -0.8927 0.0275
vn 0.4339 0.8990 0.0599
vn 0.4098 0.8994 0.1523
vn -0.4131 0.8928 -0.1797
vn -0.4507 0.8924 -0.0217
vn 0.3965 0.9180 -0.0032
vn 0.3211 0.8806 -0.3484
vn -0.3194 0.8816 -0.3475
vn -0.3799 0.8904 -0.2506
vn 0.3043 0.9502 0.0671
vn 0.3048 0.9519 0.0305
vn -0.3049 0.9522 0.0169
vn -0.3048 0.9517 0.0371
vn -0.3043 -0.9502 -0.0671
vn -0.3048 -0.9519 -0.0305
vn 0.3049 -0.9522 -0.0169
vn 0.3048 -0.9517 -0.0371
vn 0.9154 -0.4020 0.0232
vn 0.9155 -0.4021 0.0106
vn 0.9152 0.4019 0.0306
vn 0.9135 0.4012 0.0671
vn -0.9152 -0.4019 -0.0306
vn -0.9135 -0.4012 -0.0671
vn -0.9154 0.4020 -0.0232
vn -0.9155 0.4021 -0.0106
vn -0.9410 0.0178 0.3379
vn -0.5513 -0.0060 0.8343
vn -0.4834 0.5109 0.7108
vn -0.8685 0.4201 0.2629
vn 0.4372 -0.8801 0.1852
vn 0.1621 -0.8797 0.4472
vn -0.5050 -0.8630 0.0096
vn -0.5502 -0.8336 0.0499
vn -0.4679 0.8735 -0.1344
vn -0.3454 0.8988 -0.2698
vn 0.3292 0.9336 0.1411
vn 0.5458 0.8367 -0.0445
vn -0.9895 -0.1365 -0.0482
vn -0.8962 -0.1828 -0.4043
vn -0.8488 0.2629 -0.4587
vn -0.9458 0.3146 -0.0810
vn 0.6223 0.6985 -0.3533
vn 0.5186 0.8343 -0.1872
vn -0.5156 0.8235 0.2365
vn -0.5819 0.7302 0.3582
vn -0.6224 -0.6983 0.3535
vn -0.5184 -0.8345 0.1867
vn 0.5125 -0.8320 -0.2123
vn 0.5762 -0.7524 -0.3192
vn 0.8454 -0.2769 -0.4567
vn 0.8958 -0.2846 -0.3414
vn 0.9274 0.1269 -0.3519
vn 0.8761 0.0141 -0.4819
vn -0.8863 -0.2716 -0.3752
vn -0.9627 -0.2523 -0.0976
vn -0.9528 0.2929 -0.0796
vn -0.8886 0.2732 -0.3685
usemtl Material.001
s off
f 19/1/1 88/2/1 129/3/1 83/4/1
f 88/2/2 17/5/2 45/6/2 129/3/2
f 129/3/3 45/6/3 2/7/3 46/8/3
f 83/4/4 129/3/4 46/8/4 1/9/4
f 4/10/5 49/11/5 130/12/5 78/13/5
f 49/11/6 3/14/6 77/15/6 130/12/6
f 130/12/7 77/15/7 15/16/7 76/17/7
f 78/13/8 130/12/8 76/17/8 16/18/8
f 7/19/9 58/20/9 131/21/9 52/22/9
f 58/20/10 6/23/10 54/24/10 131/21/10
f 131/21/11 54/24/11 10/25/11 70/26/11
f 52/22/12 131/21/12 70/26/12 11/27/12
f 5/28/13 60/29/13 132/30/13 51/31/13
f 60/29/14 7/32/14 52/33/14 132/30/14
f 132/30/15 52/33/15 11/34/15 72/35/15
f 51/31/16 132/30/16 72/35/16 9/36/16
f 6/23/17 57/37/17 133/38/17 54/24/17
f 57/37/18 8/39/18 53/40/18 133/38/18
f 133/38/19 53/40/19 12/41/19 69/42/19
f 54/24/20 133/38/20 69/42/20 10/25/20
f 18/43/21 87/44/21 134/45/21 82/46/21
f 87/44/22 20/47/22 56/48/22 134/45/22
f 134/45/23 56/48/23 8/39/23 57/37/23
f 82/46/24 134/45/24 57/37/24 6/23/24
f 19/49/25 86/50/25 135/51/25 55/52/25
f 86/50/26 18/43/26 82/46/26 135/51/26
f 135/51/27 82/46/27 6/23/27 58/20/27
f 55/52/28 135/51/28 58/20/28 7/19/28
f 20/47/29 85/53/29 136/54/29 56/48/29
f 85/53/30 17/55/30 81/56/30 136/54/30
f 136/54/31 81/56/31 5/57/31 59/58/31
f 56/48/32 136/54/32 59/58/32 8/39/32
f 8/39/33 59/58/33 137/59/33 53/40/33
f 59/58/34 5/57/34 51/60/34 137/59/34
f 137/59/35 51/60/35 9/61/35 71/62/35
f 53/40/36 137/59/36 71/62/36 12/41/36
f 12/41/37 71/62/37 138/63/37 62/64/37
f 71/62/38 9/61/38 67/65/38 138/63/38
f 138/63/39 67/65/39 30/66/39 63/67/39
f 62/64/40 138/63/40 63/67/40 32/68/40
f 11/27/41 70/26/41 139/69/41 61/70/41
f 70/26/42 10/25/42 68/71/42 139/69/42
f 139/69/43 68/71/43 31/72/43 64/73/43
f 61/70/44 139/69/44 64/73/44 29/74/44
f 10/25/45 69/42/45 140/75/45 68/71/45
f 69/42/46 12/41/46 62/64/46 140/75/46
f 140/75/47 62/64/47 32/68/47 65/76/47
f 68/71/48 140/75/48 65/76/48 31/72/48
f 29/77/49 66/78/49 141/79/49 61/80/49
f 66/78/50 30/81/50 67/82/50 141/79/50
f 141/79/51 67/82/51 9/36/51 72/35/51
f 61/80/52 141/79/52 72/35/52 11/34/52
f 13/83/53 73/84/53 142/85/53 74/86/53
f 73/84/54 14/87/54 75/88/54 142/85/54
f 142/85/55 75/88/55 16/18/55 76/17/55
f 74/86/56 142/85/56 76/17/56 15/16/56
f 3/14/57 47/89/57 143/90/57 77/15/57
f 47/89/58 1/91/58 79/92/58 143/90/58
f 143/90/59 79/92/59 13/93/59 74/94/59
f 77/15/60 143/90/60 74/94/60 15/16/60
f 2/95/61 48/96/61 144/97/61 80/98/61
f 48/96/62 4/10/62 78/13/62 144/97/62
f 144/97/63 78/13/63 16/18/63 75/99/63
f 80/98/64 144/97/64 75/99/64 14/100/64
f 1/9/65 46/8/65 145/101/65 79/102/65
f 46/8/66 2/7/66 80/103/66 145/101/66
f 145/101/67 80/103/67 14/87/67 73/84/67
f 79/102/68 145/101/68 73/84/68 13/83/68
f 4/10/69 48/96/69 146/104/69 84/105/69
f 48/96/70 2/95/70 45/106/70 146/104/70
f 146/104/71 45/106/71 17/55/71 85/53/71
f 84/105/72 146/104/72 85/53/72 20/47/72
f 1/91/73 47/89/73 147/107/73 83/108/73
f 47/89/74 3/14/74 50/109/74 147/107/74
f 147/107/75 50/109/75 18/43/75 86/50/75
f 83/108/76 147/107/76 86/50/76 19/49/76
f 3/14/77 49/11/77 148/110/77 50/109/77
f 49/11/78 4/10/78 84/105/78 148/110/78
f 148/110/79 84/105/79 20/47/79 87/44/79
f 50/109/80 148/110/80 87/44/80 18/43/80
f 7/32/81 60/29/81 149/111/81 55/112/81
f 60/29/82 5/28/82 81/113/82 149/111/82
f 149/111/83 81/113/83 17/5/83 88/2/83
f 55/112/84 149/111/84 88/2/84 19/1/84
f 43/114/85 123/115/85 150/116/85 128/117/85
f 123/115/86 21/118/86 90/119/86 150/116/86
f 150/116/87 90/119/87 22/120/87 89/121/87
f 128/117/88 150/116/88 89/121/88 41/122/88
f 24/123/89 118/124/89 151/125/89 93/126/89
f 118/124/90 40/127/90 116/128/90 151/125/90
f 151/125/91 116/128/91 39/129/91 117/130/91
f 93/126/92 151/125/92 117/130/92 23/131/92
f 27/132/93 96/133/93 152/134/93 102/135/93
f 96/133/94 35/136/94 110/137/94 152/134/94
f 152/134/95 110/137/95 34/138/95 98/139/95
f 102/135/96 152/134/96 98/139/96 26/140/96
f 25/141/97 95/142/97 153/143/97 104/144/97
f 95/142/98 33/145/98 112/146/98 153/143/98
f 153/143/99 112/146/99 35/147/99 96/148/99
f 104/144/100 153/143/100 96/148/100 27/149/100
f 26/140/101 98/139/101 154/150/101 101/151/101
f 98/139/102 34/138/102 109/152/102 154/150/102
f 154/150/103 109/152/103 36/153/103 97/154/103
f 101/151/104 154/150/104 97/154/104 28/155/104
f 42/156/105 122/157/105 155/158/105 127/159/105
f 122/157/106 26/140/106 101/151/106 155/158/106
f 155/158/107 101/151/107 28/155/107 100/160/107
f 127/159/108 155/158/108 100/160/108 44/161/108
f 43/162/109 99/163/109 156/164/109 126/165/109
f 99/163/110 27/132/110 102/135/110 156/164/110
f 156/164/111 102/135/111 26/140/111 122/157/111
f 126/165/112 156/164/112 122/157/112 42/156/112
f 44/161/113 100/160/113 157/166/113 125/167/113
f 100/160/114 28/155/114 103/168/114 157/166/114
f 157/166/115 103/168/115 25/169/115 121/170/115
f 125/167/116 157/166/116 121/170/116 41/171/116
f 28/155/117 97/154/117 158/172/117 103/168/117
f 97/154/118 36/153/118 111/173/118 158/172/118
f 158/172/119 111/173/119 33/174/119 95/175/119
f 103/168/120 158/172/120 95/175/120 25/169/120
f 36/153/121 106/176/121 159/177/121 111/173/121
f 106/176/122 32/68/122 63/67/122 159/177/122
f 159/177/123 63/67/123 30/66/123 107/178/123
f 111/173/124 159/177/124 107/178/124 33/174/124
f 35/136/125 105/179/125 160/180/125 110/137/125
f 105/179/126 29/74/126 64/73/126 160/180/126
f 160/180/127 64/73/127 31/72/127 108/181/127
f 110/137/128 160/180/128 108/181/128 34/138/128
f 34/138/129 108/181/129 161/182/129 109/152/129
f 108/181/130 31/72/130 65/76/130 161/182/130
f 161/182/131 65/76/131 32/68/131 106/176/131
f 109/152/132 161/182/132 106/176/132 36/153/132
f 29/77/133 105/183/133 162/184/133 66/78/133
f 105/183/134 35/147/134 112/146/134 162/184/134
f 162/184/135 112/146/135 33/145/135 107/185/135
f 66/78/136 162/184/136 107/185/136 30/81/136
f 37/186/137 114/187/137 163/188/137 113/189/137
f 114/187/138 39/129/138 116/128/138 163/188/138
f 163/188/139 116/128/139 40/127/139 115/190/139
f 113/189/140 163/188/140 115/190/140 38/191/140
f 23/131/141 117/130/141 164/192/141 91/193/141
f 117/130/142 39/129/142 114/194/142 164/192/142
f 164/192/143 114/194/143 37/195/143 119/196/143
f 91/193/144 164/192/144 119/196/144 21/197/144
f 22/198/145 120/199/145 165/200/145 92/201/145
f 120/199/146 38/202/146 115/203/146 165/200/146
f 165/200/147 115/203/147 40/127/147 118/124/147
f 92/201/148 165/200/148 118/124/148 24/123/148
f 21/118/149 119/204/149 166/205/149 90/119/149
f 119/204/150 37/186/150 113/189/150 166/205/150
f 166/205/151 113/189/151 38/191/151 120/206/151
f 90/119/152 166/205/152 120/206/152 22/120/152
f 24/123/153 124/207/153 167/208/153 92/201/153
f 124/207/154 44/161/154 125/167/154 167/208/154
f 167/208/155 125/167/155 41/171/155 89/209/155
f 92/201/156 167/208/156 89/209/156 22/198/156
f 21/197/157 123/210/157 168/211/157 91/193/157
f 123/210/158 43/162/158 126/165/158 168/211/158
f 168/211/159 126/165/159 42/156/159 94/212/159
f 91/193/160 168/211/160 94/212/160 23/131/160
f 23/131/161 94/212/161 169/213/161 93/126/161
f 94/212/162 42/156/162 127/159/162 169/213/162
f 169/213/163 127/159/163 44/161/163 124/207/163
f 93/126/164 169/213/164 124/207/164 24/123/164
f 27/149/165 99/214/165 170/215/165 104/144/165
f 99/214/166 43/114/166 128/117/166 170/215/166
f 170/215/167 128/117/167 41/122/167 121/216/167
f 104/144/168 170/215/168 121/216/168 25/141/168
o String_Cube.001
v 0.163643 -0.048511 1.793041
v 0.176332 -0.025643 1.793041
v 0.145491 -0.038439 1.793041
v 0.158180 -0.015571 1.793041
v 0.163643 -0.048511 -1.788042
v 0.176332 -0.025643 -1.788042
v 0.145491 -0.038439 -1.788042
v 0.158180 -0.015571 -1.788042
v 0.145491 -0.038439 -0.001452
v 0.158180 -0.015571 -0.001452
v 0.163643 -0.048511 -0.001452
v 0.176332 -0.025643 -0.001452
vt 0.375000 0.000000
vt 0.625000 0.000000
vt 0.625000 0.250000
vt 0.375000 0.250000
vt 0.375000 0.375276
vt 0.625000 0.375276
vt 0.625000 0.500000
vt 0.375000 0.500000
vt 0.625000 0.750000
vt 0.375000 0.750000
vt 0.375000 0.874724
vt 0.625000 0.874724
vt 0.625000 1.000000
vt 0.375000 1.000000
vt 0.250276 0.500000
vt 0.250276 0.750000
vt 0.749724 0.500000
vt 0.875000 0.500000
vt 0.875000 0.750000
vt 0.749724 0.750000
vt 0.125000 0.500000
vt 0.125000 0.750000
vn 0.0000 0.0000 1.0000
vn -0.8744 0.4852 0.0000
vn 0.0000 0.0000 -1.0000
vn 0.8744 -0.4852 -0.0000
vn -0.4852 -0.8744 0.0000
vn 0.4852 0.8744 -0.0000
usemtl Material.002
s off
f 171/217/169 172/218/169 174/219/169 173/220/169
f 179/221/170 180/222/170 178/223/170 177/224/170
f 177/224/171 178/223/171 176/225/171 175/226/171
f 181/227/172 182/228/172 172/229/172 171/230/172
f 179/231/173 177/224/173 175/226/173 181/232/173
f 180/233/174 174/234/174 172/235/174 182/236/174
f 178/223/174 180/233/174 182/236/174 176/225/174
f 173/237/173 179/231/173 181/232/173 171/238/173
f 175/226/172 176/225/172 182/228/172 181/227/172
f 173/220/170 174/219/170 180/222/170 179/221/170
