# Blender v2.83.0 OBJ File: 'bone1.blend'
# www.blender.org
mtllib bone1.mtl
o Cylinder
v -6.607086 -0.000000 -1.000000
v 7.071705 0.000000 -0.752261
v -6.607086 -0.707107 -0.707107
v 7.071705 -0.531929 -0.531929
v -6.607086 -1.000000 0.000000
v 7.071705 -0.752261 0.000000
v -6.607086 -0.707107 0.707107
v 7.071705 -0.531929 0.531929
v -6.607086 -0.000000 1.000000
v 7.071705 0.000001 0.752261
v -6.607086 0.707106 0.707107
v 7.071705 0.531930 0.531929
v -6.607086 1.000000 -0.000000
v 7.071705 0.752262 -0.000000
v -6.607086 0.707106 -0.707107
v 7.071705 0.531930 -0.531929
v 6.607086 -0.707106 -0.707107
v 6.607086 0.000000 -1.000000
v 6.607086 -1.000000 0.000000
v 6.607086 -0.707106 0.707107
v 6.607086 0.000001 1.000000
v 6.607086 0.707107 0.707107
v 6.607086 1.000000 -0.000000
v 6.607086 0.707107 -0.707107
v 9.051214 -0.531929 -0.531929
v 9.051214 0.000001 -0.752261
v 9.051214 -0.752261 0.000000
v 9.051214 -0.531929 0.531929
v 9.051214 0.000001 0.752261
v 9.051214 0.531930 0.531929
v 9.051214 0.752262 -0.000000
v 9.051214 0.531930 -0.531929
v 10.514020 0.401375 -0.531929
v 10.110813 0.748323 -0.752261
v 10.681035 0.257665 0.000000
v 10.514020 0.401375 0.531929
v 10.110813 0.748323 0.752261
v 9.707605 1.095270 0.531929
v 9.540591 1.238980 -0.000000
v 9.707605 1.095270 -0.531929
v 11.576997 1.636722 -0.531929
v 11.173791 1.983670 -0.752261
v 11.744012 1.493012 0.000000
v 11.576997 1.636722 0.531929
v 11.173791 1.983670 0.752261
v 10.770583 2.330617 0.531929
v 10.603568 2.474327 -0.000000
v 10.770583 2.330617 -0.531929
v 10.996760 0.499096 -0.834113
v 11.552374 1.144808 -0.834113
v 11.814269 0.919457 0.000000
v 11.258656 0.273745 0.000000
v 9.470335 1.812535 -0.000000
v 10.025950 2.458247 -0.000000
v 10.287844 2.232897 -0.834113
v 9.732228 1.587185 -0.834113
v 10.364495 1.043140 1.179614
v 10.920110 1.688852 1.179614
v 10.287844 2.232897 0.834113
v 9.732228 1.587185 0.834113
v 11.552375 1.144807 0.834113
v 10.996761 0.499095 0.834113
v 10.364495 1.043140 -1.179614
v 10.920110 1.688852 -1.179614
v -4.344809 -0.000000 -0.434670
v 0.000000 0.000000 -0.434670
v 4.344809 0.000000 -0.434670
v 4.344809 -0.307358 -0.307358
v 0.000000 -0.307358 -0.307358
v -4.344809 -0.307358 -0.307358
v 4.344809 -0.434670 0.000000
v 0.000000 -0.434670 0.000000
v -4.344809 -0.434670 0.000000
v 4.344809 -0.307358 0.307358
v 0.000000 -0.307358 0.307358
v -4.344809 -0.307358 0.307358
v 4.344809 0.000000 0.434670
v -0.000000 0.000000 0.434670
v -4.344809 -0.000000 0.434670
v 4.344809 0.307358 0.307358
v -0.000000 0.307358 0.307358
v -4.344809 0.307358 0.307358
v 4.344809 0.434670 -0.000000
v -0.000000 0.434670 -0.000000
v -4.344809 0.434670 -0.000000
v 4.344809 0.307358 -0.307358
v -0.000000 0.307358 -0.307358
v -4.344809 0.307358 -0.307358
v -8.428126 -0.000001 -1.000000
v -8.428126 -0.707108 -0.707107
v -8.428126 -1.000001 0.000000
v -8.428126 -0.707108 0.707107
v -8.428126 -0.000001 1.000000
v -8.428126 0.707105 0.707107
v -8.428126 0.999999 -0.000000
v -8.428126 0.707105 -0.707107
v -7.517607 1.081518 1.081519
v -7.517607 -0.000001 1.529498
v -7.517607 -0.000001 -1.529498
v -7.517607 1.081518 -1.081519
v -7.517607 -1.081520 -1.081519
v -7.517607 -1.081520 1.081519
v -7.517607 -1.529499 0.000000
v -7.517607 1.529498 -0.000000
vt 0.645584 0.396262
vt 0.662534 0.324621
vt 0.707155 0.341508
vt 0.692950 0.410434
vt 0.747192 0.349904
vt 0.739569 0.421951
vt 0.790740 0.350445
vt 0.787635 0.430937
vt 0.858956 0.335897
vt 0.837905 0.440019
vt 0.460775 0.358415
vt 0.435448 0.304595
vt 0.493017 0.296648
vt 0.499966 0.360846
vt 0.549648 0.295791
vt 0.546551 0.369377
vt 0.712462 0.326266
vt 0.670784 0.305789
vt 0.685973 0.281455
vt 0.719714 0.308119
vt 0.608786 0.305752
vt 0.596179 0.381639
vt 0.213308 0.569755
vt 0.334772 0.668222
vt 0.296135 0.730002
vt 0.184338 0.668383
vt 0.749053 0.334616
vt 0.788050 0.331499
vt 0.836914 0.311392
vt 0.439748 0.286249
vt 0.491315 0.276144
vt 0.551788 0.271106
vt 0.615952 0.281867
vt 0.629707 0.247457
vt 0.554732 0.236920
vt 0.554416 0.181499
vt 0.603157 0.188701
vt 0.486284 0.243802
vt 0.782163 0.312959
vt 0.822497 0.286488
vt 0.749969 0.316956
vt 0.432819 0.264998
vt 0.752843 0.156621
vt 0.667644 0.149424
vt 0.671632 0.092228
vt 0.741322 0.091100
vt 0.476634 0.210059
vt 0.505762 0.189338
vt 0.753752 0.243001
vt 0.820800 0.222700
vt 0.642187 0.205562
vt 0.690811 0.221122
vt 0.870886 0.212297
vt 0.519185 0.000095
vt 0.548410 0.000853
vt 0.560518 0.027463
vt 0.548416 0.064338
vt 0.519192 0.089881
vt 0.489967 0.089117
vt 0.477859 0.062509
vt 0.489961 0.025634
vt 0.606611 0.105460
vt 0.555930 0.085845
vt 0.556155 0.079815
vt 0.592139 0.092617
vt 0.503735 0.101455
vt 0.464012 0.121150
vt 0.853384 0.129870
vt 0.812930 0.062520
vt 0.632351 0.130366
vt 0.625017 0.094876
vt 0.908639 0.060575
vt 0.848916 0.013874
vt 0.846831 0.199088
vt 0.902472 0.154167
vt 0.490607 0.141911
vt 0.554035 0.134920
vt 0.611253 0.143728
vt 0.642664 0.163298
vt 0.667671 0.198623
vt 0.753885 0.234379
vt 0.449416 0.175053
vt 0.515646 0.699711
vt 0.536398 0.594001
vt 0.595553 0.611937
vt 0.589445 0.716873
vt 0.571134 0.483294
vt 0.621513 0.498179
vt 0.441240 0.670386
vt 0.480299 0.569514
vt 0.522904 0.466772
vt 0.366941 0.625597
vt 0.431156 0.538193
vt 0.478817 0.449574
vt 0.292271 0.539362
vt 0.394151 0.501629
vt 0.439363 0.432422
vt 0.797135 0.709028
vt 0.768398 0.630870
vt 0.817297 0.620348
vt 0.870341 0.678710
vt 0.771615 0.527098
vt 0.818950 0.532285
vt 0.730187 0.721430
vt 0.713368 0.630302
vt 0.722762 0.520226
vt 0.661268 0.723806
vt 0.655174 0.623871
vt 0.672401 0.510635
vt 0.147374 0.999905
vt 0.035577 0.938286
vt 0.000095 0.815662
vt 0.061714 0.703865
vt 0.331617 0.852626
vt 0.269998 0.964423
vt 0.501395 0.746732
vt 0.582269 0.763154
vt 0.575086 0.815716
vt 0.486222 0.801471
vt 0.660253 0.768491
vt 0.659770 0.818334
vt 0.734747 0.764710
vt 0.807516 0.754712
vt 0.813221 0.796996
vt 0.739352 0.811075
vt 0.418631 0.716714
vt 0.393572 0.773722
vt 0.908639 0.734515
vt 0.892695 0.789321
vn -0.2250 -0.3729 -0.9002
vn -0.2250 -0.9002 -0.3729
vn -0.2250 -0.9002 0.3729
vn -0.2250 -0.3729 0.9002
vn -0.2250 0.3729 0.9002
vn -0.2250 0.9002 0.3729
vn 0.0000 -0.3827 -0.9239
vn -0.2250 0.9002 -0.3729
vn -0.2250 0.3729 -0.9002
vn -0.4733 0.3371 0.8139
vn 0.4419 -0.3433 -0.8288
vn 0.4419 -0.8288 -0.3433
vn 0.4419 -0.8288 0.3433
vn 0.4419 -0.3433 0.8288
vn 0.4419 0.3433 0.8288
vn 0.4419 0.8288 0.3433
vn 0.4419 0.8288 -0.3433
vn 0.4419 0.3433 -0.8288
vn -0.6360 0.6940 -0.3373
vn -0.0000 0.3827 -0.9239
vn -0.0000 0.9239 0.3827
vn 0.0000 -0.3827 0.9239
vn 0.0000 -0.9239 -0.3827
vn -0.0000 0.9239 -0.3827
vn -0.0000 0.3827 0.9239
vn 0.0000 -0.9239 0.3827
vn 0.9561 0.1171 -0.2686
vn -0.2571 0.3363 0.9060
vn 0.4984 -0.7933 0.3497
vn 0.2324 -0.3486 -0.9080
vn -0.2571 0.3363 -0.9060
vn -0.6360 0.6940 0.3373
vn 0.2324 -0.3486 0.9080
vn 0.4984 -0.7933 -0.3497
vn 0.6522 0.7580 0.0000
vn -0.0268 0.9629 -0.2686
vn 0.2611 0.7152 0.6484
vn 0.9561 0.1171 0.2686
vn 0.6682 0.3648 -0.6484
vn 0.2611 0.7152 -0.6484
vn -0.0268 0.9629 0.2686
vn 0.6682 0.3648 0.6484
vn -0.2611 -0.7152 0.6484
vn 0.2901 -0.2496 0.9239
vn -0.9561 -0.1171 0.2686
vn -0.7003 0.6026 0.3827
vn -0.6682 -0.3648 -0.6484
vn -0.2901 0.2496 -0.9239
vn -0.2611 -0.7152 -0.6484
vn 0.2901 -0.2496 -0.9239
vn 0.0268 -0.9629 0.2686
vn 0.7003 -0.6026 0.3827
vn -0.6682 -0.3648 0.6484
vn -0.2901 0.2496 0.9239
vn -0.9561 -0.1171 -0.2686
vn -0.7003 0.6026 -0.3827
vn 0.0268 -0.9629 -0.2686
vn 0.7003 -0.6026 -0.3827
vn 0.2250 0.3729 -0.9002
vn 0.2250 0.9002 -0.3729
vn 0.2250 0.9002 0.3729
vn 0.2250 0.3729 0.9002
vn 0.2250 -0.3729 0.9002
vn 0.2250 -0.9002 0.3729
vn 0.2250 -0.9002 -0.3729
vn 0.2250 -0.3729 -0.9002
vn -1.0000 0.0000 0.0000
vn -0.4733 0.3371 -0.8139
vn -0.4733 -0.3371 -0.8139
vn -0.4733 -0.8139 0.3371
vn -0.4733 0.8139 0.3371
vn -0.4733 -0.3371 0.8139
vn -0.4733 0.8139 -0.3371
vn -0.4733 -0.8139 -0.3371
vn 0.4733 -0.8139 -0.3371
vn 0.4733 0.8139 -0.3371
vn 0.4733 -0.3371 0.8139
vn 0.4733 0.8139 0.3371
vn 0.4733 -0.8139 0.3371
vn 0.4733 -0.3371 -0.8139
vn 0.4733 0.3371 -0.8139
vn 0.4733 0.3371 0.8139
g Cylinder_Cylinder_Material.001
usemtl Material.001
s off
f 67/1/1 18/2/1 17/3/1 68/4/1
f 68/4/2 17/3/2 19/5/2 71/6/2
f 71/6/3 19/5/3 20/7/3 74/8/3
f 74/8/4 20/7/4 21/9/4 77/10/4
f 77/11/5 21/12/5 22/13/5 80/14/5
f 80/14/6 22/13/6 23/15/6 83/16/6
f 4/17/7 2/18/7 26/19/7 25/20/7
f 83/16/8 23/15/8 24/21/8 86/22/8
f 86/22/9 24/21/9 18/2/9 67/1/9
f 98/23/10 97/24/10 94/25/10 93/26/10
f 2/18/11 4/17/11 17/3/11 18/2/11
f 4/17/12 6/27/12 19/5/12 17/3/12
f 6/27/13 8/28/13 20/7/13 19/5/13
f 8/28/14 10/29/14 21/9/14 20/7/14
f 10/30/15 12/31/15 22/13/15 21/12/15
f 12/31/16 14/32/16 23/15/16 22/13/16
f 14/32/17 16/33/17 24/21/17 23/15/17
f 16/33/18 2/18/18 18/2/18 24/21/18
f 32/34/19 31/35/19 39/36/19 40/37/19
f 2/18/20 16/33/20 32/34/20 26/19/20
f 14/32/21 12/31/21 30/38/21 31/35/21
f 10/29/22 8/28/22 28/39/22 29/40/22
f 6/27/23 4/17/23 25/20/23 27/41/23
f 16/33/24 14/32/24 31/35/24 32/34/24
f 12/31/25 10/30/25 29/42/25 30/38/25
f 8/28/26 6/27/26 27/41/26 28/39/26
f 51/43/27 50/44/27 41/45/27 43/46/27
f 30/38/28 29/42/28 37/47/28 38/48/28
f 28/39/29 27/41/29 35/49/29 36/50/29
f 25/20/30 26/19/30 34/51/30 33/52/30
f 26/19/31 32/34/31 40/37/31 34/51/31
f 31/35/32 30/38/32 38/48/32 39/36/32
f 29/40/33 28/39/33 36/50/33 37/53/33
f 27/41/34 25/20/34 33/52/34 35/49/34
f 41/54/35 42/55/35 48/56/35 47/57/35 46/58/35 45/59/35 44/60/35 43/61/35
f 55/62/36 54/63/36 47/64/36 48/65/36
f 59/66/37 58/67/37 45/59/37 46/58/37
f 61/68/38 51/43/38 43/46/38 44/69/38
f 50/44/39 64/70/39 42/71/39 41/45/39
f 64/70/40 55/62/40 48/65/40 42/71/40
f 54/63/41 59/66/41 46/58/41 47/64/41
f 58/72/42 61/68/42 44/69/42 45/73/42
f 37/53/43 36/50/43 62/74/43 57/75/43
f 57/75/44 62/74/44 61/68/44 58/72/44
f 39/36/45 38/48/45 60/76/45 53/77/45
f 53/77/46 60/76/46 59/66/46 54/63/46
f 34/51/47 40/37/47 56/78/47 63/79/47
f 63/79/48 56/78/48 55/62/48 64/70/48
f 33/52/49 34/51/49 63/79/49 49/80/49
f 49/80/50 63/79/50 64/70/50 50/44/50
f 36/50/51 35/49/51 52/81/51 62/74/51
f 62/74/52 52/81/52 51/43/52 61/68/52
f 38/48/53 37/47/53 57/82/53 60/76/53
f 60/76/54 57/82/54 58/67/54 59/66/54
f 40/37/55 39/36/55 53/77/55 56/78/55
f 56/78/56 53/77/56 54/63/56 55/62/56
f 35/49/57 33/52/57 49/80/57 52/81/57
f 52/81/58 49/80/58 50/44/58 51/43/58
f 15/83/59 88/84/59 65/85/59 1/86/59
f 88/84/20 87/87/20 66/88/20 65/85/20
f 87/87/20 86/22/20 67/1/20 66/88/20
f 13/89/60 85/90/60 88/84/60 15/83/60
f 85/90/24 84/91/24 87/87/24 88/84/24
f 84/91/24 83/16/24 86/22/24 87/87/24
f 11/92/61 82/93/61 85/90/61 13/89/61
f 82/93/21 81/94/21 84/91/21 85/90/21
f 81/94/21 80/14/21 83/16/21 84/91/21
f 9/95/62 79/96/62 82/93/62 11/92/62
f 79/96/25 78/97/25 81/94/25 82/93/25
f 78/97/25 77/11/25 80/14/25 81/94/25
f 7/98/63 76/99/63 79/100/63 9/101/63
f 76/99/22 75/102/22 78/103/22 79/100/22
f 75/102/22 74/8/22 77/10/22 78/103/22
f 5/104/64 73/105/64 76/99/64 7/98/64
f 73/105/26 72/106/26 75/102/26 76/99/26
f 72/106/26 71/6/26 74/8/26 75/102/26
f 3/107/65 70/108/65 73/105/65 5/104/65
f 70/108/23 69/109/23 72/106/23 73/105/23
f 69/109/23 68/4/23 71/6/23 72/106/23
f 1/86/66 65/85/66 70/108/66 3/107/66
f 65/85/7 66/88/7 69/109/7 70/108/7
f 66/88/7 67/1/7 68/4/7 69/109/7
f 89/110/67 90/111/67 91/112/67 92/113/67 93/26/67 94/25/67 95/114/67 96/115/67
f 100/116/68 99/117/68 89/118/68 96/119/68
f 99/117/69 101/120/69 90/121/69 89/118/69
f 103/122/70 102/123/70 92/124/70 91/125/70
f 97/24/71 104/126/71 95/127/71 94/25/71
f 102/123/72 98/128/72 93/129/72 92/124/72
f 104/126/73 100/116/73 96/119/73 95/127/73
f 101/120/74 103/122/74 91/125/74 90/121/74
f 3/107/75 5/104/75 103/122/75 101/120/75
f 13/89/76 15/83/76 100/116/76 104/126/76
f 7/98/77 9/101/77 98/128/77 102/123/77
f 11/92/78 13/89/78 104/126/78 97/24/78
f 5/104/79 7/98/79 102/123/79 103/122/79
f 1/86/80 3/107/80 101/120/80 99/117/80
f 15/83/81 1/86/81 99/117/81 100/116/81
f 9/95/82 11/92/82 97/24/82 98/23/82
