# Blender v2.83.0 OBJ File: 'bone3.blend'
# www.blender.org
mtllib bone3.mtl
o Cylinder
v 0.707107 -1.000000 -0.707107
v 1.116368 1.041261 -0.454541
v 1.000000 -1.000000 0.000000
v 1.578783 1.041261 0.000000
v 0.707107 -1.000000 0.707107
v 1.116368 1.041261 0.454541
v 2.208356 -2.829025 -1.000000
v 2.770148 -2.829025 -0.707107
v 3.063041 -2.829025 0.000000
v 2.770148 -2.829025 0.707107
v 2.186660 -2.829025 1.000000
v 1.524285 -2.829025 0.706043
v 1.273217 -2.829025 0.000000
v 1.561270 -2.829025 -0.706376
v 3.092568 -7.259338 -1.000000
v 3.654360 -7.259338 -0.707107
v 3.947253 -7.259338 0.000000
v 3.654360 -7.259338 0.707107
v 3.070873 -7.259338 1.000000
v 2.408498 -7.259338 0.706043
v 2.157429 -7.259338 0.000000
v 2.445482 -7.259338 -0.706376
v 3.069102 -12.059396 -1.000000
v 3.290385 -12.059396 -0.707107
v 3.405752 -12.059396 0.000000
v 3.290385 -12.059396 0.707107
v 3.060557 -12.059396 1.000000
v 2.799655 -12.059396 0.706043
v 2.700762 -12.059396 0.000000
v 2.814223 -12.059396 -0.706376
v 3.069102 -13.314487 -1.000000
v 3.290385 -13.314487 -0.707107
v 3.405752 -13.314487 0.000000
v 3.290385 -13.314487 0.707107
v 3.060557 -13.314487 1.000000
v 2.799655 -13.314487 0.706043
v 2.700762 -13.314487 0.000000
v 2.814223 -13.314487 -0.706376
v 3.357552 -12.686941 0.907909
v 3.062460 -12.686941 1.283973
v 2.727473 -12.686941 0.906543
v 3.505678 -12.686941 0.000012
v 3.357552 -12.686941 -0.907886
v 3.073433 -12.686941 -1.283949
v 2.746178 -12.686941 -0.906947
v 2.600498 -12.686941 0.000012
v 0.000000 -1.000000 -1.000000
v -0.000000 1.041261 -0.642818
v -0.707107 -1.000000 -0.707107
v -1.116368 1.041261 -0.454541
v -1.000000 -1.000000 0.000000
v -1.578783 1.041261 0.000000
v -0.707107 -1.000000 0.707107
v -1.116368 1.041261 0.454541
v 0.000000 -1.000000 1.000000
v -0.000000 1.041261 0.642818
v 0.000000 -1.500183 0.706043
v 0.000000 -1.900667 0.000000
v 0.000000 -1.647062 -0.706376
v -2.208356 -2.829025 -1.000000
v -2.770148 -2.829025 -0.707107
v -3.063041 -2.829025 0.000000
v -2.770148 -2.829025 0.707107
v -2.186660 -2.829025 1.000000
v -1.524285 -2.829025 0.706043
v -1.273217 -2.829025 0.000000
v -1.561270 -2.829025 -0.706376
v -3.092568 -7.259338 -1.000000
v -3.654360 -7.259338 -0.707107
v -3.947253 -7.259338 0.000000
v -3.654360 -7.259338 0.707107
v -3.070873 -7.259338 1.000000
v -2.408498 -7.259338 0.706043
v -2.157429 -7.259338 0.000000
v -2.445482 -7.259338 -0.706376
v -3.069102 -12.059396 -1.000000
v -3.290385 -12.059396 -0.707107
v -3.405752 -12.059396 0.000000
v -3.290385 -12.059396 0.707107
v -3.060557 -12.059396 1.000000
v -2.799655 -12.059396 0.706043
v -2.700762 -12.059396 0.000000
v -2.814223 -12.059396 -0.706376
v -3.069102 -13.314487 -1.000000
v -3.290385 -13.314487 -0.707107
v -3.405752 -13.314487 0.000000
v -3.290385 -13.314487 0.707107
v -3.060557 -13.314487 1.000000
v -2.799655 -13.314487 0.706043
v -2.700762 -13.314487 0.000000
v -2.814223 -13.314487 -0.706376
v -3.357552 -12.686941 0.907909
v -3.062460 -12.686941 1.283973
v -2.727473 -12.686941 0.906543
v -3.505678 -12.686941 0.000012
v -3.357552 -12.686941 -0.907886
v -3.073433 -12.686941 -1.283949
v -2.746178 -12.686941 -0.906947
v -2.600498 -12.686941 0.000012
v 0.000000 0.000000 -0.534984
v 0.707107 0.000000 -0.378291
v 1.000000 0.000000 0.000000
v 0.707107 0.000000 0.378291
v 0.000000 0.000000 0.534984
v -0.707107 0.000000 -0.378291
v -1.000000 0.000000 0.000000
v -0.707107 0.000000 0.378291
v 0.672564 2.657803 -0.273841
v 0.951149 2.657803 0.000000
v 0.672564 2.657803 0.273841
v -0.000000 2.657803 -0.387270
v -0.672564 2.657803 -0.273841
v -0.951149 2.657803 0.000000
v -0.672564 2.657803 0.273841
v -0.000000 2.657803 0.387270
vt 0.196922 0.166883
vt 0.198156 0.122882
vt 0.241783 0.122918
vt 0.224107 0.166913
vt 0.738741 0.618741
vt 0.739296 0.574174
vt 0.762842 0.573481
vt 0.757417 0.618302
vt 0.458570 0.167028
vt 0.434692 0.123048
vt 0.459135 0.122908
vt 0.475133 0.166911
vt 0.507269 0.122850
vt 0.506069 0.166863
vt 0.785895 0.731197
vt 0.755673 0.731197
vt 0.755673 0.677419
vt 0.785895 0.666815
vt 0.394526 0.286300
vt 0.422011 0.286210
vt 0.386057 0.473333
vt 0.358572 0.473423
vt 0.725437 0.731197
vt 0.725437 0.665252
vt 0.816324 0.592496
vt 0.786057 0.604867
vt 0.786057 0.517728
vt 0.816324 0.505357
vt 0.199063 0.236418
vt 0.202542 0.209032
vt 0.293399 0.286285
vt 0.263291 0.286342
vt 0.700563 0.051587
vt 0.732331 0.051223
vt 0.725518 0.240046
vt 0.693750 0.240410
vt 0.759462 0.052050
vt 0.752648 0.240873
vt 0.329978 0.473411
vt 0.299870 0.473468
vt 0.479155 0.209047
vt 0.511721 0.208957
vt 0.846592 0.604867
vt 0.846592 0.517728
vt 0.508247 0.230174
vt 0.445717 0.286300
vt 0.228097 0.209088
vt 0.312982 0.286341
vt 0.329274 0.676154
vt 0.315285 0.676211
vt 0.870896 0.693192
vt 0.888715 0.692430
vt 0.885832 0.895582
vt 0.871426 0.895849
vt 0.921077 0.692138
vt 0.947568 0.692697
vt 0.944685 0.895849
vt 0.916415 0.895548
vt 0.675710 0.241796
vt 0.691258 0.443738
vt 0.676683 0.444236
vt 0.879148 0.506701
vt 0.911510 0.506408
vt 0.409763 0.473423
vt 0.938001 0.506967
vt 0.349561 0.473467
vt 0.314923 0.702678
vt 0.332885 0.702606
vt 0.329342 0.729167
vt 0.315353 0.729223
vt 0.859753 0.922280
vt 0.878250 0.921937
vt 0.886032 0.948563
vt 0.871626 0.948830
vt 0.917517 0.921893
vt 0.953815 0.922279
vt 0.944885 0.948830
vt 0.916615 0.948529
vt 0.664876 0.470633
vt 0.683590 0.469994
vt 0.691489 0.496677
vt 0.676914 0.497175
vt 0.750350 0.444152
vt 0.721713 0.443710
vt 0.386900 0.676073
vt 0.373950 0.676163
vt 0.375530 0.824008
vt 0.364190 0.813276
vt 0.384309 0.810055
vt 0.375336 0.751055
vt 0.354589 0.754298
vt 0.362314 0.740544
vt 0.384309 0.779837
vt 0.354514 0.784560
vt 0.722693 0.469958
vt 0.759462 0.470525
vt 0.750581 0.497091
vt 0.721944 0.496649
vt 0.373647 0.702606
vt 0.390274 0.702491
vt 0.387009 0.729084
vt 0.374059 0.729174
vt 0.165986 0.166913
vt 0.150023 0.122918
vt 0.149421 0.166985
vt 0.125578 0.123005
vt 0.696053 0.618174
vt 0.677670 0.618838
vt 0.677516 0.573993
vt 0.700556 0.572945
vt 0.533256 0.166911
vt 0.550897 0.122908
vt 0.785895 0.795580
vt 0.755673 0.784976
vt 0.622225 0.286300
vt 0.658952 0.473422
vt 0.638475 0.473332
vt 0.601749 0.286209
vt 0.725437 0.797143
vt 0.817978 0.677138
vt 0.817978 0.764277
vt 0.787710 0.751906
vt 0.787710 0.664767
vt 0.134962 0.286342
vt 0.111883 0.286285
vt 0.856923 0.051577
vt 0.849733 0.239916
vt 0.822865 0.239552
vt 0.830054 0.051213
vt 0.790584 0.239999
vt 0.797774 0.051660
vt 0.098863 0.473468
vt 0.075784 0.473411
vt 0.537277 0.209047
vt 0.848246 0.664767
vt 0.848246 0.751906
vt 0.571009 0.286300
vt 0.085289 0.286341
vt 0.169976 0.209088
vt 0.788696 0.443170
vt 0.773924 0.443559
vt 0.771885 0.240978
vt 0.077009 0.676154
vt 0.064409 0.676211
vt 0.049190 0.473467
vt 0.920378 0.236080
vt 0.916455 0.439738
vt 0.885813 0.439783
vt 0.888205 0.236517
vt 0.638470 0.676072
vt 0.624230 0.676163
vt 0.607735 0.473423
vt 0.939175 0.052019
vt 0.947497 0.236937
vt 0.912056 0.051163
vt 0.879883 0.051599
vt 0.781266 0.469561
vt 0.789167 0.496149
vt 0.774396 0.496538
vt 0.762300 0.470061
vt 0.080263 0.702606
vt 0.077077 0.729167
vt 0.064477 0.729223
vt 0.064086 0.702678
vt 0.917415 0.465988
vt 0.916651 0.492677
vt 0.886009 0.492722
vt 0.878072 0.466045
vt 0.642001 0.702490
vt 0.638579 0.729084
vt 0.624339 0.729174
vt 0.623717 0.702607
vt 0.819228 0.442986
vt 0.847620 0.443121
vt 0.871550 0.440203
vt 0.870890 0.237717
vt 0.945105 0.440203
vt 0.406219 0.740544
vt 0.414998 0.754496
vt 0.394879 0.751276
vt 0.406025 0.813497
vt 0.393003 0.824008
vt 0.385278 0.810254
vt 0.414998 0.784715
vt 0.385203 0.779992
vt 0.820468 0.469325
vt 0.819700 0.495965
vt 0.856923 0.469498
vt 0.848092 0.496100
vt 0.871746 0.493142
vt 0.859759 0.466584
vt 0.954201 0.466584
vt 0.945301 0.493142
vt 0.696516 0.660352
vt 0.664347 0.661016
vt 0.723640 0.661016
vt 0.709391 0.618838
vt 0.757772 0.660513
vt 0.770226 0.618741
vt 0.784266 0.660953
vt 0.725412 0.660953
vt 0.151285 0.054726
vt 0.166011 0.054674
vt 0.741796 0.506603
vt 0.755982 0.506186
vt 0.195010 0.054652
vt 0.221293 0.054674
vt 0.680521 0.506818
vt 0.694402 0.506186
vt 0.460346 0.054770
vt 0.475072 0.054686
vt 0.504070 0.054651
vt 0.530355 0.054686
vt 0.696640 0.701421
vt 0.696640 0.730230
vt 0.687065 0.743757
vt 0.673523 0.734078
vt 0.663948 0.706862
vt 0.663948 0.678053
vt 0.673523 0.664526
vt 0.687065 0.674206
vn 0.1845 -0.1225 -0.9752
vn 0.6933 -0.3520 -0.6288
vn 0.6933 -0.3520 0.6288
vn 0.1845 -0.1225 0.9752
vn -0.5959 -0.7385 0.3154
vn 0.4468 0.0892 0.8902
vn -0.5771 -0.7752 -0.2568
vn 0.6397 0.7215 0.2650
vn -0.3386 -0.4239 -0.8401
vn -0.9260 -0.1848 0.3293
vn -0.9105 -0.1817 -0.3713
vn -0.4118 -0.0822 -0.9076
vn 0.3726 0.4328 0.8209
vn 0.6397 0.7215 -0.2650
vn -0.3806 -0.4473 0.8094
vn 0.3765 0.4396 -0.8155
vn -0.5455 -0.0196 -0.8379
vn 0.5988 -0.0242 -0.8005
vn 0.9568 -0.0902 0.2762
vn -0.5370 -0.0213 0.8433
vn 0.9086 0.1813 -0.3763
vn -0.4043 -0.0807 0.9111
vn 0.9086 0.1813 0.3763
vn 0.4603 0.0919 -0.8830
vn -0.7250 -0.2798 -0.6293
vn 0.7687 -0.2681 -0.5807
vn 0.9750 -0.1553 0.1591
vn -0.7167 -0.2857 0.6361
vn -0.9579 -0.0910 -0.2722
vn -0.9663 -0.0941 0.2395
vn 0.5843 -0.0228 0.8112
vn 0.9568 -0.0902 -0.2762
vn 0.0000 -1.0000 0.0000
vn -0.9753 -0.1558 -0.1567
vn -0.9782 -0.1563 0.1370
vn 0.7572 -0.2712 0.5942
vn 0.9750 -0.1552 -0.1591
vn 0.9750 0.1552 -0.1591
vn 0.7572 0.2712 0.5942
vn -0.9782 0.1563 0.1370
vn -0.9753 0.1558 -0.1567
vn -0.7167 0.2857 0.6361
vn 0.9750 0.1553 0.1591
vn 0.7687 0.2681 -0.5807
vn -0.7250 0.2798 -0.6293
vn -0.1845 -0.1225 -0.9752
vn -0.6933 -0.3520 -0.6288
vn -0.6933 -0.3520 0.6288
vn -0.1845 -0.1225 0.9752
vn 0.5959 -0.7385 0.3154
vn -0.4468 0.0892 0.8902
vn 0.5771 -0.7752 -0.2568
vn -0.6397 0.7215 0.2650
vn 0.3386 -0.4239 -0.8401
vn 0.9260 -0.1848 0.3293
vn 0.9105 -0.1817 -0.3713
vn 0.4118 -0.0822 -0.9076
vn -0.3726 0.4328 0.8209
vn -0.6397 0.7215 -0.2650
vn 0.3806 -0.4473 0.8094
vn -0.3765 0.4396 -0.8155
vn 0.5455 -0.0196 -0.8379
vn -0.5988 -0.0242 -0.8005
vn -0.9568 -0.0902 0.2762
vn 0.5370 -0.0213 0.8433
vn -0.9086 0.1813 -0.3763
vn 0.4043 -0.0807 0.9111
vn -0.9086 0.1813 0.3763
vn -0.4603 0.0919 -0.8830
vn 0.7250 -0.2798 -0.6293
vn -0.7687 -0.2681 -0.5807
vn -0.9750 -0.1553 0.1591
vn 0.7167 -0.2857 0.6361
vn 0.9579 -0.0910 -0.2722
vn 0.9663 -0.0941 0.2395
vn -0.5843 -0.0228 0.8112
vn -0.9568 -0.0902 -0.2762
vn 0.9753 -0.1558 -0.1567
vn 0.9782 -0.1563 0.1370
vn -0.7572 -0.2712 0.5942
vn -0.9750 -0.1552 -0.1591
vn -0.9750 0.1552 -0.1591
vn -0.7572 0.2712 0.5942
vn 0.9782 0.1563 0.1370
vn 0.9753 0.1558 -0.1567
vn 0.7167 0.2857 0.6361
vn -0.9750 0.1553 0.1591
vn -0.7687 0.2681 -0.5807
vn 0.7250 0.2798 -0.6293
vn -0.2834 0.3538 0.8914
vn -0.8773 0.0778 0.4735
vn -0.8773 0.0778 -0.4735
vn -0.2834 0.3538 -0.8914
vn 0.2834 0.3538 0.8914
vn 0.8773 0.0778 0.4735
vn 0.8773 0.0778 -0.4735
vn 0.2834 0.3538 -0.8914
vn -0.6764 0.2626 -0.6881
vn 0.6764 0.2626 -0.6881
vn 0.1643 0.1540 -0.9743
vn -0.6764 0.2626 0.6881
vn 0.6764 0.2626 0.6881
vn -0.1643 0.1540 -0.9743
vn -0.1643 0.1540 0.9743
vn 0.1643 0.1540 0.9743
vn 0.0000 1.0000 0.0000
g Cylinder_Cylinder_Material.001
usemtl Material.001
s off
f 100/1/1 48/2/1 2/3/1 101/4/1
f 101/5/2 2/6/2 4/7/2 102/8/2
f 102/9/3 4/10/3 6/11/3 103/12/3
f 103/12/4 6/11/4 56/13/4 104/14/4
f 57/15/5 58/16/5 13/17/5 12/18/5
f 10/19/6 11/20/6 19/21/6 18/22/6
f 58/16/7 59/23/7 14/24/7 13/17/7
f 3/25/8 5/26/8 10/27/8 9/28/8
f 59/29/9 47/30/9 7/31/9 14/32/9
f 12/33/10 13/34/10 21/35/10 20/36/10
f 13/34/11 14/37/11 22/38/11 21/35/11
f 14/32/12 7/31/12 15/39/12 22/40/12
f 5/41/13 55/42/13 11/20/13 10/19/13
f 1/43/14 3/25/14 9/28/14 8/44/14
f 55/42/15 57/45/15 12/46/15 11/20/15
f 47/30/16 1/47/16 8/48/16 7/31/16
f 22/40/17 15/39/17 23/49/17 30/50/17
f 15/51/18 16/52/18 24/53/18 23/54/18
f 17/55/19 18/56/19 26/57/19 25/58/19
f 19/59/20 20/36/20 28/60/20 27/61/20
f 8/62/21 9/63/21 17/55/21 16/52/21
f 11/20/22 12/46/22 20/64/22 19/21/22
f 9/63/23 10/65/23 18/56/23 17/55/23
f 7/31/24 8/48/24 16/66/24 15/39/24
f 45/67/25 44/68/25 31/69/25 38/70/25
f 44/71/26 43/72/26 32/73/26 31/74/26
f 42/75/27 39/76/27 34/77/27 33/78/27
f 40/79/28 41/80/28 36/81/28 35/82/28
f 21/35/29 22/38/29 30/83/29 29/84/29
f 20/36/30 21/35/30 29/84/30 28/60/30
f 18/22/31 19/21/31 27/85/31 26/86/31
f 16/52/32 17/55/32 25/58/32 24/53/32
f 31/87/33 32/88/33 38/89/33
f 36/90/33 34/91/33 35/92/33
f 37/93/33 33/94/33 34/91/33 36/90/33
f 38/89/33 32/88/33 33/94/33 37/93/33
f 46/95/34 45/96/34 38/97/34 37/98/34
f 41/80/35 46/95/35 37/98/35 36/81/35
f 39/99/36 40/100/36 35/101/36 34/102/36
f 43/72/37 42/75/37 33/78/37 32/73/37
f 24/53/38 25/58/38 42/75/38 43/72/38
f 26/86/39 27/85/39 40/100/39 39/99/39
f 28/60/40 29/84/40 46/95/40 41/80/40
f 29/84/41 30/83/41 45/96/41 46/95/41
f 27/61/42 28/60/42 41/80/42 40/79/42
f 25/58/43 26/57/43 39/76/43 42/75/43
f 23/54/44 24/53/44 43/72/44 44/71/44
f 30/50/45 23/49/45 44/68/45 45/67/45
f 100/1/46 105/103/46 50/104/46 48/2/46
f 105/103/47 106/105/47 52/106/47 50/104/47
f 106/107/48 107/108/48 54/109/48 52/110/48
f 107/111/49 104/14/49 56/13/49 54/112/49
f 57/15/50 65/113/50 66/114/50 58/16/50
f 63/115/51 71/116/51 72/117/51 64/118/51
f 58/16/52 66/114/52 67/119/52 59/23/52
f 51/120/53 62/121/53 63/122/53 53/123/53
f 59/29/54 67/124/54 60/125/54 47/30/54
f 65/126/55 73/127/55 74/128/55 66/129/55
f 66/129/56 74/128/56 75/130/56 67/131/56
f 67/124/57 75/132/57 68/133/57 60/125/57
f 53/134/58 63/115/58 64/118/58 55/42/58
f 49/135/59 61/136/59 62/121/59 51/120/59
f 55/42/60 64/118/60 65/137/60 57/45/60
f 47/30/61 60/125/61 61/138/61 49/139/61
f 75/130/62 83/140/62 76/141/62 68/142/62
f 68/133/63 76/143/63 77/144/63 69/145/63
f 70/146/64 78/147/64 79/148/64 71/149/64
f 72/117/65 80/150/65 81/151/65 73/152/65
f 61/153/66 69/154/66 70/146/66 62/155/66
f 64/118/67 72/117/67 73/152/67 65/137/67
f 62/155/68 70/146/68 71/149/68 63/156/68
f 60/125/69 68/133/69 69/145/69 61/138/69
f 98/157/70 91/158/70 84/159/70 97/160/70
f 97/161/71 84/162/71 85/163/71 96/164/71
f 95/165/72 86/166/72 87/167/72 92/168/72
f 93/169/73 88/170/73 89/171/73 94/172/73
f 74/128/74 82/173/74 83/140/74 75/130/74
f 73/127/75 81/174/75 82/173/75 74/128/75
f 71/149/76 79/148/76 80/175/76 72/176/76
f 69/154/77 77/177/77 78/147/77 70/146/77
f 84/178/33 91/179/33 85/180/33
f 89/181/33 88/182/33 87/183/33
f 90/184/33 89/181/33 87/183/33 86/185/33
f 91/179/33 90/184/33 86/185/33 85/180/33
f 99/186/78 90/187/78 91/158/78 98/157/78
f 94/188/79 89/189/79 90/187/79 99/186/79
f 92/168/80 87/167/80 88/190/80 93/191/80
f 96/192/81 85/193/81 86/166/81 95/165/81
f 77/177/82 96/192/82 95/165/82 78/147/82
f 79/148/83 92/168/83 93/191/83 80/175/83
f 81/174/84 94/188/84 99/186/84 82/173/84
f 82/173/85 99/186/85 98/157/85 83/140/85
f 80/150/86 93/169/86 94/172/86 81/151/86
f 78/147/87 95/165/87 92/168/87 79/148/87
f 76/143/88 97/161/88 96/164/88 77/144/88
f 83/140/89 98/157/89 97/160/89 76/141/89
f 53/134/90 55/42/90 104/14/90 107/111/90
f 51/194/91 53/195/91 107/108/91 106/107/91
f 49/196/92 51/194/92 106/107/92 105/197/92
f 47/30/93 49/139/93 105/103/93 100/1/93
f 5/41/94 103/12/94 104/14/94 55/42/94
f 3/198/95 102/8/95 103/199/95 5/200/95
f 1/201/96 101/5/96 102/8/96 3/198/96
f 47/30/97 100/1/97 101/4/97 1/47/97
f 50/104/98 52/106/98 113/202/98 112/203/98
f 4/7/99 2/6/99 108/204/99 109/205/99
f 2/3/100 48/2/100 111/206/100 108/207/100
f 52/110/101 54/109/101 114/208/101 113/209/101
f 6/11/102 4/10/102 109/210/102 110/211/102
f 48/2/103 50/104/103 112/203/103 111/206/103
f 54/112/104 56/13/104 115/212/104 114/213/104
f 56/13/105 6/11/105 110/211/105 115/212/105
f 111/214/106 112/215/106 113/216/106 114/217/106 115/218/106 110/219/106 109/220/106 108/221/106
