# Blender v2.83.0 OBJ File: 'sketchy bridge.blend'
# www.blender.org
mtllib sketchy bridge.mtl
o Cylinder.001_Cylinder.002
v -105.372353 -0.160745 -9.499360
v -103.609962 1.142821 -9.888120
v -105.396362 -0.126951 -9.359299
v -103.752594 1.343587 -9.056031
v -105.507004 -0.051016 -9.301609
v -104.409897 1.794704 -8.713301
v -105.620964 0.009879 -9.369732
v -105.086914 2.156473 -9.118011
v -105.652428 0.009879 -9.512370
v -105.273842 2.156473 -9.965406
v -105.577705 -0.051016 -9.622114
v -104.829910 1.794704 -10.617382
v -105.453056 -0.126951 -9.616324
v -104.089417 1.343587 -10.582986
v -103.843872 0.762803 -9.836523
v -103.986496 0.963569 -9.004435
v -104.643806 1.414687 -8.661703
v -105.320824 1.776455 -9.066414
v -105.507744 1.776455 -9.913810
v -105.063820 1.414687 -10.565784
v -104.323326 0.963569 -10.531389
v -104.607361 1.154895 -9.533341
v -104.718002 1.230830 -9.475651
v -104.831963 1.291725 -9.543775
v -104.863426 1.291725 -9.686413
v -104.788704 1.230830 -9.796156
v -104.664062 1.154895 -9.790367
v -104.583359 1.121101 -9.673403
v -23.858475 0.288304 11.441377
v 58.827194 0.288300 -19.789421
v -25.328186 0.288308 7.550218
v 57.357483 0.288300 -23.680576
v -107.162704 0.000008 -7.295268
v -20.766960 0.000008 11.361020
v -106.284737 0.000009 -11.361019
v -19.889000 0.000008 7.295266
v -23.858475 0.121926 11.441377
v 58.827194 0.121926 -19.789421
v -25.328186 0.121934 7.550216
v 57.357483 0.121934 -23.680576
v -107.162704 -0.166369 -7.295268
v -20.766953 -0.166373 11.361020
v -106.284737 -0.166367 -11.361019
v -19.888992 -0.166373 7.295266
v -22.849258 -0.160739 8.821235
v -22.849266 1.142831 7.016479
v -22.717667 -0.126945 8.874848
v -22.067436 1.343594 7.334992
v -22.685158 -0.051009 8.995322
v -21.874336 1.794713 8.050694
v -22.776230 0.009889 9.091929
v -22.415375 2.156480 8.624639
v -22.922295 0.009889 9.091929
v -23.283150 2.156480 8.624642
v -23.013367 -0.051005 8.995318
v -23.824188 1.794713 8.050694
v -22.980865 -0.126945 8.874848
v -23.631096 1.343594 7.334991
v -22.849258 0.762811 7.256005
v -22.067436 0.963578 7.574527
v -21.874336 1.414693 8.290227
v -22.415382 1.776463 8.864175
v -23.283142 1.776463 8.864173
v -23.824188 1.414693 8.290221
v -23.631088 0.963578 7.574525
v -22.717667 1.154900 8.066882
v -22.685158 1.230836 8.187354
v -22.776230 1.291734 8.283959
v -22.922295 1.291734 8.283963
v -23.013367 1.230836 8.187352
v -22.980865 1.154900 8.066884
v -22.849258 1.121106 8.013267
vt 0.692997 0.246640
vt 0.680903 0.225602
vt 0.726022 0.202227
vt 0.732518 0.228599
vt 0.784095 0.190833
vt 0.782515 0.221714
vt 0.862106 0.197357
vt 0.858728 0.237741
vt 0.623417 0.388478
vt 0.594456 0.385142
vt 0.602340 0.333263
vt 0.626482 0.340005
vt 0.620342 0.290783
vt 0.640086 0.302681
vt 0.500156 0.392095
vt 0.484750 0.341933
vt 0.514362 0.298612
vt 0.566694 0.294754
vt 0.548980 0.411325
vt 0.646483 0.255451
vt 0.662470 0.271803
vt 0.794884 0.542581
vt 0.778732 0.543545
vt 0.767908 0.531519
vt 0.770561 0.515557
vt 0.784695 0.507680
vt 0.799666 0.513819
vt 0.804200 0.529351
vt 0.728540 0.329757
vt 0.746313 0.321890
vt 0.712397 0.340143
vt 0.698641 0.353097
vt 0.688850 0.368944
vt 0.783893 0.315097
vt 0.801639 0.316528
vt 0.765044 0.316860
vt 0.822909 0.488006
vt 0.835900 0.482104
vt 0.848975 0.476544
vt 0.862106 0.471283
vt 0.797291 0.500830
vt 0.810032 0.494256
vt 0.130747 0.003523
vt 0.077218 0.501254
vt 0.053795 0.498735
vt 0.107323 0.001004
vt 0.179168 0.000067
vt 0.179168 0.492028
vt 0.156016 0.492028
vt 0.156017 0.000067
vt 0.023588 0.999933
vt 0.000165 0.997414
vt 0.053695 0.499672
vt 0.077118 0.502191
vt 0.131955 0.000067
vt 0.149409 0.000113
vt 0.148436 0.370991
vt 0.130982 0.370946
vt 0.107424 0.000067
vt 0.130847 0.002586
vt 0.130847 0.507490
vt 0.130747 0.508427
vt 0.000168 0.492500
vt 0.000067 0.493436
vt 0.180229 0.046728
vt 0.180229 0.069879
vt 0.179303 0.069879
vt 0.179303 0.046728
vt 0.155882 0.532778
vt 0.154911 0.903671
vt 0.148437 0.903710
vt 0.149409 0.532817
vt 0.154909 0.370952
vt 0.155882 0.000074
vt 0.752017 0.577867
vt 0.744776 0.559046
vt 0.784866 0.546730
vt 0.788062 0.569941
vt 0.836814 0.545454
vt 0.833217 0.573179
vt 0.894470 0.561464
vt 0.884304 0.593087
vt 0.658323 0.725264
vt 0.623368 0.715633
vt 0.641976 0.648108
vt 0.670564 0.658582
vt 0.673181 0.604932
vt 0.691351 0.621821
vt 0.497283 0.710020
vt 0.484750 0.641110
vt 0.530810 0.588345
vt 0.600784 0.591460
vt 0.558975 0.743186
vt 0.708533 0.576660
vt 0.720088 0.595188
vt 0.839518 0.848211
vt 0.825429 0.849984
vt 0.815259 0.840075
vt 0.816665 0.825946
vt 0.828588 0.818236
vt 0.842051 0.822750
vt 0.846915 0.836090
vt 0.767549 0.664114
vt 0.784136 0.658907
vt 0.756181 0.677473
vt 0.742758 0.688282
vt 0.736680 0.702255
vt 0.815252 0.649795
vt 0.832413 0.649814
vt 0.799011 0.649976
vt 0.860820 0.799107
vt 0.871877 0.793223
vt 0.883125 0.787621
vt 0.894470 0.782189
vt 0.839127 0.811570
vt 0.849882 0.805198
vn 0.8378 -0.4804 0.2595
vn 0.3938 -0.1187 0.9115
vn -0.3467 0.3325 0.8771
vn -0.8261 0.5332 0.1822
vn -0.6835 0.3324 -0.6499
vn 0.5207 0.8460 -0.1149
vn -0.0262 -0.1187 -0.9926
vn 0.6508 -0.4804 -0.5879
vn -0.5207 -0.8460 0.1149
vn -0.4294 -0.9024 0.0355
vn -0.5196 -0.8542 -0.0183
vn -0.6071 -0.7942 0.0273
vn -0.6261 -0.7674 0.1381
vn -0.5622 -0.7942 0.2306
vn -0.4636 -0.8542 0.2352
vn -0.4045 -0.9024 0.1484
vn 0.3938 -0.1186 0.9115
vn -0.6835 0.3325 -0.6499
vn -0.0262 -0.1186 -0.9926
vn 0.0000 1.0000 0.0000
vn -0.0000 -1.0000 -0.0000
vn -0.9355 0.0000 0.3533
vn 0.3533 0.0000 0.9355
vn 0.9355 0.0000 -0.3533
vn -0.3533 0.0000 -0.9355
vn -0.9775 -0.0000 -0.2111
vn -0.2111 0.0000 0.9775
vn 0.9775 0.0000 0.2111
vn 0.2111 0.0000 -0.9775
vn 0.4339 -0.4804 -0.7622
vn 0.9749 -0.1187 -0.1882
vn 0.7818 0.3325 0.5275
vn 0.0000 0.5332 0.8460
vn -0.7818 0.3325 0.5275
vn -0.0000 0.8460 -0.5332
vn -0.9749 -0.1187 -0.1882
vn -0.4339 -0.4804 -0.7622
vn -0.0000 -0.8460 0.5332
vn -0.0578 -0.9024 0.4270
vn -0.1298 -0.8542 0.5034
vn -0.1041 -0.7942 0.5987
vn 0.0000 -0.7674 0.6411
vn 0.1041 -0.7942 0.5987
vn 0.1298 -0.8542 0.5034
vn 0.0578 -0.9024 0.4270
vn 0.9749 -0.1187 -0.1883
vn -0.9749 -0.1186 -0.1882
g Cylinder.001_Cylinder.002_Material.001
usemtl Material.001
s off
f 15/1/1 2/2/1 4/3/1 16/4/1
f 16/4/2 4/3/2 6/5/2 17/6/2
f 17/6/3 6/5/3 8/7/3 18/8/3
f 18/9/4 8/10/4 10/11/4 19/12/4
f 19/12/5 10/11/5 12/13/5 20/14/5
f 4/15/6 2/16/6 14/17/6 12/18/6 10/11/6 8/10/6 6/19/6
f 20/14/7 12/13/7 14/20/7 21/21/7
f 21/21/8 14/20/8 2/2/8 15/1/8
f 1/22/9 3/23/9 5/24/9 7/25/9 9/26/9 11/27/9 13/28/9
f 27/29/10 21/21/10 15/1/10 28/30/10
f 26/31/11 20/14/11 21/21/11 27/29/11
f 25/32/12 19/12/12 20/14/12 26/31/12
f 24/33/13 18/9/13 19/12/13 25/32/13
f 23/34/14 17/6/14 18/8/14 24/35/14
f 22/36/15 16/4/15 17/6/15 23/34/15
f 28/30/16 15/1/16 16/4/16 22/36/16
f 1/37/1 28/30/1 22/36/1 3/38/1
f 3/38/17 22/36/17 23/34/17 5/39/17
f 5/39/3 23/34/3 24/35/3 7/40/3
f 7/25/4 24/33/4 25/32/4 9/26/4
f 9/26/18 25/32/18 26/31/18 11/41/18
f 11/41/19 26/31/19 27/29/19 13/42/19
f 13/42/8 27/29/8 28/30/8 1/37/8
f 29/43/20 30/44/20 32/45/20 31/46/20
f 33/47/20 34/48/20 36/49/20 35/50/20
f 37/51/21 39/52/21 40/53/21 38/54/21
f 41/55/21 43/56/21 44/57/21 42/58/21
f 29/43/22 31/46/22 39/59/22 37/60/22
f 30/44/23 29/61/23 37/62/23 38/54/23
f 32/45/24 30/44/24 38/54/24 40/53/24
f 31/63/25 32/45/25 40/53/25 39/64/25
f 33/65/26 35/66/26 43/67/26 41/68/26
f 34/69/27 33/70/27 41/71/27 42/72/27
f 36/73/28 34/69/28 42/72/28 44/57/28
f 35/74/29 36/73/29 44/57/29 43/56/29
f 59/75/30 46/76/30 48/77/30 60/78/30
f 60/78/31 48/77/31 50/79/31 61/80/31
f 61/80/32 50/79/32 52/81/32 62/82/32
f 62/83/33 52/84/33 54/85/33 63/86/33
f 63/86/34 54/85/34 56/87/34 64/88/34
f 48/89/35 46/90/35 58/91/35 56/92/35 54/85/35 52/84/35 50/93/35
f 64/88/36 56/87/36 58/94/36 65/95/36
f 65/95/37 58/94/37 46/76/37 59/75/37
f 45/96/38 47/97/38 49/98/38 51/99/38 53/100/38 55/101/38 57/102/38
f 71/103/39 65/95/39 59/75/39 72/104/39
f 70/105/40 64/88/40 65/95/40 71/103/40
f 69/106/41 63/86/41 64/88/41 70/105/41
f 68/107/42 62/83/42 63/86/42 69/106/42
f 67/108/43 61/80/43 62/82/43 68/109/43
f 66/110/44 60/78/44 61/80/44 67/108/44
f 72/104/45 59/75/45 60/78/45 66/110/45
f 45/111/30 72/104/30 66/110/30 47/112/30
f 47/112/46 66/110/46 67/108/46 49/113/46
f 49/113/32 67/108/32 68/109/32 51/114/32
f 51/99/33 68/107/33 69/106/33 53/100/33
f 53/100/34 69/106/34 70/105/34 55/115/34
f 55/115/47 70/105/47 71/103/47 57/116/47
f 57/116/37 71/103/37 72/104/37 45/111/37
