# Blender v2.82 (sub 7) OBJ File: 'rock 1.blend'
# www.blender.org
mtllib rock_01.mtl
o Sphere
v 0.096649 1.186802 -0.821257
v 0.158872 0.049962 -1.295541
v 0.084514 -0.792739 -1.370650
v 0.144473 -1.341121 -1.333335
v 0.287959 0.819141 -0.498843
v 0.620253 -0.042055 -0.877986
v 0.893811 -0.732321 -1.010178
v 0.743559 -1.301784 -1.042848
v 0.343967 0.727972 0.078009
v 0.838921 0.022694 0.110606
v 1.292110 -0.611536 -0.139964
v 0.998286 -1.238829 -0.446838
v 0.170661 -1.549141 -0.918784
v 0.215566 0.808628 0.362734
v 0.598372 -0.027078 0.635984
v 0.939033 -0.641758 0.508380
v 0.737587 -1.245882 -0.004368
v -0.119642 1.149467 0.462519
v 0.025211 -0.028548 0.658711
v 0.200642 -0.767937 0.579010
v 0.142878 -1.288426 0.126935
v -0.179542 1.438768 -0.107230
v -0.655713 1.332863 0.343774
v -0.714681 0.626512 0.599687
v -0.682213 -0.618964 0.629862
v -0.387029 -1.265666 0.068282
v -0.895903 1.417681 -0.144295
v -0.901471 0.837163 -0.007713
v -0.937676 -0.505602 0.083733
v -0.578607 -1.282777 -0.413253
v -0.539970 1.337119 -0.607399
v -0.209593 0.564164 -0.843102
v -0.583973 -0.704585 -0.890830
v -0.383058 -1.323472 -1.008634
vt 0.750000 0.200000
vt 0.750000 0.400000
vt 0.625000 0.400000
vt 0.625000 0.200000
vt 0.750000 0.600000
vt 0.750000 0.800000
vt 0.625000 0.800000
vt 0.625000 0.600000
vt 0.687500 0.000000
vt 0.687500 1.000000
vt 0.562500 0.000000
vt 0.500000 0.200000
vt 0.500000 0.600000
vt 0.500000 0.400000
vt 0.562500 1.000000
vt 0.500000 0.800000
vt 0.437500 0.000000
vt 0.375000 0.200000
vt 0.375000 0.600000
vt 0.375000 0.400000
vt 0.437500 1.000000
vt 0.375000 0.800000
vt 0.312500 0.000000
vt 0.250000 0.200000
vt 0.250000 0.600000
vt 0.250000 0.400000
vt 0.312500 1.000000
vt 0.250000 0.800000
vt 0.187500 0.000000
vt 0.125000 0.200000
vt 0.125000 0.600000
vt 0.125000 0.400000
vt 0.187500 1.000000
vt 0.125000 0.800000
vt 0.062500 0.000000
vt 0.000000 0.200000
vt 0.000000 0.600000
vt 0.000000 0.400000
vt 0.062500 1.000000
vt 0.000000 0.800000
vt 0.937500 0.000000
vt 1.000000 0.200000
vt 0.875000 0.200000
vt 1.000000 0.400000
vt 1.000000 0.600000
vt 0.875000 0.600000
vt 0.875000 0.400000
vt 1.000000 0.800000
vt 0.937500 1.000000
vt 0.875000 0.800000
vt 0.812500 0.000000
vt 0.812500 1.000000
vn 0.4215 -0.0378 -0.9061
vn 0.7991 0.3626 -0.4796
vn 0.2719 -0.8531 -0.4453
vn 0.5169 0.1803 -0.8368
vn 0.8290 0.5442 0.1286
vn 0.3833 -0.9212 -0.0665
vn 0.7908 0.5249 -0.3149
vn 0.8031 0.5957 0.0162
vn 0.8997 -0.2283 -0.3721
vn 0.8618 0.4867 -0.1430
vn 0.2733 -0.9508 0.1459
vn 0.8130 0.3843 0.4374
vn 0.7707 0.6130 0.1739
vn 0.7323 -0.5561 0.3930
vn 0.7870 0.5155 0.3388
vn 0.1225 -0.9622 0.2432
vn 0.0821 -0.1202 0.9894
vn 0.7260 0.6410 0.2492
vn 0.1934 -0.6641 0.7222
vn 0.2295 0.2776 0.9329
vn -0.0681 -0.9685 0.2396
vn -0.0183 -0.0269 0.9995
vn 0.2071 0.8809 0.4255
vn -0.0847 -0.6631 0.7437
vn 0.0184 0.2341 0.9720
vn -0.2506 -0.9588 0.1338
vn -0.9318 0.0184 0.3624
vn -0.0387 0.9811 0.1895
vn -0.7738 -0.5664 0.2836
vn -0.9028 0.1663 0.3967
vn -0.3687 -0.9277 -0.0577
vn -0.8448 0.1241 -0.5204
vn -0.0193 0.9824 -0.1857
vn -0.9261 -0.2453 -0.2866
vn -0.7889 -0.1456 -0.5970
vn -0.2847 -0.8639 -0.4155
vn -0.6010 0.1731 -0.7803
vn 0.1283 0.9497 -0.2855
vn -0.5610 -0.0685 -0.8250
vn -0.4222 0.2383 -0.8746
usemtl None
s off
f 4/1/1 3/2/1 7/3/1 8/4/1
f 2/5/2 1/6/2 5/7/2 6/8/2
f 13/9/3 4/1/3 8/4/3
f 3/2/4 2/5/4 6/8/4 7/3/4
f 1/6/5 22/10/5 5/7/5
f 13/11/6 8/4/6 12/12/6
f 7/3/7 6/8/7 10/13/7 11/14/7
f 5/7/8 22/15/8 9/16/8
f 8/4/9 7/3/9 11/14/9 12/12/9
f 6/8/10 5/7/10 9/16/10 10/13/10
f 13/17/11 12/12/11 17/18/11
f 11/14/12 10/13/12 15/19/12 16/20/12
f 9/16/13 22/21/13 14/22/13
f 12/12/14 11/14/14 16/20/14 17/18/14
f 10/13/15 9/16/15 14/22/15 15/19/15
f 13/23/16 17/18/16 21/24/16
f 16/20/17 15/19/17 19/25/17 20/26/17
f 14/22/18 22/27/18 18/28/18
f 17/18/19 16/20/19 20/26/19 21/24/19
f 15/19/20 14/22/20 18/28/20 19/25/20
f 13/29/21 21/24/21 26/30/21
f 20/26/22 19/25/22 24/31/22 25/32/22
f 18/28/23 22/33/23 23/34/23
f 21/24/24 20/26/24 25/32/24 26/30/24
f 19/25/25 18/28/25 23/34/25 24/31/25
f 13/35/26 26/30/26 30/36/26
f 25/32/27 24/31/27 28/37/27 29/38/27
f 23/34/28 22/39/28 27/40/28
f 26/30/29 25/32/29 29/38/29 30/36/29
f 24/31/30 23/34/30 27/40/30 28/37/30
f 13/41/31 30/42/31 34/43/31
f 29/44/32 28/45/32 32/46/32 33/47/32
f 27/48/33 22/49/33 31/50/33
f 30/42/34 29/44/34 33/47/34 34/43/34
f 28/45/35 27/48/35 31/50/35 32/46/35
f 13/51/36 34/43/36 4/1/36
f 33/47/37 32/46/37 2/5/37 3/2/37
f 31/50/38 22/52/38 1/6/38
f 34/43/39 33/47/39 3/2/39 4/1/39
f 32/46/40 31/50/40 1/6/40 2/5/40
